<svg xmlns="http://www.w3.org/2000/svg" width="715.107" height="474.793" viewBox="0 0 715.107 474.793">
  <g id="Grupo_138348" data-name="Grupo 138348" transform="translate(-179.5 -4821)">
    <path id="Trazado_190913" data-name="Trazado 190913" d="M404.743,80.929v58.842H374.668v35.305H343.286" transform="translate(434.257 4943.088)" fill="none" stroke="#636363" stroke-miterlimit="10" stroke-width="1"/>
    <path id="Trazado_192282" data-name="Trazado 192282" d="M0,0H25.28" transform="translate(489.847 5004.214)" fill="none" stroke="#636363" stroke-width="1"/>
    <path id="Polígono_26" data-name="Polígono 26" d="M220.389,72.635l-6.371,3.24-.134-6.208Z" transform="translate(300.447 4931.443)" fill="#636363"/>
    <path id="Trazado_192283" data-name="Trazado 192283" d="M0,0H25.28" transform="translate(621.916 5004.214)" fill="none" stroke="#636363" stroke-width="1"/>
    <path id="Polígono_26-2" data-name="Polígono 26" d="M285.316,72.635l-6.371,3.24-.132-6.208Z" transform="translate(367.588 4931.443)" fill="#636363"/>
    <path id="Trazado_192284" data-name="Trazado 192284" d="M25.28,0H0" transform="translate(653.195 5117.541)" fill="none" stroke="#636363" stroke-width="1"/>
    <path id="Polígono_26-3" data-name="Polígono 26" d="M279.347,128.622l6.371-3.24.132,6.208Z" transform="translate(368.14 4989.056)" fill="#636363"/>
    <path id="Trazado_192285" data-name="Trazado 192285" d="M25.28,0H0" transform="translate(523.088 5117.541)" fill="none" stroke="#636363" stroke-width="1"/>
    <path id="Polígono_26-4" data-name="Polígono 26" d="M215.383,128.622l6.371-3.24.132,6.208Z" transform="translate(301.997 4989.056)" fill="#636363"/>
    <path id="Trazado_192286" data-name="Trazado 192286" d="M0,0H25.28" transform="translate(750.062 5004.214)" fill="none" stroke="#636363" stroke-width="1"/>
    <path id="Polígono_26-5" data-name="Polígono 26" d="M348.316,72.635l-6.371,3.24-.132-6.208Z" transform="translate(432.734 4931.443)" fill="#636363"/>
    <path id="Polígono_26-6" data-name="Polígono 26" d="M340.288,128.826l6.371-3.24.132,6.208Z" transform="translate(431.157 4989.266)" fill="#636363"/>
    <path id="Trazado_192287" data-name="Trazado 192287" d="M0,0V33.417" transform="translate(714.341 5040.007)" fill="none" stroke="#636363" stroke-width="1"/>
    <path id="Polígono_26-7" data-name="Polígono 26" d="M313.93,111.332l-3.242-6.371,6.208-.134Z" transform="translate(400.549 4967.8)" fill="#636363"/>
    <path id="Trazado_192288" data-name="Trazado 192288" d="M52.8,0c29.163,0,52.8,12.284,52.8,27.437S81.966,54.874,52.8,54.874,0,42.59,0,27.437,23.641,0,52.8,0Z" transform="translate(390 4976.777)" fill="#fdb74d"/>
    <path id="Trazado_192289" data-name="Trazado 192289" d="M-15.006,0h-1.125V-8.531h1.125Zm8.613,0H-7.523l-4.295-6.574V0h-1.131V-8.531h1.131l4.307,6.6v-6.6h1.119Zm3.205,0H-4.312V-8.531h1.125ZM5.145-2.707a3.139,3.139,0,0,1-1,2.089A3.274,3.274,0,0,1,1.91.117,3.006,3.006,0,0,1-.513-.967a4.361,4.361,0,0,1-.911-2.9v-.82A4.861,4.861,0,0,1-1-6.779a3.173,3.173,0,0,1,1.2-1.386,3.353,3.353,0,0,1,1.8-.483,3.083,3.083,0,0,1,2.18.759,3.176,3.176,0,0,1,.955,2.1H4.014A2.451,2.451,0,0,0,3.378-7.27,1.924,1.924,0,0,0,2.01-7.729a2.013,2.013,0,0,0-1.69.8A3.661,3.661,0,0,0-.293-4.661v.827a3.764,3.764,0,0,0,.58,2.211A1.874,1.874,0,0,0,1.91-.8a2.165,2.165,0,0,0,1.438-.425,2.357,2.357,0,0,0,.665-1.479ZM7.887,0H6.762V-8.531H7.887Zm8.619-3.99A5.277,5.277,0,0,1,16.084-1.8a3.2,3.2,0,0,1-1.2,1.427,3.289,3.289,0,0,1-1.8.492,3.261,3.261,0,0,1-1.787-.5,3.272,3.272,0,0,1-1.21-1.412,5.064,5.064,0,0,1-.442-2.124v-.615A5.215,5.215,0,0,1,10.072-6.7a3.26,3.26,0,0,1,1.21-1.444,3.247,3.247,0,0,1,1.79-.5,3.307,3.307,0,0,1,1.808.5,3.19,3.19,0,0,1,1.2,1.436,5.3,5.3,0,0,1,.422,2.188Zm-1.119-.551a3.825,3.825,0,0,0-.609-2.329,2.01,2.01,0,0,0-1.705-.812,1.988,1.988,0,0,0-1.679.812,3.747,3.747,0,0,0-.63,2.253v.627a3.831,3.831,0,0,0,.618,2.312,2,2,0,0,0,1.7.841,1.989,1.989,0,0,0,1.688-.794,3.809,3.809,0,0,0,.615-2.276Z" transform="translate(443 5005.348)"/>
    <path id="Trazado_190914" data-name="Trazado 190914" d="M391.862,89.252l-52.8,41.091-52.8-41.091,52.8-37.338Z" transform="translate(375.245 4913.085)" fill="#fff" stroke="#fedc72" stroke-miterlimit="10" stroke-width="1"/>
    <path id="Trazado_192290" data-name="Trazado 192290" d="M-28.207-3.34V0h-1.125V-8.531h3.146a3.161,3.161,0,0,1,2.194.715A2.423,2.423,0,0,1-23.2-5.924a2.391,2.391,0,0,1-.776,1.913A3.3,3.3,0,0,1-26.2-3.34Zm0-.92h2.021A2.021,2.021,0,0,0-24.8-4.685a1.556,1.556,0,0,0,.48-1.23,1.608,1.608,0,0,0-.48-1.221,1.894,1.894,0,0,0-1.318-.475h-2.086Zm9.574.809h-2V0h-1.131V-8.531h2.824a3.343,3.343,0,0,1,2.218.656,2.361,2.361,0,0,1,.776,1.91,2.3,2.3,0,0,1-.431,1.389,2.571,2.571,0,0,1-1.2.885l2,3.621V0h-1.207Zm-2-.92h1.729a1.95,1.95,0,0,0,1.333-.434,1.469,1.469,0,0,0,.5-1.162,1.547,1.547,0,0,0-.472-1.215,2,2,0,0,0-1.362-.429h-1.723Zm11.086.428h-3.7V-.92h4.295V0h-5.42V-8.531h5.361v.92h-4.236v2.748h3.7Zm8.3,2.824a2.6,2.6,0,0,1-1.21.929A4.887,4.887,0,0,1-4.271.117,3.506,3.506,0,0,1-6.123-.372,3.26,3.26,0,0,1-7.374-1.764a4.806,4.806,0,0,1-.454-2.092V-4.6a4.487,4.487,0,0,1,.9-2.988A3.134,3.134,0,0,1-4.4-8.648a3.237,3.237,0,0,1,2.15.683,2.974,2.974,0,0,1,1,1.937H-2.379a1.86,1.86,0,0,0-2.016-1.7,1.991,1.991,0,0,0-1.714.795,3.88,3.88,0,0,0-.589,2.3v.7A3.636,3.636,0,0,0-6.041-1.65,2.127,2.127,0,0,0-4.266-.8a3.921,3.921,0,0,0,1.107-.14,1.713,1.713,0,0,0,.785-.473V-3.328H-4.348v-.92h3.094ZM6.627-8.531v5.8A2.721,2.721,0,0,1,5.868-.756,3.058,3.058,0,0,1,3.826.105l-.3.012A3.193,3.193,0,0,1,1.295-.639a2.7,2.7,0,0,1-.844-2.08V-8.531H1.564v5.777a1.951,1.951,0,0,0,.51,1.438A1.959,1.959,0,0,0,3.527-.8a1.972,1.972,0,0,0,1.462-.51A1.948,1.948,0,0,0,5.5-2.748V-8.531ZM14.959,0H13.828L9.533-6.574V0H8.4V-8.531H9.533l4.307,6.6v-6.6h1.119Zm7.723-7.611H19.939V0H18.82V-7.611H16.084v-.92h6.6ZM28.2-2.232H24.621L23.818,0h-1.16l3.258-8.531H26.9L30.164,0H29.01Zm-3.234-.92h2.9l-1.453-3.99Z" transform="translate(714 5004.349)"/>
    <path id="Trazado_192291" data-name="Trazado 192291" d="M52.8,0c29.163,0,52.8,12.284,52.8,27.437S81.966,54.874,52.8,54.874,0,42.59,0,27.437,23.641,0,52.8,0Z" transform="translate(405 5090.104)" fill="#fdb74d"/>
    <path id="Trazado_192292" data-name="Trazado 192292" d="M-3.53-3.768H-7.11V0H-8.235V-8.531H-2.95v.92H-7.11v2.924h3.58ZM-.4,0H-1.521V-8.531H-.4ZM8.218,0H7.087L2.792-6.574V0H1.661V-8.531H2.792L7.1-1.928v-6.6H8.218Z" transform="translate(458 5118.674)"/>
    <path id="Trazado_192293" data-name="Trazado 192293" d="M0,0H105.607V56.546H0Z" transform="translate(528 4975.941)" fill="#5038a1"/>
    <path id="Trazado_192294" data-name="Trazado 192294" d="M-24.384-2.232h-3.574L-28.761,0h-1.16l3.258-8.531h.984L-22.415,0h-1.154Zm-3.234-.92h2.9l-1.453-3.99Zm12.563.445a3.139,3.139,0,0,1-1,2.089A3.274,3.274,0,0,1-18.29.117,3.006,3.006,0,0,1-20.713-.967a4.361,4.361,0,0,1-.911-2.9v-.82A4.861,4.861,0,0,1-21.2-6.779,3.173,3.173,0,0,1-20-8.165a3.353,3.353,0,0,1,1.8-.483,3.083,3.083,0,0,1,2.18.759,3.176,3.176,0,0,1,.955,2.1h-1.131a2.451,2.451,0,0,0-.636-1.481,1.924,1.924,0,0,0-1.368-.458,2.013,2.013,0,0,0-1.69.8,3.661,3.661,0,0,0-.612,2.269v.827a3.764,3.764,0,0,0,.58,2.211A1.874,1.874,0,0,0-18.29-.8a2.165,2.165,0,0,0,1.438-.425,2.357,2.357,0,0,0,.665-1.479Zm7.26-4.9h-2.742V0h-1.119V-7.611h-2.736v-.92h6.6ZM-5.323,0H-6.448V-8.531h1.125ZM-.442-1.494,2-8.531h1.23L.062,0h-1L-4.093-8.531h1.225ZM5.575,0H4.45V-8.531H5.575ZM7.632,0V-8.531H10.04a3.877,3.877,0,0,1,1.969.492,3.329,3.329,0,0,1,1.321,1.4A4.558,4.558,0,0,1,13.8-4.553v.545a4.574,4.574,0,0,1-.466,2.115A3.277,3.277,0,0,1,12.006-.5,4.124,4.124,0,0,1,9.993,0ZM8.757-7.611V-.92H9.94a2.575,2.575,0,0,0,2.024-.809,3.344,3.344,0,0,0,.724-2.3v-.5a3.4,3.4,0,0,0-.683-2.261,2.429,2.429,0,0,0-1.937-.818ZM20.089-2.232H16.515L15.712,0h-1.16L17.81-8.531h.984L22.058,0H20.9Zm-3.234-.92h2.9L18.3-7.143ZM23.206,0V-8.531h2.408a3.877,3.877,0,0,1,1.969.492,3.329,3.329,0,0,1,1.321,1.4,4.558,4.558,0,0,1,.472,2.086v.545a4.574,4.574,0,0,1-.466,2.115A3.277,3.277,0,0,1,27.58-.5a4.124,4.124,0,0,1-2.013.5Zm1.125-7.611V-.92h1.184a2.575,2.575,0,0,0,2.024-.809,3.344,3.344,0,0,0,.724-2.3v-.5a3.4,3.4,0,0,0-.683-2.261,2.429,2.429,0,0,0-1.937-.818Z" transform="translate(581 5004.349)" fill="#fff"/>
    <path id="Trazado_192295" data-name="Trazado 192295" d="M0,0H105.607V56.546H0Z" transform="translate(789 4975.941)" fill="#5038a1"/>
    <path id="Trazado_192296" data-name="Trazado 192296" d="M-24.384-2.232h-3.574L-28.761,0h-1.16l3.258-8.531h.984L-22.415,0h-1.154Zm-3.234-.92h2.9l-1.453-3.99Zm12.563.445a3.139,3.139,0,0,1-1,2.089A3.274,3.274,0,0,1-18.29.117,3.006,3.006,0,0,1-20.713-.967a4.361,4.361,0,0,1-.911-2.9v-.82A4.861,4.861,0,0,1-21.2-6.779,3.173,3.173,0,0,1-20-8.165a3.353,3.353,0,0,1,1.8-.483,3.083,3.083,0,0,1,2.18.759,3.176,3.176,0,0,1,.955,2.1h-1.131a2.451,2.451,0,0,0-.636-1.481,1.924,1.924,0,0,0-1.368-.458,2.013,2.013,0,0,0-1.69.8,3.661,3.661,0,0,0-.612,2.269v.827a3.764,3.764,0,0,0,.58,2.211A1.874,1.874,0,0,0-18.29-.8a2.165,2.165,0,0,0,1.438-.425,2.357,2.357,0,0,0,.665-1.479Zm7.26-4.9h-2.742V0h-1.119V-7.611h-2.736v-.92h6.6ZM-5.323,0H-6.448V-8.531h1.125ZM-.442-1.494,2-8.531h1.23L.062,0h-1L-4.093-8.531h1.225ZM5.575,0H4.45V-8.531H5.575ZM7.632,0V-8.531H10.04a3.877,3.877,0,0,1,1.969.492,3.329,3.329,0,0,1,1.321,1.4A4.558,4.558,0,0,1,13.8-4.553v.545a4.574,4.574,0,0,1-.466,2.115A3.277,3.277,0,0,1,12.006-.5,4.124,4.124,0,0,1,9.993,0ZM8.757-7.611V-.92H9.94a2.575,2.575,0,0,0,2.024-.809,3.344,3.344,0,0,0,.724-2.3v-.5a3.4,3.4,0,0,0-.683-2.261,2.429,2.429,0,0,0-1.937-.818ZM20.089-2.232H16.515L15.712,0h-1.16L17.81-8.531h.984L22.058,0H20.9Zm-3.234-.92h2.9L18.3-7.143ZM23.206,0V-8.531h2.408a3.877,3.877,0,0,1,1.969.492,3.329,3.329,0,0,1,1.321,1.4,4.558,4.558,0,0,1,.472,2.086v.545a4.574,4.574,0,0,1-.466,2.115A3.277,3.277,0,0,1,27.58-.5a4.124,4.124,0,0,1-2.013.5Zm1.125-7.611V-.92h1.184a2.575,2.575,0,0,0,2.024-.809,3.344,3.344,0,0,0,.724-2.3v-.5a3.4,3.4,0,0,0-.683-2.261,2.429,2.429,0,0,0-1.937-.818Z" transform="translate(842 5004.349)" fill="#fff"/>
    <path id="Trazado_192297" data-name="Trazado 192297" d="M0,0H105.607V56.546H0Z" transform="translate(662 5089.268)" fill="#5038a1"/>
    <path id="Trazado_192298" data-name="Trazado 192298" d="M-24.384-2.232h-3.574L-28.761,0h-1.16l3.258-8.531h.984L-22.415,0h-1.154Zm-3.234-.92h2.9l-1.453-3.99Zm12.563.445a3.139,3.139,0,0,1-1,2.089A3.274,3.274,0,0,1-18.29.117,3.006,3.006,0,0,1-20.713-.967a4.361,4.361,0,0,1-.911-2.9v-.82A4.861,4.861,0,0,1-21.2-6.779,3.173,3.173,0,0,1-20-8.165a3.353,3.353,0,0,1,1.8-.483,3.083,3.083,0,0,1,2.18.759,3.176,3.176,0,0,1,.955,2.1h-1.131a2.451,2.451,0,0,0-.636-1.481,1.924,1.924,0,0,0-1.368-.458,2.013,2.013,0,0,0-1.69.8,3.661,3.661,0,0,0-.612,2.269v.827a3.764,3.764,0,0,0,.58,2.211A1.874,1.874,0,0,0-18.29-.8a2.165,2.165,0,0,0,1.438-.425,2.357,2.357,0,0,0,.665-1.479Zm7.26-4.9h-2.742V0h-1.119V-7.611h-2.736v-.92h6.6ZM-5.323,0H-6.448V-8.531h1.125ZM-.442-1.494,2-8.531h1.23L.062,0h-1L-4.093-8.531h1.225ZM5.575,0H4.45V-8.531H5.575ZM7.632,0V-8.531H10.04a3.877,3.877,0,0,1,1.969.492,3.329,3.329,0,0,1,1.321,1.4A4.558,4.558,0,0,1,13.8-4.553v.545a4.574,4.574,0,0,1-.466,2.115A3.277,3.277,0,0,1,12.006-.5,4.124,4.124,0,0,1,9.993,0ZM8.757-7.611V-.92H9.94a2.575,2.575,0,0,0,2.024-.809,3.344,3.344,0,0,0,.724-2.3v-.5a3.4,3.4,0,0,0-.683-2.261,2.429,2.429,0,0,0-1.937-.818ZM20.089-2.232H16.515L15.712,0h-1.16L17.81-8.531h.984L22.058,0H20.9Zm-3.234-.92h2.9L18.3-7.143ZM23.206,0V-8.531h2.408a3.877,3.877,0,0,1,1.969.492,3.329,3.329,0,0,1,1.321,1.4,4.558,4.558,0,0,1,.472,2.086v.545a4.574,4.574,0,0,1-.466,2.115A3.277,3.277,0,0,1,27.58-.5a4.124,4.124,0,0,1-2.013.5Zm1.125-7.611V-.92h1.184a2.575,2.575,0,0,0,2.024-.809,3.344,3.344,0,0,0,.724-2.3v-.5a3.4,3.4,0,0,0-.683-2.261,2.429,2.429,0,0,0-1.937-.818Z" transform="translate(714 5117.675)" fill="#fff"/>
    <path id="Trazado_192299" data-name="Trazado 192299" d="M0,0H105.607V56.546H0Z" transform="translate(535 5089.268)" fill="#5038a1"/>
    <path id="Trazado_192300" data-name="Trazado 192300" d="M-24.384-2.232h-3.574L-28.761,0h-1.16l3.258-8.531h.984L-22.415,0h-1.154Zm-3.234-.92h2.9l-1.453-3.99Zm12.563.445a3.139,3.139,0,0,1-1,2.089A3.274,3.274,0,0,1-18.29.117,3.006,3.006,0,0,1-20.713-.967a4.361,4.361,0,0,1-.911-2.9v-.82A4.861,4.861,0,0,1-21.2-6.779,3.173,3.173,0,0,1-20-8.165a3.353,3.353,0,0,1,1.8-.483,3.083,3.083,0,0,1,2.18.759,3.176,3.176,0,0,1,.955,2.1h-1.131a2.451,2.451,0,0,0-.636-1.481,1.924,1.924,0,0,0-1.368-.458,2.013,2.013,0,0,0-1.69.8,3.661,3.661,0,0,0-.612,2.269v.827a3.764,3.764,0,0,0,.58,2.211A1.874,1.874,0,0,0-18.29-.8a2.165,2.165,0,0,0,1.438-.425,2.357,2.357,0,0,0,.665-1.479Zm7.26-4.9h-2.742V0h-1.119V-7.611h-2.736v-.92h6.6ZM-5.323,0H-6.448V-8.531h1.125ZM-.442-1.494,2-8.531h1.23L.062,0h-1L-4.093-8.531h1.225ZM5.575,0H4.45V-8.531H5.575ZM7.632,0V-8.531H10.04a3.877,3.877,0,0,1,1.969.492,3.329,3.329,0,0,1,1.321,1.4A4.558,4.558,0,0,1,13.8-4.553v.545a4.574,4.574,0,0,1-.466,2.115A3.277,3.277,0,0,1,12.006-.5,4.124,4.124,0,0,1,9.993,0ZM8.757-7.611V-.92H9.94a2.575,2.575,0,0,0,2.024-.809,3.344,3.344,0,0,0,.724-2.3v-.5a3.4,3.4,0,0,0-.683-2.261,2.429,2.429,0,0,0-1.937-.818ZM20.089-2.232H16.515L15.712,0h-1.16L17.81-8.531h.984L22.058,0H20.9Zm-3.234-.92h2.9L18.3-7.143ZM23.206,0V-8.531h2.408a3.877,3.877,0,0,1,1.969.492,3.329,3.329,0,0,1,1.321,1.4,4.558,4.558,0,0,1,.472,2.086v.545a4.574,4.574,0,0,1-.466,2.115A3.277,3.277,0,0,1,27.58-.5a4.124,4.124,0,0,1-2.013.5Zm1.125-7.611V-.92h1.184a2.575,2.575,0,0,0,2.024-.809,3.344,3.344,0,0,0,.724-2.3v-.5a3.4,3.4,0,0,0-.683-2.261,2.429,2.429,0,0,0-1.937-.818Z" transform="translate(588 5117.675)" fill="#fff"/>
    <path id="Trazado_192301" data-name="Trazado 192301" d="M0,0V24.533" transform="translate(275.032 4863.863)" fill="none" stroke="#636363" stroke-width="1"/>
    <path id="Trazado_192302" data-name="Trazado 192302" d="M0,0V24.533" transform="translate(275.032 4939.155)" fill="none" stroke="#636363" stroke-width="1"/>
    <path id="Trazado_192303" data-name="Trazado 192303" d="M0,0V24.533" transform="translate(276.5 5112.581)" fill="none" stroke="#636363" stroke-width="1"/>
    <path id="Trazado_192304" data-name="Trazado 192304" d="M0,0V24.533" transform="translate(276.089 5194.077)" fill="none" stroke="#636363" stroke-width="1"/>
    <path id="Trazado_190915" data-name="Trazado 190915" d="M109.179,182.015h49.913V96.571H130.328" transform="translate(209.844 4825.664)" fill="none" stroke="#636363" stroke-miterlimit="10" stroke-width="1"/>
    <path id="Trazado_190916" data-name="Trazado 190916" d="M88.663,140.286H38.75V225.73H67.513" transform="translate(141.25 4868.24)" fill="none" stroke="#636363" stroke-miterlimit="10" stroke-width="1"/>
    <path id="Polígono_26-8" data-name="Polígono 26" d="M88.513,85.35l-3.146-6.182,6.025-.13Z" transform="translate(186.653 4808.586)" fill="#636363"/>
    <path id="Polígono_26-9" data-name="Polígono 26" d="M88.513,122.634l-3.146-6.182,6.025-.128Z" transform="translate(186.653 4844.901)" fill="#636363"/>
    <path id="Polígono_26-10" data-name="Polígono 26" d="M59.669,184.869l-6.182,3.146-.13-6.025Z" transform="translate(155.476 4908.859)" fill="#636363"/>
    <path id="Polígono_26-11" data-name="Polígono 26" d="M89.048,211,85.9,204.817l6.023-.128Z" transform="translate(187.097 4930.966)" fill="#636363"/>
    <path id="Polígono_26-12" data-name="Polígono 26" d="M89.048,252.286,85.9,246.1l6.023-.128Z" transform="translate(187.175 4971.177)" fill="#636363"/>
    <path id="Polígono_26-13" data-name="Polígono 26" d="M116.951,98.095l6.184-3.145.128,6.023Z" transform="translate(217.414 4824.085)" fill="#636363"/>
    <path id="Trazado_192305" data-name="Trazado 192305" d="M51.243,0c28.3,0,51.243,11.921,51.243,26.626S79.544,53.253,51.243,53.253,0,41.332,0,26.626,22.942,0,51.243,0Z" transform="translate(225 4821)" fill="#fdb74d"/>
    <path id="Trazado_190917" data-name="Trazado 190917" d="M163.955,158.106l-51.243,39.877L61.469,158.106l51.243-36.235Z" transform="translate(163.031 4850.305)" fill="#fff" stroke="#fedc72" stroke-miterlimit="10" stroke-width="1"/>
    <path id="Trazado_192306" data-name="Trazado 192306" d="M0,0H102.487V54.875H0Z" transform="translate(225 4896.942)" fill="#5038a1"/>
    <path id="Trazado_192307" data-name="Trazado 192307" d="M0,0H102.487V54.875H0Z" transform="translate(225 5068.181)" fill="#8c6df2"/>
    <path id="Trazado_192308" data-name="Trazado 192308" d="M0,0H102.487V54.875H0Z" transform="translate(225 5146.339)" fill="#8c6df2"/>
    <path id="Trazado_192309" data-name="Trazado 192309" d="M-15.006,0h-1.125V-8.531h1.125Zm8.613,0H-7.523l-4.295-6.574V0h-1.131V-8.531h1.131l4.307,6.6v-6.6h1.119Zm3.205,0H-4.312V-8.531h1.125ZM5.145-2.707a3.139,3.139,0,0,1-1,2.089A3.274,3.274,0,0,1,1.91.117,3.006,3.006,0,0,1-.513-.967a4.361,4.361,0,0,1-.911-2.9v-.82A4.861,4.861,0,0,1-1-6.779a3.173,3.173,0,0,1,1.2-1.386,3.353,3.353,0,0,1,1.8-.483,3.083,3.083,0,0,1,2.18.759,3.176,3.176,0,0,1,.955,2.1H4.014A2.451,2.451,0,0,0,3.378-7.27,1.924,1.924,0,0,0,2.01-7.729a2.013,2.013,0,0,0-1.69.8A3.661,3.661,0,0,0-.293-4.661v.827a3.764,3.764,0,0,0,.58,2.211A1.874,1.874,0,0,0,1.91-.8a2.165,2.165,0,0,0,1.438-.425,2.357,2.357,0,0,0,.665-1.479ZM7.887,0H6.762V-8.531H7.887Zm8.619-3.99A5.277,5.277,0,0,1,16.084-1.8a3.2,3.2,0,0,1-1.2,1.427,3.289,3.289,0,0,1-1.8.492,3.261,3.261,0,0,1-1.787-.5,3.272,3.272,0,0,1-1.21-1.412,5.064,5.064,0,0,1-.442-2.124v-.615A5.215,5.215,0,0,1,10.072-6.7a3.26,3.26,0,0,1,1.21-1.444,3.247,3.247,0,0,1,1.79-.5,3.307,3.307,0,0,1,1.808.5,3.19,3.19,0,0,1,1.2,1.436,5.3,5.3,0,0,1,.422,2.188Zm-1.119-.551a3.825,3.825,0,0,0-.609-2.329,2.01,2.01,0,0,0-1.705-.812,1.988,1.988,0,0,0-1.679.812,3.747,3.747,0,0,0-.63,2.253v.627a3.831,3.831,0,0,0,.618,2.312,2,2,0,0,0,1.7.841,1.989,1.989,0,0,0,1.688-.794,3.809,3.809,0,0,0,.615-2.276Z" transform="translate(276 4849.993)"/>
    <path id="Trazado_192310" data-name="Trazado 192310" d="M-28.207-3.34V0h-1.125V-8.531h3.146a3.161,3.161,0,0,1,2.194.715A2.423,2.423,0,0,1-23.2-5.924a2.391,2.391,0,0,1-.776,1.913A3.3,3.3,0,0,1-26.2-3.34Zm0-.92h2.021A2.021,2.021,0,0,0-24.8-4.685a1.556,1.556,0,0,0,.48-1.23,1.608,1.608,0,0,0-.48-1.221,1.894,1.894,0,0,0-1.318-.475h-2.086Zm9.574.809h-2V0h-1.131V-8.531h2.824a3.343,3.343,0,0,1,2.218.656,2.361,2.361,0,0,1,.776,1.91,2.3,2.3,0,0,1-.431,1.389,2.571,2.571,0,0,1-1.2.885l2,3.621V0h-1.207Zm-2-.92h1.729a1.95,1.95,0,0,0,1.333-.434,1.469,1.469,0,0,0,.5-1.162,1.547,1.547,0,0,0-.472-1.215,2,2,0,0,0-1.362-.429h-1.723Zm11.086.428h-3.7V-.92h4.295V0h-5.42V-8.531h5.361v.92h-4.236v2.748h3.7Zm8.3,2.824a2.6,2.6,0,0,1-1.21.929A4.887,4.887,0,0,1-4.271.117,3.506,3.506,0,0,1-6.123-.372,3.26,3.26,0,0,1-7.374-1.764a4.806,4.806,0,0,1-.454-2.092V-4.6a4.487,4.487,0,0,1,.9-2.988A3.134,3.134,0,0,1-4.4-8.648a3.237,3.237,0,0,1,2.15.683,2.974,2.974,0,0,1,1,1.937H-2.379a1.86,1.86,0,0,0-2.016-1.7,1.991,1.991,0,0,0-1.714.795,3.88,3.88,0,0,0-.589,2.3v.7A3.636,3.636,0,0,0-6.041-1.65,2.127,2.127,0,0,0-4.266-.8a3.921,3.921,0,0,0,1.107-.14,1.713,1.713,0,0,0,.785-.473V-3.328H-4.348v-.92h3.094ZM6.627-8.531v5.8A2.721,2.721,0,0,1,5.868-.756,3.058,3.058,0,0,1,3.826.105l-.3.012A3.193,3.193,0,0,1,1.295-.639a2.7,2.7,0,0,1-.844-2.08V-8.531H1.564v5.777a1.951,1.951,0,0,0,.51,1.438A1.959,1.959,0,0,0,3.527-.8a1.972,1.972,0,0,0,1.462-.51A1.948,1.948,0,0,0,5.5-2.748V-8.531ZM14.959,0H13.828L9.533-6.574V0H8.4V-8.531H9.533l4.307,6.6v-6.6h1.119Zm7.723-7.611H19.939V0H18.82V-7.611H16.084v-.92h6.6ZM28.2-2.232H24.621L23.818,0h-1.16l3.258-8.531H26.9L30.164,0H29.01Zm-3.234-.92h2.9l-1.453-3.99Z" transform="translate(276 5010.476)"/>
    <path id="Trazado_192311" data-name="Trazado 192311" d="M-24.384-2.232h-3.574L-28.761,0h-1.16l3.258-8.531h.984L-22.415,0h-1.154Zm-3.234-.92h2.9l-1.453-3.99Zm12.563.445a3.139,3.139,0,0,1-1,2.089A3.274,3.274,0,0,1-18.29.117,3.006,3.006,0,0,1-20.713-.967a4.361,4.361,0,0,1-.911-2.9v-.82A4.861,4.861,0,0,1-21.2-6.779,3.173,3.173,0,0,1-20-8.165a3.353,3.353,0,0,1,1.8-.483,3.083,3.083,0,0,1,2.18.759,3.176,3.176,0,0,1,.955,2.1h-1.131a2.451,2.451,0,0,0-.636-1.481,1.924,1.924,0,0,0-1.368-.458,2.013,2.013,0,0,0-1.69.8,3.661,3.661,0,0,0-.612,2.269v.827a3.764,3.764,0,0,0,.58,2.211A1.874,1.874,0,0,0-18.29-.8a2.165,2.165,0,0,0,1.438-.425,2.357,2.357,0,0,0,.665-1.479Zm7.26-4.9h-2.742V0h-1.119V-7.611h-2.736v-.92h6.6ZM-5.323,0H-6.448V-8.531h1.125ZM-.442-1.494,2-8.531h1.23L.062,0h-1L-4.093-8.531h1.225ZM5.575,0H4.45V-8.531H5.575ZM7.632,0V-8.531H10.04a3.877,3.877,0,0,1,1.969.492,3.329,3.329,0,0,1,1.321,1.4A4.558,4.558,0,0,1,13.8-4.553v.545a4.574,4.574,0,0,1-.466,2.115A3.277,3.277,0,0,1,12.006-.5,4.124,4.124,0,0,1,9.993,0ZM8.757-7.611V-.92H9.94a2.575,2.575,0,0,0,2.024-.809,3.344,3.344,0,0,0,.724-2.3v-.5a3.4,3.4,0,0,0-.683-2.261,2.429,2.429,0,0,0-1.937-.818ZM20.089-2.232H16.515L15.712,0h-1.16L17.81-8.531h.984L22.058,0H20.9Zm-3.234-.92h2.9L18.3-7.143ZM23.206,0V-8.531h2.408a3.877,3.877,0,0,1,1.969.492,3.329,3.329,0,0,1,1.321,1.4,4.558,4.558,0,0,1,.472,2.086v.545a4.574,4.574,0,0,1-.466,2.115A3.277,3.277,0,0,1,27.58-.5a4.124,4.124,0,0,1-2.013.5Zm1.125-7.611V-.92h1.184a2.575,2.575,0,0,0,2.024-.809,3.344,3.344,0,0,0,.724-2.3v-.5a3.4,3.4,0,0,0-.683-2.261,2.429,2.429,0,0,0-1.937-.818Z" transform="translate(276 5097.612)" fill="#fff"/>
    <path id="Trazado_192312" data-name="Trazado 192312" d="M-24.384-2.232h-3.574L-28.761,0h-1.16l3.258-8.531h.984L-22.415,0h-1.154Zm-3.234-.92h2.9l-1.453-3.99Zm12.563.445a3.139,3.139,0,0,1-1,2.089A3.274,3.274,0,0,1-18.29.117,3.006,3.006,0,0,1-20.713-.967a4.361,4.361,0,0,1-.911-2.9v-.82A4.861,4.861,0,0,1-21.2-6.779,3.173,3.173,0,0,1-20-8.165a3.353,3.353,0,0,1,1.8-.483,3.083,3.083,0,0,1,2.18.759,3.176,3.176,0,0,1,.955,2.1h-1.131a2.451,2.451,0,0,0-.636-1.481,1.924,1.924,0,0,0-1.368-.458,2.013,2.013,0,0,0-1.69.8,3.661,3.661,0,0,0-.612,2.269v.827a3.764,3.764,0,0,0,.58,2.211A1.874,1.874,0,0,0-18.29-.8a2.165,2.165,0,0,0,1.438-.425,2.357,2.357,0,0,0,.665-1.479Zm7.26-4.9h-2.742V0h-1.119V-7.611h-2.736v-.92h6.6ZM-5.323,0H-6.448V-8.531h1.125ZM-.442-1.494,2-8.531h1.23L.062,0h-1L-4.093-8.531h1.225ZM5.575,0H4.45V-8.531H5.575ZM7.632,0V-8.531H10.04a3.877,3.877,0,0,1,1.969.492,3.329,3.329,0,0,1,1.321,1.4A4.558,4.558,0,0,1,13.8-4.553v.545a4.574,4.574,0,0,1-.466,2.115A3.277,3.277,0,0,1,12.006-.5,4.124,4.124,0,0,1,9.993,0ZM8.757-7.611V-.92H9.94a2.575,2.575,0,0,0,2.024-.809,3.344,3.344,0,0,0,.724-2.3v-.5a3.4,3.4,0,0,0-.683-2.261,2.429,2.429,0,0,0-1.937-.818ZM20.089-2.232H16.515L15.712,0h-1.16L17.81-8.531h.984L22.058,0H20.9Zm-3.234-.92h2.9L18.3-7.143ZM23.206,0V-8.531h2.408a3.877,3.877,0,0,1,1.969.492,3.329,3.329,0,0,1,1.321,1.4,4.558,4.558,0,0,1,.472,2.086v.545a4.574,4.574,0,0,1-.466,2.115A3.277,3.277,0,0,1,27.58-.5a4.124,4.124,0,0,1-2.013.5Zm1.125-7.611V-.92h1.184a2.575,2.575,0,0,0,2.024-.809,3.344,3.344,0,0,0,.724-2.3v-.5a3.4,3.4,0,0,0-.683-2.261,2.429,2.429,0,0,0-1.937-.818Z" transform="translate(276 5174.596)" fill="#fff"/>
    <path id="Trazado_192313" data-name="Trazado 192313" d="M-1.512-3.8A5.29,5.29,0,0,1-3.618-4.825a1.954,1.954,0,0,1-.659-1.5,2.064,2.064,0,0,1,.806-1.667,3.2,3.2,0,0,1,2.095-.659,3.5,3.5,0,0,1,1.567.34,2.577,2.577,0,0,1,1.066.938,2.4,2.4,0,0,1,.378,1.307H.5a1.56,1.56,0,0,0-.492-1.22,2,2,0,0,0-1.389-.444,2.049,2.049,0,0,0-1.3.367,1.224,1.224,0,0,0-.466,1.018A1.1,1.1,0,0,0-2.7-5.46a4.339,4.339,0,0,0,1.506.66,6.987,6.987,0,0,1,1.664.66,2.525,2.525,0,0,1,.891.841,2.146,2.146,0,0,1,.29,1.131A1.993,1.993,0,0,1,.844-.507,3.448,3.448,0,0,1-1.318.117,4.01,4.01,0,0,1-2.959-.22a2.761,2.761,0,0,1-1.175-.923,2.252,2.252,0,0,1-.413-1.33h1.131a1.469,1.469,0,0,0,.571,1.222A2.4,2.4,0,0,0-1.318-.8,2.211,2.211,0,0,0,.047-1.166a1.18,1.18,0,0,0,.475-.99,1.158,1.158,0,0,0-.439-.97A5.066,5.066,0,0,0-1.512-3.8ZM4.1,0H3.018V-6.34H4.1ZM2.93-8.021a.647.647,0,0,1,.161-.445.6.6,0,0,1,.478-.182.614.614,0,0,1,.48.182.64.64,0,0,1,.164.445.619.619,0,0,1-.164.439.626.626,0,0,1-.48.176.616.616,0,0,1-.478-.176A.626.626,0,0,1,2.93-8.021Z" transform="translate(197.561 5023.399)" fill="#636363"/>
    <path id="Trazado_192314" data-name="Trazado 192314" d="M-.114,0H-.962L-4.184-4.931V0h-.848V-6.4h.848l3.23,4.953V-6.4h.839ZM1.042-2.421a2.808,2.808,0,0,1,.275-1.257,2.049,2.049,0,0,1,.765-.861,2.081,2.081,0,0,1,1.118-.3A2.005,2.005,0,0,1,4.77-4.17a2.587,2.587,0,0,1,.6,1.789v.057A2.833,2.833,0,0,1,5.1-1.079a2.019,2.019,0,0,1-.76.859A2.105,2.105,0,0,1,3.208.088,2,2,0,0,1,1.641-.584a2.574,2.574,0,0,1-.6-1.78Zm.817.1a2.034,2.034,0,0,0,.367,1.27,1.174,1.174,0,0,0,.982.479,1.167,1.167,0,0,0,.984-.486,2.224,2.224,0,0,0,.365-1.36,2.031,2.031,0,0,0-.371-1.268A1.181,1.181,0,0,0,3.2-4.175a1.167,1.167,0,0,0-.971.479A2.208,2.208,0,0,0,1.859-2.325Z" transform="translate(339.289 4992.79)" fill="#636363"/>
    <path id="Trazado_192315" data-name="Trazado 192315" d="M-24.384-2.232h-3.574L-28.761,0h-1.16l3.258-8.531h.984L-22.415,0h-1.154Zm-3.234-.92h2.9l-1.453-3.99Zm12.563.445a3.139,3.139,0,0,1-1,2.089A3.274,3.274,0,0,1-18.29.117,3.006,3.006,0,0,1-20.713-.967a4.361,4.361,0,0,1-.911-2.9v-.82A4.861,4.861,0,0,1-21.2-6.779,3.173,3.173,0,0,1-20-8.165a3.353,3.353,0,0,1,1.8-.483,3.083,3.083,0,0,1,2.18.759,3.176,3.176,0,0,1,.955,2.1h-1.131a2.451,2.451,0,0,0-.636-1.481,1.924,1.924,0,0,0-1.368-.458,2.013,2.013,0,0,0-1.69.8,3.661,3.661,0,0,0-.612,2.269v.827a3.764,3.764,0,0,0,.58,2.211A1.874,1.874,0,0,0-18.29-.8a2.165,2.165,0,0,0,1.438-.425,2.357,2.357,0,0,0,.665-1.479Zm7.26-4.9h-2.742V0h-1.119V-7.611h-2.736v-.92h6.6ZM-5.323,0H-6.448V-8.531h1.125ZM-.442-1.494,2-8.531h1.23L.062,0h-1L-4.093-8.531h1.225ZM5.575,0H4.45V-8.531H5.575ZM7.632,0V-8.531H10.04a3.877,3.877,0,0,1,1.969.492,3.329,3.329,0,0,1,1.321,1.4A4.558,4.558,0,0,1,13.8-4.553v.545a4.574,4.574,0,0,1-.466,2.115A3.277,3.277,0,0,1,12.006-.5,4.124,4.124,0,0,1,9.993,0ZM8.757-7.611V-.92H9.94a2.575,2.575,0,0,0,2.024-.809,3.344,3.344,0,0,0,.724-2.3v-.5a3.4,3.4,0,0,0-.683-2.261,2.429,2.429,0,0,0-1.937-.818ZM20.089-2.232H16.515L15.712,0h-1.16L17.81-8.531h.984L22.058,0H20.9Zm-3.234-.92h2.9L18.3-7.143ZM23.206,0V-8.531h2.408a3.877,3.877,0,0,1,1.969.492,3.329,3.329,0,0,1,1.321,1.4,4.558,4.558,0,0,1,.472,2.086v.545a4.574,4.574,0,0,1-.466,2.115A3.277,3.277,0,0,1,27.58-.5a4.124,4.124,0,0,1-2.013.5Zm1.125-7.611V-.92h1.184a2.575,2.575,0,0,0,2.024-.809,3.344,3.344,0,0,0,.724-2.3v-.5a3.4,3.4,0,0,0-.683-2.261,2.429,2.429,0,0,0-1.937-.818Z" transform="translate(276 4927.006)" fill="#fff"/>
    <path id="Trazado_192316" data-name="Trazado 192316" d="M63.2,0c34.9,0,63.2,14.7,63.2,32.839S98.1,65.678,63.2,65.678,0,50.975,0,32.839,28.3,0,63.2,0Z" transform="translate(212.89 5230.115)" fill="#fdb74d"/>
    <path id="Trazado_192317" data-name="Trazado 192317" d="M-3.53-3.768H-7.11V0H-8.235V-8.531H-2.95v.92H-7.11v2.924h3.58ZM-.4,0H-1.521V-8.531H-.4ZM8.218,0H7.087L2.792-6.574V0H1.661V-8.531H2.792L7.1-1.928v-6.6H8.218Z" transform="translate(274.221 5265.32)"/>
  </g>
</svg>
