<svg xmlns="http://www.w3.org/2000/svg" width="610" height="368" viewBox="0 0 610 368">
  <g id="Grupo_138315" data-name="Grupo 138315" transform="translate(1374 9604)">
    <path id="Trazado_192240" data-name="Trazado 192240" d="M10,0H600a10,10,0,0,1,10,10V358a10,10,0,0,1-10,10H10A10,10,0,0,1,0,358V10A10,10,0,0,1,10,0Z" transform="translate(-1374 -9604)" fill="#f8fbff"/>
    <path id="Trazado_192241" data-name="Trazado 192241" d="M0,0H209.855" transform="translate(-1237.601 -9420.972)" fill="none" stroke="#5038a1" stroke-width="1"/>
    <path id="Trazado_192242" data-name="Trazado 192242" d="M23.475,0,0,96.747" transform="translate(-1082.521 -9519.142)" fill="none" stroke="#5038a1" stroke-width="1"/>
    <path id="Trazado_192243" data-name="Trazado 192243" d="M22.053,96.747,0,0" transform="translate(-1083.233 -9421.683)" fill="none" stroke="#5038a1" stroke-width="1"/>
    <path id="Trazado_192244" data-name="Trazado 192244" d="M0,31.3,31.3,0" transform="translate(-949.495 -9561.823)" fill="none" stroke="#fdb74d" stroke-width="1"/>
    <path id="Trazado_192245" data-name="Trazado 192245" d="M29.166,18.5,0,0" transform="translate(-950.206 -9528.389)" fill="none" stroke="#fdb74d" stroke-width="1"/>
    <path id="Trazado_192246" data-name="Trazado 192246" d="M0,31.3,31.3,0" transform="translate(-949.495 -9452.035)" fill="none" stroke="#fdb74d" stroke-width="1"/>
    <path id="Trazado_192247" data-name="Trazado 192247" d="M29.166,18.5,0,0" transform="translate(-950.206 -9418.601)" fill="none" stroke="#fdb74d" stroke-width="1"/>
    <path id="Trazado_192248" data-name="Trazado 192248" d="M0,31.3,31.3,0" transform="translate(-949.495 -9340.586)" fill="none" stroke="#fdb74d" stroke-width="1"/>
    <path id="Trazado_192249" data-name="Trazado 192249" d="M29.166,18.5,0,0" transform="translate(-950.206 -9307.151)" fill="none" stroke="#fdb74d" stroke-width="1"/>
    <path id="Trazado_192250" data-name="Trazado 192250" d="M2,0H122.49a2,2,0,0,1,2,2V37.837a2,2,0,0,1-2,2H2a2,2,0,0,1-2-2V2A2,2,0,0,1,2,0Z" transform="translate(-1335 -9441.839)" fill="#fdb74d"/>
    <path id="Trazado_192251" data-name="Trazado 192251" d="M-20.19-7.82h1.037v5.538a2.294,2.294,0,0,1-.674,1.756,2.516,2.516,0,0,1-1.8.634,2.586,2.586,0,0,1-1.815-.6,2.153,2.153,0,0,1-.65-1.67h1.031a1.434,1.434,0,0,0,.368,1.047,1.425,1.425,0,0,0,1.066.376,1.383,1.383,0,0,0,1.034-.4,1.561,1.561,0,0,0,.4-1.128ZM-15.141.107a2.539,2.539,0,0,1-1.923-.776,2.881,2.881,0,0,1-.741-2.076v-.183a3.487,3.487,0,0,1,.33-1.544,2.577,2.577,0,0,1,.924-1.063,2.323,2.323,0,0,1,1.286-.384,2.177,2.177,0,0,1,1.762.747,3.232,3.232,0,0,1,.628,2.138v.414h-3.937a2.066,2.066,0,0,0,.5,1.388A1.579,1.579,0,0,0-15.087-.7,1.731,1.731,0,0,0-14.2-.918a2.24,2.24,0,0,0,.639-.569l.607.473A2.44,2.44,0,0,1-15.141.107Zm-.124-5.21a1.325,1.325,0,0,0-1.01.438,2.128,2.128,0,0,0-.5,1.227h2.911v-.075a1.893,1.893,0,0,0-.408-1.174A1.248,1.248,0,0,0-15.265-5.1Zm6.349.183A2.978,2.978,0,0,0-9.4-4.958a1.309,1.309,0,0,0-1.327.833V0h-.994V-5.812h.967l.016.671a1.547,1.547,0,0,1,1.386-.779,1.015,1.015,0,0,1,.44.075ZM-4.63,0a2.087,2.087,0,0,1-.14-.612,2.217,2.217,0,0,1-1.654.72,2.051,2.051,0,0,1-1.41-.486,1.573,1.573,0,0,1-.551-1.233,1.643,1.643,0,0,1,.69-1.41,3.254,3.254,0,0,1,1.942-.5h.967V-3.98A1.116,1.116,0,0,0-5.1-4.81a1.252,1.252,0,0,0-.918-.309,1.449,1.449,0,0,0-.892.269.791.791,0,0,0-.36.65h-1a1.371,1.371,0,0,1,.309-.841,2.108,2.108,0,0,1,.838-.642,2.819,2.819,0,0,1,1.163-.236,2.3,2.3,0,0,1,1.574.5,1.812,1.812,0,0,1,.591,1.383v2.675a3.27,3.27,0,0,0,.2,1.273V0ZM-6.279-.757A1.746,1.746,0,0,0-5.393-1a1.462,1.462,0,0,0,.607-.628V-2.82h-.779q-1.826,0-1.826,1.069a.9.9,0,0,0,.312.73A1.2,1.2,0,0,0-6.279-.757ZM.575-4.92a2.978,2.978,0,0,0-.489-.038,1.309,1.309,0,0,0-1.327.833V0h-.994V-5.812h.967l.016.671A1.547,1.547,0,0,1,.134-5.919a1.015,1.015,0,0,1,.44.075Zm.569,1.966a3.411,3.411,0,0,1,.628-2.167,2.036,2.036,0,0,1,1.687-.8,2.035,2.035,0,0,1,1.627.693l.043-.585h.913V2.234H5.049V-.537a2.085,2.085,0,0,1-1.6.645A2,2,0,0,1,1.77-.712a3.487,3.487,0,0,1-.626-2.173Zm.994.113a2.586,2.586,0,0,0,.422,1.568A1.341,1.341,0,0,0,3.7-.7a1.488,1.488,0,0,0,1.354-.784V-4.334A1.493,1.493,0,0,0,3.706-5.1a1.351,1.351,0,0,0-1.144.572A2.815,2.815,0,0,0,2.138-2.841ZM11.226-.575a2.111,2.111,0,0,1-1.7.682,1.807,1.807,0,0,1-1.415-.54,2.336,2.336,0,0,1-.491-1.6V-5.812H8.61v3.754q0,1.321,1.074,1.321A1.487,1.487,0,0,0,11.2-1.584V-5.812h.994V0h-.945ZM14.781,0h-1V-5.812h1Zm.011-8.234H16L14.556-6.655l-.8,0ZM20.007,0a2.087,2.087,0,0,1-.14-.612,2.217,2.217,0,0,1-1.654.72A2.051,2.051,0,0,1,16.8-.379a1.573,1.573,0,0,1-.551-1.233,1.643,1.643,0,0,1,.69-1.41,3.254,3.254,0,0,1,1.942-.5h.967V-3.98a1.116,1.116,0,0,0-.312-.83,1.252,1.252,0,0,0-.918-.309,1.449,1.449,0,0,0-.892.269.791.791,0,0,0-.36.65h-1a1.371,1.371,0,0,1,.309-.841,2.108,2.108,0,0,1,.838-.642,2.819,2.819,0,0,1,1.163-.236,2.3,2.3,0,0,1,1.574.5,1.812,1.812,0,0,1,.591,1.383v2.675a3.27,3.27,0,0,0,.2,1.273V0ZM18.358-.757A1.746,1.746,0,0,0,19.245-1a1.462,1.462,0,0,0,.607-.628V-2.82h-.779q-1.826,0-1.826,1.069a.9.9,0,0,0,.312.73A1.2,1.2,0,0,0,18.358-.757ZM-41.653,7.892a2.113,2.113,0,0,1,1.719-.811q1.842,0,1.858,2.079V13h-.994V9.154a1.338,1.338,0,0,0-.287-.929,1.152,1.152,0,0,0-.878-.3,1.434,1.434,0,0,0-.849.258,1.751,1.751,0,0,0-.569.677V13h-.994V4.75h.994Zm4.8,2.148A3.433,3.433,0,0,1-36.515,8.5a2.5,2.5,0,0,1,.935-1.053,2.544,2.544,0,0,1,1.367-.371,2.451,2.451,0,0,1,1.92.822,3.162,3.162,0,0,1,.733,2.186v.07a3.462,3.462,0,0,1-.325,1.523,2.467,2.467,0,0,1-.929,1.05,2.573,2.573,0,0,1-1.388.376,2.445,2.445,0,0,1-1.915-.822,3.146,3.146,0,0,1-.733-2.175Zm1,.118a2.486,2.486,0,0,0,.448,1.552,1.435,1.435,0,0,0,1.2.585A1.427,1.427,0,0,0-33,11.7a2.719,2.719,0,0,0,.446-1.662,2.482,2.482,0,0,0-.454-1.55A1.443,1.443,0,0,0-34.214,7.9a1.427,1.427,0,0,0-1.187.585A2.7,2.7,0,0,0-35.852,10.159Zm8.347-2.079a2.978,2.978,0,0,0-.489-.038,1.309,1.309,0,0,0-1.327.833V13h-.994V7.188h.967l.016.671a1.547,1.547,0,0,1,1.386-.779,1.015,1.015,0,0,1,.44.075ZM-25.513,13h-.994V7.188h.994Zm-1.074-7.353a.593.593,0,0,1,.148-.408A.555.555,0,0,1-26,5.072a.563.563,0,0,1,.44.167.587.587,0,0,1,.15.408.568.568,0,0,1-.15.4.573.573,0,0,1-.44.161.565.565,0,0,1-.438-.161A.573.573,0,0,1-26.587,5.647Zm3.6,6.542h3.4V13H-24.2v-.73L-21,8.01h-3.158V7.188h4.4v.7Zm4.168-2.148A3.433,3.433,0,0,1-18.485,8.5a2.5,2.5,0,0,1,.935-1.053,2.544,2.544,0,0,1,1.367-.371,2.451,2.451,0,0,1,1.92.822,3.162,3.162,0,0,1,.733,2.186v.07a3.462,3.462,0,0,1-.325,1.523,2.467,2.467,0,0,1-.929,1.05,2.573,2.573,0,0,1-1.388.376,2.445,2.445,0,0,1-1.915-.822,3.146,3.146,0,0,1-.733-2.175Zm1,.118a2.486,2.486,0,0,0,.448,1.552,1.435,1.435,0,0,0,1.2.585,1.427,1.427,0,0,0,1.2-.594,2.719,2.719,0,0,0,.446-1.662,2.482,2.482,0,0,0-.454-1.55A1.443,1.443,0,0,0-16.183,7.9a1.427,1.427,0,0,0-1.187.585A2.7,2.7,0,0,0-17.821,10.159Zm6.478-2.97.032.73a2.118,2.118,0,0,1,1.74-.838q1.842,0,1.858,2.079V13h-.994V9.154a1.338,1.338,0,0,0-.287-.929,1.152,1.152,0,0,0-.878-.3,1.434,1.434,0,0,0-.849.258,1.751,1.751,0,0,0-.569.677V13h-.994V7.188Zm6.478-1.407V7.188h1.085v.768H-4.866v3.609a.807.807,0,0,0,.145.524.61.61,0,0,0,.494.175,2.406,2.406,0,0,0,.473-.064V13a2.9,2.9,0,0,1-.763.107,1.237,1.237,0,0,1-1-.4,1.731,1.731,0,0,1-.338-1.144v-3.6H-6.918V7.188H-5.86V5.781ZM.967,13a2.087,2.087,0,0,1-.14-.612,2.217,2.217,0,0,1-1.654.72,2.051,2.051,0,0,1-1.41-.486,1.573,1.573,0,0,1-.551-1.233,1.643,1.643,0,0,1,.69-1.41,3.254,3.254,0,0,1,1.942-.5H.811V9.02A1.116,1.116,0,0,0,.5,8.19a1.252,1.252,0,0,0-.918-.309,1.449,1.449,0,0,0-.892.269.791.791,0,0,0-.36.65h-1a1.371,1.371,0,0,1,.309-.841,2.108,2.108,0,0,1,.838-.642A2.819,2.819,0,0,1-.36,7.081a2.3,2.3,0,0,1,1.574.5A1.812,1.812,0,0,1,1.8,8.966v2.675a3.27,3.27,0,0,0,.2,1.273V13Zm-1.649-.757A1.746,1.746,0,0,0,.2,12a1.462,1.462,0,0,0,.607-.628V10.18H.032q-1.826,0-1.826,1.069a.9.9,0,0,0,.312.73A1.2,1.2,0,0,0-.682,12.243ZM4.442,13H3.448V4.75h.994Zm6.725.107a2.539,2.539,0,0,1-1.923-.776A2.881,2.881,0,0,1,8.5,10.255v-.183a3.487,3.487,0,0,1,.33-1.544,2.577,2.577,0,0,1,.924-1.063,2.323,2.323,0,0,1,1.286-.384,2.177,2.177,0,0,1,1.762.747,3.232,3.232,0,0,1,.628,2.138v.414H9.5a2.066,2.066,0,0,0,.5,1.388,1.579,1.579,0,0,0,1.222.529,1.731,1.731,0,0,0,.892-.215,2.24,2.24,0,0,0,.639-.569l.607.473A2.44,2.44,0,0,1,11.167,13.107ZM11.043,7.9a1.325,1.325,0,0,0-1.01.438,2.128,2.128,0,0,0-.5,1.227h2.911V9.487a1.893,1.893,0,0,0-.408-1.174A1.248,1.248,0,0,0,11.043,7.9Zm5.387,3.754L17.87,7.188h1.015L16.8,13h-.757L13.938,7.188h1.015Zm5.752,1.456a2.539,2.539,0,0,1-1.923-.776,2.881,2.881,0,0,1-.741-2.076v-.183a3.487,3.487,0,0,1,.33-1.544,2.577,2.577,0,0,1,.924-1.063,2.323,2.323,0,0,1,1.286-.384,2.177,2.177,0,0,1,1.762.747,3.232,3.232,0,0,1,.628,2.138v.414H20.512a2.066,2.066,0,0,0,.5,1.388,1.579,1.579,0,0,0,1.222.529,1.731,1.731,0,0,0,.892-.215,2.24,2.24,0,0,0,.639-.569l.607.473A2.44,2.44,0,0,1,22.183,13.107ZM22.059,7.9a1.325,1.325,0,0,0-1.01.438,2.128,2.128,0,0,0-.5,1.227h2.911V9.487a1.893,1.893,0,0,0-.408-1.174A1.248,1.248,0,0,0,22.059,7.9Zm4.479-.709.032.73a2.118,2.118,0,0,1,1.74-.838q1.842,0,1.858,2.079V13h-.994V9.154a1.338,1.338,0,0,0-.287-.929,1.152,1.152,0,0,0-.878-.3,1.434,1.434,0,0,0-.849.258,1.751,1.751,0,0,0-.569.677V13H25.6V7.188Zm6.478-1.407V7.188H34.1v.768H33.016v3.609a.807.807,0,0,0,.145.524.61.61,0,0,0,.494.175,2.406,2.406,0,0,0,.473-.064V13a2.9,2.9,0,0,1-.763.107,1.237,1.237,0,0,1-1-.4,1.731,1.731,0,0,1-.338-1.144v-3.6H30.964V7.188h1.058V5.781Zm1.875,4.259A3.433,3.433,0,0,1,35.226,8.5a2.5,2.5,0,0,1,.935-1.053,2.544,2.544,0,0,1,1.367-.371,2.451,2.451,0,0,1,1.92.822,3.162,3.162,0,0,1,.733,2.186v.07a3.463,3.463,0,0,1-.325,1.523,2.467,2.467,0,0,1-.929,1.05,2.573,2.573,0,0,1-1.388.376,2.445,2.445,0,0,1-1.915-.822,3.146,3.146,0,0,1-.733-2.175Zm1,.118a2.486,2.486,0,0,0,.448,1.552,1.52,1.52,0,0,0,2.4-.008,2.719,2.719,0,0,0,.446-1.662,2.482,2.482,0,0,0-.454-1.55A1.443,1.443,0,0,0,37.528,7.9a1.427,1.427,0,0,0-1.187.585A2.7,2.7,0,0,0,35.89,10.159Z" transform="translate(-1275.231 -9427.215)" fill="#fff"/>
    <path id="Trazado_192252" data-name="Trazado 192252" d="M2,0H122.49a2,2,0,0,1,2,2V37.837a2,2,0,0,1-2,2H2a2,2,0,0,1-2-2V2A2,2,0,0,1,2,0Z" transform="translate(-1204.581 -9441.839)" fill="#5038a1"/>
    <path id="Trazado_192253" data-name="Trazado 192253" d="M-41.263-2.481a2.877,2.877,0,0,1-.916,1.915,3,3,0,0,1-2.049.674,2.756,2.756,0,0,1-2.221-.994,4,4,0,0,1-.835-2.659V-4.3A4.456,4.456,0,0,1-46.9-6.214a2.909,2.909,0,0,1,1.1-1.27,3.073,3.073,0,0,1,1.654-.443,2.826,2.826,0,0,1,2,.7,2.912,2.912,0,0,1,.875,1.926H-42.3a2.247,2.247,0,0,0-.583-1.358,1.763,1.763,0,0,0-1.254-.42,1.845,1.845,0,0,0-1.55.731,3.356,3.356,0,0,0-.561,2.08v.758a3.45,3.45,0,0,0,.532,2.027,1.718,1.718,0,0,0,1.488.753,1.984,1.984,0,0,0,1.319-.389,2.161,2.161,0,0,0,.61-1.356Zm.988-.478A3.433,3.433,0,0,1-39.939-4.5,2.5,2.5,0,0,1-39-5.548a2.544,2.544,0,0,1,1.367-.371,2.451,2.451,0,0,1,1.92.822,3.162,3.162,0,0,1,.733,2.186v.07a3.463,3.463,0,0,1-.325,1.523,2.467,2.467,0,0,1-.929,1.05,2.573,2.573,0,0,1-1.388.376,2.445,2.445,0,0,1-1.915-.822,3.146,3.146,0,0,1-.733-2.175Zm1,.118a2.486,2.486,0,0,0,.448,1.552,1.435,1.435,0,0,0,1.2.585,1.427,1.427,0,0,0,1.2-.594,2.719,2.719,0,0,0,.446-1.662,2.482,2.482,0,0,0-.454-1.55A1.443,1.443,0,0,0-37.638-5.1a1.427,1.427,0,0,0-1.187.585A2.7,2.7,0,0,0-39.276-2.841ZM-34-2.959A3.433,3.433,0,0,1-33.666-4.5a2.5,2.5,0,0,1,.935-1.053,2.544,2.544,0,0,1,1.367-.371,2.451,2.451,0,0,1,1.92.822,3.162,3.162,0,0,1,.733,2.186v.07a3.462,3.462,0,0,1-.325,1.523,2.467,2.467,0,0,1-.929,1.05,2.573,2.573,0,0,1-1.388.376,2.445,2.445,0,0,1-1.915-.822A3.146,3.146,0,0,1-34-2.89Zm1,.118a2.486,2.486,0,0,0,.448,1.552,1.435,1.435,0,0,0,1.2.585,1.427,1.427,0,0,0,1.2-.594A2.719,2.719,0,0,0-29.7-2.959a2.482,2.482,0,0,0-.454-1.55A1.443,1.443,0,0,0-31.365-5.1a1.427,1.427,0,0,0-1.187.585A2.7,2.7,0,0,0-33-2.841Zm8.347-2.079a2.978,2.978,0,0,0-.489-.038,1.309,1.309,0,0,0-1.327.833V0h-.994V-5.812h.967l.016.671A1.547,1.547,0,0,1-25.1-5.919a1.015,1.015,0,0,1,.44.075Zm.569,1.966a3.4,3.4,0,0,1,.634-2.151,2,2,0,0,1,1.66-.814,2.016,2.016,0,0,1,1.617.7V-8.25h.994V0H-20.1l-.048-.623a2.024,2.024,0,0,1-1.66.73A1.985,1.985,0,0,1-23.45-.72a3.443,3.443,0,0,1-.636-2.159Zm.994.113a2.578,2.578,0,0,0,.408,1.547,1.32,1.32,0,0,0,1.128.559,1.45,1.45,0,0,0,1.38-.849V-4.254a1.461,1.461,0,0,0-1.37-.822,1.326,1.326,0,0,0-1.139.564A2.838,2.838,0,0,0-23.093-2.841ZM-16.562,0h-.994V-5.812h.994Zm-1.074-7.353a.593.593,0,0,1,.148-.408.555.555,0,0,1,.438-.167.563.563,0,0,1,.44.167.587.587,0,0,1,.15.408.568.568,0,0,1-.15.4.573.573,0,0,1-.44.161.565.565,0,0,1-.438-.161A.573.573,0,0,1-17.636-7.353Zm3.6,1.542.032.73a2.118,2.118,0,0,1,1.74-.838q1.842,0,1.858,2.079V0h-.994V-3.846a1.338,1.338,0,0,0-.287-.929,1.152,1.152,0,0,0-.878-.3,1.434,1.434,0,0,0-.849.258,1.751,1.751,0,0,0-.569.677V0h-.994V-5.812ZM-5.315,0a2.087,2.087,0,0,1-.14-.612,2.217,2.217,0,0,1-1.654.72,2.051,2.051,0,0,1-1.41-.486,1.573,1.573,0,0,1-.551-1.233,1.643,1.643,0,0,1,.69-1.41,3.254,3.254,0,0,1,1.942-.5h.967V-3.98a1.116,1.116,0,0,0-.312-.83A1.252,1.252,0,0,0-6.7-5.119a1.449,1.449,0,0,0-.892.269.791.791,0,0,0-.36.65h-1a1.371,1.371,0,0,1,.309-.841A2.108,2.108,0,0,1-7.8-5.683a2.819,2.819,0,0,1,1.163-.236,2.3,2.3,0,0,1,1.574.5,1.812,1.812,0,0,1,.591,1.383v2.675a3.27,3.27,0,0,0,.2,1.273V0ZM-6.964-.757A1.746,1.746,0,0,0-6.077-1a1.462,1.462,0,0,0,.607-.628V-2.82h-.779q-1.826,0-1.826,1.069a.9.9,0,0,0,.312.73A1.2,1.2,0,0,0-6.964-.757Zm3.8-2.2a3.4,3.4,0,0,1,.634-2.151,2,2,0,0,1,1.66-.814,2.016,2.016,0,0,1,1.617.7V-8.25h.994V0H.83L.781-.623a2.024,2.024,0,0,1-1.66.73A1.985,1.985,0,0,1-2.524-.72a3.443,3.443,0,0,1-.636-2.159Zm.994.113a2.578,2.578,0,0,0,.408,1.547A1.32,1.32,0,0,0-.631-.736a1.45,1.45,0,0,0,1.38-.849V-4.254A1.461,1.461,0,0,0-.62-5.076a1.326,1.326,0,0,0-1.139.564A2.838,2.838,0,0,0-2.167-2.841Zm5.188-.118A3.433,3.433,0,0,1,3.357-4.5a2.5,2.5,0,0,1,.935-1.053,2.544,2.544,0,0,1,1.367-.371,2.451,2.451,0,0,1,1.92.822,3.162,3.162,0,0,1,.733,2.186v.07a3.462,3.462,0,0,1-.325,1.523,2.467,2.467,0,0,1-.929,1.05A2.573,2.573,0,0,1,5.669.107,2.445,2.445,0,0,1,3.754-.714,3.146,3.146,0,0,1,3.021-2.89Zm1,.118a2.486,2.486,0,0,0,.448,1.552,1.435,1.435,0,0,0,1.2.585,1.427,1.427,0,0,0,1.2-.594,2.719,2.719,0,0,0,.446-1.662,2.482,2.482,0,0,0-.454-1.55A1.443,1.443,0,0,0,5.658-5.1a1.427,1.427,0,0,0-1.187.585A2.7,2.7,0,0,0,4.02-2.841ZM12.367-4.92a2.978,2.978,0,0,0-.489-.038,1.309,1.309,0,0,0-1.327.833V0H9.558V-5.812h.967l.016.671a1.547,1.547,0,0,1,1.386-.779,1.015,1.015,0,0,1,.44.075ZM18.415.107a2.539,2.539,0,0,1-1.923-.776,2.881,2.881,0,0,1-.741-2.076v-.183a3.487,3.487,0,0,1,.33-1.544A2.577,2.577,0,0,1,17-5.535a2.323,2.323,0,0,1,1.286-.384,2.177,2.177,0,0,1,1.762.747,3.232,3.232,0,0,1,.628,2.138v.414H16.744a2.066,2.066,0,0,0,.5,1.388A1.579,1.579,0,0,0,18.469-.7a1.731,1.731,0,0,0,.892-.215A2.24,2.24,0,0,0,20-1.488l.607.473A2.44,2.44,0,0,1,18.415.107ZM18.291-5.1a1.325,1.325,0,0,0-1.01.438,2.128,2.128,0,0,0-.5,1.227h2.911v-.075a1.893,1.893,0,0,0-.408-1.174A1.248,1.248,0,0,0,18.291-5.1Zm5.387,3.754,1.439-4.463h1.015L24.049,0h-.757L21.186-5.812H22.2ZM29.431.107a2.539,2.539,0,0,1-1.923-.776,2.881,2.881,0,0,1-.741-2.076v-.183a3.487,3.487,0,0,1,.33-1.544,2.577,2.577,0,0,1,.924-1.063,2.323,2.323,0,0,1,1.286-.384,2.177,2.177,0,0,1,1.762.747A3.232,3.232,0,0,1,31.7-3.035v.414H27.76a2.066,2.066,0,0,0,.5,1.388A1.579,1.579,0,0,0,29.485-.7a1.731,1.731,0,0,0,.892-.215,2.24,2.24,0,0,0,.639-.569l.607.473A2.44,2.44,0,0,1,29.431.107ZM29.307-5.1a1.325,1.325,0,0,0-1.01.438,2.128,2.128,0,0,0-.5,1.227H30.7v-.075A1.893,1.893,0,0,0,30.3-4.686,1.248,1.248,0,0,0,29.307-5.1Zm4.479-.709.032.73a2.118,2.118,0,0,1,1.74-.838q1.842,0,1.858,2.079V0h-.994V-3.846a1.338,1.338,0,0,0-.287-.929,1.152,1.152,0,0,0-.878-.3,1.434,1.434,0,0,0-.849.258,1.751,1.751,0,0,0-.569.677V0h-.994V-5.812Zm6.478-1.407v1.407h1.085v.768H40.264v3.609a.807.807,0,0,0,.145.524.61.61,0,0,0,.494.175A2.406,2.406,0,0,0,41.376-.8V0a2.9,2.9,0,0,1-.763.107,1.237,1.237,0,0,1-1-.4,1.731,1.731,0,0,1-.338-1.144v-3.6H38.213v-.768h1.058V-7.219Zm1.875,4.259A3.433,3.433,0,0,1,42.475-4.5a2.5,2.5,0,0,1,.935-1.053,2.544,2.544,0,0,1,1.367-.371A2.451,2.451,0,0,1,46.7-5.1a3.162,3.162,0,0,1,.733,2.186v.07A3.463,3.463,0,0,1,47.1-1.319a2.467,2.467,0,0,1-.929,1.05,2.573,2.573,0,0,1-1.388.376,2.445,2.445,0,0,1-1.915-.822,3.146,3.146,0,0,1-.733-2.175Zm1,.118a2.486,2.486,0,0,0,.448,1.552,1.435,1.435,0,0,0,1.2.585,1.427,1.427,0,0,0,1.2-.594,2.719,2.719,0,0,0,.446-1.662,2.482,2.482,0,0,0-.454-1.55A1.443,1.443,0,0,0,44.776-5.1a1.427,1.427,0,0,0-1.187.585A2.7,2.7,0,0,0,43.138-2.841Z" transform="translate(-1145.792 -9420.575)" fill="#fff"/>
    <path id="Trazado_192254" data-name="Trazado 192254" d="M2,0H122.49a2,2,0,0,1,2,2V37.837a2,2,0,0,1-2,2H2a2,2,0,0,1-2-2V2A2,2,0,0,1,2,0Z" transform="translate(-1064.678 -9441.839)" fill="#8c6df2"/>
    <path id="Trazado_192255" data-name="Trazado 192255" d="M-15.372-2.481a2.877,2.877,0,0,1-.916,1.915,3,3,0,0,1-2.049.674,2.756,2.756,0,0,1-2.221-.994,4,4,0,0,1-.835-2.659V-4.3A4.456,4.456,0,0,1-21-6.214a2.909,2.909,0,0,1,1.1-1.27,3.073,3.073,0,0,1,1.654-.443,2.826,2.826,0,0,1,2,.7,2.912,2.912,0,0,1,.875,1.926h-1.037a2.247,2.247,0,0,0-.583-1.358,1.763,1.763,0,0,0-1.254-.42,1.845,1.845,0,0,0-1.55.731,3.356,3.356,0,0,0-.561,2.08v.758a3.45,3.45,0,0,0,.532,2.027,1.718,1.718,0,0,0,1.488.753,1.984,1.984,0,0,0,1.319-.389,2.161,2.161,0,0,0,.61-1.356Zm.988-.478A3.433,3.433,0,0,1-14.048-4.5a2.5,2.5,0,0,1,.935-1.053,2.544,2.544,0,0,1,1.367-.371,2.451,2.451,0,0,1,1.92.822,3.162,3.162,0,0,1,.733,2.186v.07a3.462,3.462,0,0,1-.325,1.523,2.467,2.467,0,0,1-.929,1.05,2.573,2.573,0,0,1-1.388.376,2.445,2.445,0,0,1-1.915-.822,3.146,3.146,0,0,1-.733-2.175Zm1,.118a2.486,2.486,0,0,0,.448,1.552,1.435,1.435,0,0,0,1.2.585,1.427,1.427,0,0,0,1.2-.594,2.719,2.719,0,0,0,.446-1.662,2.482,2.482,0,0,0-.454-1.55A1.443,1.443,0,0,0-11.747-5.1a1.427,1.427,0,0,0-1.187.585A2.7,2.7,0,0,0-13.385-2.841Zm6.472-2.97.027.645a2.146,2.146,0,0,1,1.724-.752,1.662,1.662,0,0,1,1.66.935,2.2,2.2,0,0,1,.755-.677,2.229,2.229,0,0,1,1.1-.258Q.263-5.919.3-3.894V0H-.7V-3.835a1.334,1.334,0,0,0-.285-.932,1.254,1.254,0,0,0-.956-.309,1.318,1.318,0,0,0-.918.33,1.34,1.34,0,0,0-.424.889V0h-1V-3.808A1.109,1.109,0,0,0-5.521-5.076a1.329,1.329,0,0,0-1.337.833V0h-.994V-5.812ZM2.874,0H1.88V-5.812h.994ZM1.8-7.353a.593.593,0,0,1,.148-.408.555.555,0,0,1,.438-.167.563.563,0,0,1,.44.167.587.587,0,0,1,.15.408.568.568,0,0,1-.15.4.573.573,0,0,1-.44.161.565.565,0,0,1-.438-.161A.573.573,0,0,1,1.8-7.353Zm4.012.134v1.407H6.9v.768H5.812v3.609a.807.807,0,0,0,.145.524.61.61,0,0,0,.494.175A2.406,2.406,0,0,0,6.923-.8V0a2.9,2.9,0,0,1-.763.107,1.237,1.237,0,0,1-1-.4,1.731,1.731,0,0,1-.338-1.144v-3.6H3.76v-.768H4.818V-7.219ZM10.468.107A2.539,2.539,0,0,1,8.545-.669,2.881,2.881,0,0,1,7.8-2.745v-.183a3.487,3.487,0,0,1,.33-1.544,2.577,2.577,0,0,1,.924-1.063,2.323,2.323,0,0,1,1.286-.384,2.177,2.177,0,0,1,1.762.747,3.232,3.232,0,0,1,.628,2.138v.414H8.8a2.066,2.066,0,0,0,.5,1.388A1.579,1.579,0,0,0,10.522-.7a1.731,1.731,0,0,0,.892-.215,2.24,2.24,0,0,0,.639-.569l.607.473A2.44,2.44,0,0,1,10.468.107ZM10.345-5.1a1.325,1.325,0,0,0-1.01.438,2.128,2.128,0,0,0-.5,1.227h2.911v-.075a1.893,1.893,0,0,0-.408-1.174A1.248,1.248,0,0,0,10.345-5.1Zm.483-3.137h1.2L10.592-6.66l-.8,0ZM21.629,0H16.505V-.714l2.707-3.008a6.431,6.431,0,0,0,.83-1.109,1.851,1.851,0,0,0,.228-.884,1.4,1.4,0,0,0-.371-1,1.3,1.3,0,0,0-.988-.392,1.535,1.535,0,0,0-1.152.422,1.611,1.611,0,0,0-.411,1.174h-.994a2.307,2.307,0,0,1,.7-1.746,2.579,2.579,0,0,1,1.861-.666,2.478,2.478,0,0,1,1.724.572,1.951,1.951,0,0,1,.634,1.523A4.474,4.474,0,0,1,19.8-3.083L17.7-.811h3.926Z" transform="translate(-1003.671 -9420.575)"/>
    <path id="Trazado_192256" data-name="Trazado 192256" d="M2,0H122.49a2,2,0,0,1,2,2V37.837a2,2,0,0,1-2,2H2a2,2,0,0,1-2-2V2A2,2,0,0,1,2,0Z" transform="translate(-1064.678 -9548.545)" fill="#8c6df2"/>
    <path id="Trazado_192257" data-name="Trazado 192257" d="M-15.372-2.481a2.877,2.877,0,0,1-.916,1.915,3,3,0,0,1-2.049.674,2.756,2.756,0,0,1-2.221-.994,4,4,0,0,1-.835-2.659V-4.3A4.456,4.456,0,0,1-21-6.214a2.909,2.909,0,0,1,1.1-1.27,3.073,3.073,0,0,1,1.654-.443,2.826,2.826,0,0,1,2,.7,2.912,2.912,0,0,1,.875,1.926h-1.037a2.247,2.247,0,0,0-.583-1.358,1.763,1.763,0,0,0-1.254-.42,1.845,1.845,0,0,0-1.55.731,3.356,3.356,0,0,0-.561,2.08v.758a3.45,3.45,0,0,0,.532,2.027,1.718,1.718,0,0,0,1.488.753,1.984,1.984,0,0,0,1.319-.389,2.161,2.161,0,0,0,.61-1.356Zm.988-.478A3.433,3.433,0,0,1-14.048-4.5a2.5,2.5,0,0,1,.935-1.053,2.544,2.544,0,0,1,1.367-.371,2.451,2.451,0,0,1,1.92.822,3.162,3.162,0,0,1,.733,2.186v.07a3.462,3.462,0,0,1-.325,1.523,2.467,2.467,0,0,1-.929,1.05,2.573,2.573,0,0,1-1.388.376,2.445,2.445,0,0,1-1.915-.822,3.146,3.146,0,0,1-.733-2.175Zm1,.118a2.486,2.486,0,0,0,.448,1.552,1.435,1.435,0,0,0,1.2.585,1.427,1.427,0,0,0,1.2-.594,2.719,2.719,0,0,0,.446-1.662,2.482,2.482,0,0,0-.454-1.55A1.443,1.443,0,0,0-11.747-5.1a1.427,1.427,0,0,0-1.187.585A2.7,2.7,0,0,0-13.385-2.841Zm6.472-2.97.027.645a2.146,2.146,0,0,1,1.724-.752,1.662,1.662,0,0,1,1.66.935,2.2,2.2,0,0,1,.755-.677,2.229,2.229,0,0,1,1.1-.258Q.263-5.919.3-3.894V0H-.7V-3.835a1.334,1.334,0,0,0-.285-.932,1.254,1.254,0,0,0-.956-.309,1.318,1.318,0,0,0-.918.33,1.34,1.34,0,0,0-.424.889V0h-1V-3.808A1.109,1.109,0,0,0-5.521-5.076a1.329,1.329,0,0,0-1.337.833V0h-.994V-5.812ZM2.874,0H1.88V-5.812h.994ZM1.8-7.353a.593.593,0,0,1,.148-.408.555.555,0,0,1,.438-.167.563.563,0,0,1,.44.167.587.587,0,0,1,.15.408.568.568,0,0,1-.15.4.573.573,0,0,1-.44.161.565.565,0,0,1-.438-.161A.573.573,0,0,1,1.8-7.353Zm4.012.134v1.407H6.9v.768H5.812v3.609a.807.807,0,0,0,.145.524.61.61,0,0,0,.494.175A2.406,2.406,0,0,0,6.923-.8V0a2.9,2.9,0,0,1-.763.107,1.237,1.237,0,0,1-1-.4,1.731,1.731,0,0,1-.338-1.144v-3.6H3.76v-.768H4.818V-7.219ZM10.468.107A2.539,2.539,0,0,1,8.545-.669,2.881,2.881,0,0,1,7.8-2.745v-.183a3.487,3.487,0,0,1,.33-1.544,2.577,2.577,0,0,1,.924-1.063,2.323,2.323,0,0,1,1.286-.384,2.177,2.177,0,0,1,1.762.747,3.232,3.232,0,0,1,.628,2.138v.414H8.8a2.066,2.066,0,0,0,.5,1.388A1.579,1.579,0,0,0,10.522-.7a1.731,1.731,0,0,0,.892-.215,2.24,2.24,0,0,0,.639-.569l.607.473A2.44,2.44,0,0,1,10.468.107ZM10.345-5.1a1.325,1.325,0,0,0-1.01.438,2.128,2.128,0,0,0-.5,1.227h2.911v-.075a1.893,1.893,0,0,0-.408-1.174A1.248,1.248,0,0,0,10.345-5.1Zm.483-3.137h1.2L10.592-6.66l-.8,0ZM19.771,0h-1V-6.623l-2,.736v-.9l2.847-1.069h.156Z" transform="translate(-1003.671 -9527.281)"/>
    <path id="Trazado_192258" data-name="Trazado 192258" d="M2,0H122.49a2,2,0,0,1,2,2V37.837a2,2,0,0,1-2,2H2a2,2,0,0,1-2-2V2A2,2,0,0,1,2,0Z" transform="translate(-928.094 -9527.915)" fill="#fedc72"/>
    <path id="Trazado_192259" data-name="Trazado 192259" d="M-27.253,0h-1.031V-7.82h1.031Zm2.669-5.812.032.73a2.118,2.118,0,0,1,1.74-.838q1.842,0,1.858,2.079V0h-.994V-3.846a1.338,1.338,0,0,0-.287-.929,1.152,1.152,0,0,0-.878-.3,1.434,1.434,0,0,0-.849.258,1.751,1.751,0,0,0-.569.677V0h-.994V-5.812Zm6.478-1.407v1.407h1.085v.768h-1.085v3.609a.807.807,0,0,0,.145.524.61.61,0,0,0,.494.175A2.406,2.406,0,0,0-16.994-.8V0a2.9,2.9,0,0,1-.763.107,1.237,1.237,0,0,1-1-.4A1.731,1.731,0,0,1-19.1-1.439v-3.6h-1.058v-.768H-19.1V-7.219ZM-13.449.107a2.539,2.539,0,0,1-1.923-.776,2.881,2.881,0,0,1-.741-2.076v-.183a3.487,3.487,0,0,1,.33-1.544,2.577,2.577,0,0,1,.924-1.063,2.323,2.323,0,0,1,1.286-.384,2.177,2.177,0,0,1,1.762.747,3.232,3.232,0,0,1,.628,2.138v.414H-15.12a2.066,2.066,0,0,0,.5,1.388A1.579,1.579,0,0,0-13.4-.7,1.731,1.731,0,0,0-12.5-.918a2.24,2.24,0,0,0,.639-.569l.607.473A2.44,2.44,0,0,1-13.449.107Zm-.124-5.21a1.325,1.325,0,0,0-1.01.438,2.128,2.128,0,0,0-.5,1.227h2.911v-.075a1.893,1.893,0,0,0-.408-1.174A1.248,1.248,0,0,0-13.573-5.1Zm3.3,2.148a3.416,3.416,0,0,1,.628-2.162,2.01,2.01,0,0,1,1.665-.8,2,2,0,0,1,1.66.752l.048-.645h.908V-.14a2.364,2.364,0,0,1-.669,1.778,2.468,2.468,0,0,1-1.8.65,2.989,2.989,0,0,1-1.23-.269,2.117,2.117,0,0,1-.918-.736l.516-.6a1.943,1.943,0,0,0,1.563.79,1.522,1.522,0,0,0,1.131-.408A1.56,1.56,0,0,0-6.359-.081v-.5A2.042,2.042,0,0,1-7.987.107,1.985,1.985,0,0,1-9.638-.714,3.591,3.591,0,0,1-10.27-2.954Zm1,.113a2.606,2.606,0,0,0,.4,1.544A1.309,1.309,0,0,0-7.74-.736a1.456,1.456,0,0,0,1.38-.854V-4.243a1.473,1.473,0,0,0-1.37-.833,1.321,1.321,0,0,0-1.133.564A2.838,2.838,0,0,0-9.271-2.841ZM-1.053-4.92a2.978,2.978,0,0,0-.489-.038,1.309,1.309,0,0,0-1.327.833V0h-.994V-5.812H-2.9l.016.671a1.547,1.547,0,0,1,1.386-.779,1.015,1.015,0,0,1,.44.075ZM3.233,0a2.087,2.087,0,0,1-.14-.612,2.217,2.217,0,0,1-1.654.72A2.051,2.051,0,0,1,.03-.379,1.573,1.573,0,0,1-.521-1.611a1.643,1.643,0,0,1,.69-1.41,3.254,3.254,0,0,1,1.942-.5h.967V-3.98a1.116,1.116,0,0,0-.312-.83,1.252,1.252,0,0,0-.918-.309,1.449,1.449,0,0,0-.892.269A.791.791,0,0,0,.6-4.2h-1a1.371,1.371,0,0,1,.309-.841,2.108,2.108,0,0,1,.838-.642,2.819,2.819,0,0,1,1.163-.236,2.3,2.3,0,0,1,1.574.5,1.812,1.812,0,0,1,.591,1.383v2.675a3.27,3.27,0,0,0,.2,1.273V0ZM1.584-.757A1.746,1.746,0,0,0,2.471-1a1.462,1.462,0,0,0,.607-.628V-2.82H2.3Q.473-2.82.473-1.751a.9.9,0,0,0,.312.73A1.2,1.2,0,0,0,1.584-.757ZM6.569-5.812l.032.73a2.118,2.118,0,0,1,1.74-.838q1.842,0,1.858,2.079V0H9.206V-3.846a1.338,1.338,0,0,0-.287-.929,1.152,1.152,0,0,0-.878-.3,1.434,1.434,0,0,0-.849.258,1.751,1.751,0,0,0-.569.677V0H5.629V-5.812Zm6.478-1.407v1.407h1.085v.768H13.046v3.609a.807.807,0,0,0,.145.524.61.61,0,0,0,.494.175A2.406,2.406,0,0,0,14.158-.8V0A2.9,2.9,0,0,1,13.4.107a1.237,1.237,0,0,1-1-.4,1.731,1.731,0,0,1-.338-1.144v-3.6H10.995v-.768h1.058V-7.219ZM17.7.107A2.539,2.539,0,0,1,15.78-.669a2.881,2.881,0,0,1-.741-2.076v-.183a3.487,3.487,0,0,1,.33-1.544,2.577,2.577,0,0,1,.924-1.063,2.323,2.323,0,0,1,1.286-.384,2.177,2.177,0,0,1,1.762.747,3.232,3.232,0,0,1,.628,2.138v.414H16.033a2.066,2.066,0,0,0,.5,1.388A1.579,1.579,0,0,0,17.757-.7a1.731,1.731,0,0,0,.892-.215,2.24,2.24,0,0,0,.639-.569l.607.473A2.44,2.44,0,0,1,17.7.107ZM17.58-5.1a1.325,1.325,0,0,0-1.01.438,2.128,2.128,0,0,0-.5,1.227h2.911v-.075a1.893,1.893,0,0,0-.408-1.174A1.248,1.248,0,0,0,17.58-5.1ZM28.864,0H23.74V-.714l2.707-3.008a6.431,6.431,0,0,0,.83-1.109,1.851,1.851,0,0,0,.228-.884,1.4,1.4,0,0,0-.371-1,1.3,1.3,0,0,0-.988-.392,1.535,1.535,0,0,0-1.152.422,1.611,1.611,0,0,0-.411,1.174H23.59a2.307,2.307,0,0,1,.7-1.746,2.579,2.579,0,0,1,1.861-.666,2.478,2.478,0,0,1,1.724.572A1.951,1.951,0,0,1,28.5-5.833a4.474,4.474,0,0,1-1.472,2.75L24.938-.811h3.926Z" transform="translate(-867.387 -9506.652)"/>
    <path id="Trazado_192260" data-name="Trazado 192260" d="M2,0H122.49a2,2,0,0,1,2,2V37.837a2,2,0,0,1-2,2H2a2,2,0,0,1-2-2V2A2,2,0,0,1,2,0Z" transform="translate(-928.094 -9577)" fill="#fedc72"/>
    <path id="Trazado_192261" data-name="Trazado 192261" d="M-27.253,0h-1.031V-7.82h1.031Zm2.669-5.812.032.73a2.118,2.118,0,0,1,1.74-.838q1.842,0,1.858,2.079V0h-.994V-3.846a1.338,1.338,0,0,0-.287-.929,1.152,1.152,0,0,0-.878-.3,1.434,1.434,0,0,0-.849.258,1.751,1.751,0,0,0-.569.677V0h-.994V-5.812Zm6.478-1.407v1.407h1.085v.768h-1.085v3.609a.807.807,0,0,0,.145.524.61.61,0,0,0,.494.175A2.406,2.406,0,0,0-16.994-.8V0a2.9,2.9,0,0,1-.763.107,1.237,1.237,0,0,1-1-.4A1.731,1.731,0,0,1-19.1-1.439v-3.6h-1.058v-.768H-19.1V-7.219ZM-13.449.107a2.539,2.539,0,0,1-1.923-.776,2.881,2.881,0,0,1-.741-2.076v-.183a3.487,3.487,0,0,1,.33-1.544,2.577,2.577,0,0,1,.924-1.063,2.323,2.323,0,0,1,1.286-.384,2.177,2.177,0,0,1,1.762.747,3.232,3.232,0,0,1,.628,2.138v.414H-15.12a2.066,2.066,0,0,0,.5,1.388A1.579,1.579,0,0,0-13.4-.7,1.731,1.731,0,0,0-12.5-.918a2.24,2.24,0,0,0,.639-.569l.607.473A2.44,2.44,0,0,1-13.449.107Zm-.124-5.21a1.325,1.325,0,0,0-1.01.438,2.128,2.128,0,0,0-.5,1.227h2.911v-.075a1.893,1.893,0,0,0-.408-1.174A1.248,1.248,0,0,0-13.573-5.1Zm3.3,2.148a3.416,3.416,0,0,1,.628-2.162,2.01,2.01,0,0,1,1.665-.8,2,2,0,0,1,1.66.752l.048-.645h.908V-.14a2.364,2.364,0,0,1-.669,1.778,2.468,2.468,0,0,1-1.8.65,2.989,2.989,0,0,1-1.23-.269,2.117,2.117,0,0,1-.918-.736l.516-.6a1.943,1.943,0,0,0,1.563.79,1.522,1.522,0,0,0,1.131-.408A1.56,1.56,0,0,0-6.359-.081v-.5A2.042,2.042,0,0,1-7.987.107,1.985,1.985,0,0,1-9.638-.714,3.591,3.591,0,0,1-10.27-2.954Zm1,.113a2.606,2.606,0,0,0,.4,1.544A1.309,1.309,0,0,0-7.74-.736a1.456,1.456,0,0,0,1.38-.854V-4.243a1.473,1.473,0,0,0-1.37-.833,1.321,1.321,0,0,0-1.133.564A2.838,2.838,0,0,0-9.271-2.841ZM-1.053-4.92a2.978,2.978,0,0,0-.489-.038,1.309,1.309,0,0,0-1.327.833V0h-.994V-5.812H-2.9l.016.671a1.547,1.547,0,0,1,1.386-.779,1.015,1.015,0,0,1,.44.075ZM3.233,0a2.087,2.087,0,0,1-.14-.612,2.217,2.217,0,0,1-1.654.72A2.051,2.051,0,0,1,.03-.379,1.573,1.573,0,0,1-.521-1.611a1.643,1.643,0,0,1,.69-1.41,3.254,3.254,0,0,1,1.942-.5h.967V-3.98a1.116,1.116,0,0,0-.312-.83,1.252,1.252,0,0,0-.918-.309,1.449,1.449,0,0,0-.892.269A.791.791,0,0,0,.6-4.2h-1a1.371,1.371,0,0,1,.309-.841,2.108,2.108,0,0,1,.838-.642,2.819,2.819,0,0,1,1.163-.236,2.3,2.3,0,0,1,1.574.5,1.812,1.812,0,0,1,.591,1.383v2.675a3.27,3.27,0,0,0,.2,1.273V0ZM1.584-.757A1.746,1.746,0,0,0,2.471-1a1.462,1.462,0,0,0,.607-.628V-2.82H2.3Q.473-2.82.473-1.751a.9.9,0,0,0,.312.73A1.2,1.2,0,0,0,1.584-.757ZM6.569-5.812l.032.73a2.118,2.118,0,0,1,1.74-.838q1.842,0,1.858,2.079V0H9.206V-3.846a1.338,1.338,0,0,0-.287-.929,1.152,1.152,0,0,0-.878-.3,1.434,1.434,0,0,0-.849.258,1.751,1.751,0,0,0-.569.677V0H5.629V-5.812Zm6.478-1.407v1.407h1.085v.768H13.046v3.609a.807.807,0,0,0,.145.524.61.61,0,0,0,.494.175A2.406,2.406,0,0,0,14.158-.8V0A2.9,2.9,0,0,1,13.4.107a1.237,1.237,0,0,1-1-.4,1.731,1.731,0,0,1-.338-1.144v-3.6H10.995v-.768h1.058V-7.219ZM17.7.107A2.539,2.539,0,0,1,15.78-.669a2.881,2.881,0,0,1-.741-2.076v-.183a3.487,3.487,0,0,1,.33-1.544,2.577,2.577,0,0,1,.924-1.063,2.323,2.323,0,0,1,1.286-.384,2.177,2.177,0,0,1,1.762.747,3.232,3.232,0,0,1,.628,2.138v.414H16.033a2.066,2.066,0,0,0,.5,1.388A1.579,1.579,0,0,0,17.757-.7a1.731,1.731,0,0,0,.892-.215,2.24,2.24,0,0,0,.639-.569l.607.473A2.44,2.44,0,0,1,17.7.107ZM17.58-5.1a1.325,1.325,0,0,0-1.01.438,2.128,2.128,0,0,0-.5,1.227h2.911v-.075a1.893,1.893,0,0,0-.408-1.174A1.248,1.248,0,0,0,17.58-5.1ZM27.006,0h-1V-6.623l-2,.736v-.9L26.85-7.858h.156Z" transform="translate(-867.387 -9555.263)"/>
    <path id="Trazado_192262" data-name="Trazado 192262" d="M2,0H122.49a2,2,0,0,1,2,2V37.837a2,2,0,0,1-2,2H2a2,2,0,0,1-2-2V2A2,2,0,0,1,2,0Z" transform="translate(-928.094 -9414.095)" fill="#fedc72"/>
    <path id="Trazado_192263" data-name="Trazado 192263" d="M-27.253,0h-1.031V-7.82h1.031Zm2.669-5.812.032.73a2.118,2.118,0,0,1,1.74-.838q1.842,0,1.858,2.079V0h-.994V-3.846a1.338,1.338,0,0,0-.287-.929,1.152,1.152,0,0,0-.878-.3,1.434,1.434,0,0,0-.849.258,1.751,1.751,0,0,0-.569.677V0h-.994V-5.812Zm6.478-1.407v1.407h1.085v.768h-1.085v3.609a.807.807,0,0,0,.145.524.61.61,0,0,0,.494.175A2.406,2.406,0,0,0-16.994-.8V0a2.9,2.9,0,0,1-.763.107,1.237,1.237,0,0,1-1-.4A1.731,1.731,0,0,1-19.1-1.439v-3.6h-1.058v-.768H-19.1V-7.219ZM-13.449.107a2.539,2.539,0,0,1-1.923-.776,2.881,2.881,0,0,1-.741-2.076v-.183a3.487,3.487,0,0,1,.33-1.544,2.577,2.577,0,0,1,.924-1.063,2.323,2.323,0,0,1,1.286-.384,2.177,2.177,0,0,1,1.762.747,3.232,3.232,0,0,1,.628,2.138v.414H-15.12a2.066,2.066,0,0,0,.5,1.388A1.579,1.579,0,0,0-13.4-.7,1.731,1.731,0,0,0-12.5-.918a2.24,2.24,0,0,0,.639-.569l.607.473A2.44,2.44,0,0,1-13.449.107Zm-.124-5.21a1.325,1.325,0,0,0-1.01.438,2.128,2.128,0,0,0-.5,1.227h2.911v-.075a1.893,1.893,0,0,0-.408-1.174A1.248,1.248,0,0,0-13.573-5.1Zm3.3,2.148a3.416,3.416,0,0,1,.628-2.162,2.01,2.01,0,0,1,1.665-.8,2,2,0,0,1,1.66.752l.048-.645h.908V-.14a2.364,2.364,0,0,1-.669,1.778,2.468,2.468,0,0,1-1.8.65,2.989,2.989,0,0,1-1.23-.269,2.117,2.117,0,0,1-.918-.736l.516-.6a1.943,1.943,0,0,0,1.563.79,1.522,1.522,0,0,0,1.131-.408A1.56,1.56,0,0,0-6.359-.081v-.5A2.042,2.042,0,0,1-7.987.107,1.985,1.985,0,0,1-9.638-.714,3.591,3.591,0,0,1-10.27-2.954Zm1,.113a2.606,2.606,0,0,0,.4,1.544A1.309,1.309,0,0,0-7.74-.736a1.456,1.456,0,0,0,1.38-.854V-4.243a1.473,1.473,0,0,0-1.37-.833,1.321,1.321,0,0,0-1.133.564A2.838,2.838,0,0,0-9.271-2.841ZM-1.053-4.92a2.978,2.978,0,0,0-.489-.038,1.309,1.309,0,0,0-1.327.833V0h-.994V-5.812H-2.9l.016.671a1.547,1.547,0,0,1,1.386-.779,1.015,1.015,0,0,1,.44.075ZM3.233,0a2.087,2.087,0,0,1-.14-.612,2.217,2.217,0,0,1-1.654.72A2.051,2.051,0,0,1,.03-.379,1.573,1.573,0,0,1-.521-1.611a1.643,1.643,0,0,1,.69-1.41,3.254,3.254,0,0,1,1.942-.5h.967V-3.98a1.116,1.116,0,0,0-.312-.83,1.252,1.252,0,0,0-.918-.309,1.449,1.449,0,0,0-.892.269A.791.791,0,0,0,.6-4.2h-1a1.371,1.371,0,0,1,.309-.841,2.108,2.108,0,0,1,.838-.642,2.819,2.819,0,0,1,1.163-.236,2.3,2.3,0,0,1,1.574.5,1.812,1.812,0,0,1,.591,1.383v2.675a3.27,3.27,0,0,0,.2,1.273V0ZM1.584-.757A1.746,1.746,0,0,0,2.471-1a1.462,1.462,0,0,0,.607-.628V-2.82H2.3Q.473-2.82.473-1.751a.9.9,0,0,0,.312.73A1.2,1.2,0,0,0,1.584-.757ZM6.569-5.812l.032.73a2.118,2.118,0,0,1,1.74-.838q1.842,0,1.858,2.079V0H9.206V-3.846a1.338,1.338,0,0,0-.287-.929,1.152,1.152,0,0,0-.878-.3,1.434,1.434,0,0,0-.849.258,1.751,1.751,0,0,0-.569.677V0H5.629V-5.812Zm6.478-1.407v1.407h1.085v.768H13.046v3.609a.807.807,0,0,0,.145.524.61.61,0,0,0,.494.175A2.406,2.406,0,0,0,14.158-.8V0A2.9,2.9,0,0,1,13.4.107a1.237,1.237,0,0,1-1-.4,1.731,1.731,0,0,1-.338-1.144v-3.6H10.995v-.768h1.058V-7.219ZM17.7.107A2.539,2.539,0,0,1,15.78-.669a2.881,2.881,0,0,1-.741-2.076v-.183a3.487,3.487,0,0,1,.33-1.544,2.577,2.577,0,0,1,.924-1.063,2.323,2.323,0,0,1,1.286-.384,2.177,2.177,0,0,1,1.762.747,3.232,3.232,0,0,1,.628,2.138v.414H16.033a2.066,2.066,0,0,0,.5,1.388A1.579,1.579,0,0,0,17.757-.7a1.731,1.731,0,0,0,.892-.215,2.24,2.24,0,0,0,.639-.569l.607.473A2.44,2.44,0,0,1,17.7.107ZM17.58-5.1a1.325,1.325,0,0,0-1.01.438,2.128,2.128,0,0,0-.5,1.227h2.911v-.075a1.893,1.893,0,0,0-.408-1.174A1.248,1.248,0,0,0,17.58-5.1ZM28.864,0H23.74V-.714l2.707-3.008a6.431,6.431,0,0,0,.83-1.109,1.851,1.851,0,0,0,.228-.884,1.4,1.4,0,0,0-.371-1,1.3,1.3,0,0,0-.988-.392,1.535,1.535,0,0,0-1.152.422,1.611,1.611,0,0,0-.411,1.174H23.59a2.307,2.307,0,0,1,.7-1.746,2.579,2.579,0,0,1,1.861-.666,2.478,2.478,0,0,1,1.724.572A1.951,1.951,0,0,1,28.5-5.833a4.474,4.474,0,0,1-1.472,2.75L24.938-.811h3.926Z" transform="translate(-867.387 -9392.832)"/>
    <path id="Trazado_192264" data-name="Trazado 192264" d="M2,0H122.49a2,2,0,0,1,2,2V37.837a2,2,0,0,1-2,2H2a2,2,0,0,1-2-2V2A2,2,0,0,1,2,0Z" transform="translate(-928.094 -9463.18)" fill="#fedc72"/>
    <path id="Trazado_192265" data-name="Trazado 192265" d="M-27.253,0h-1.031V-7.82h1.031Zm2.669-5.812.032.73a2.118,2.118,0,0,1,1.74-.838q1.842,0,1.858,2.079V0h-.994V-3.846a1.338,1.338,0,0,0-.287-.929,1.152,1.152,0,0,0-.878-.3,1.434,1.434,0,0,0-.849.258,1.751,1.751,0,0,0-.569.677V0h-.994V-5.812Zm6.478-1.407v1.407h1.085v.768h-1.085v3.609a.807.807,0,0,0,.145.524.61.61,0,0,0,.494.175A2.406,2.406,0,0,0-16.994-.8V0a2.9,2.9,0,0,1-.763.107,1.237,1.237,0,0,1-1-.4A1.731,1.731,0,0,1-19.1-1.439v-3.6h-1.058v-.768H-19.1V-7.219ZM-13.449.107a2.539,2.539,0,0,1-1.923-.776,2.881,2.881,0,0,1-.741-2.076v-.183a3.487,3.487,0,0,1,.33-1.544,2.577,2.577,0,0,1,.924-1.063,2.323,2.323,0,0,1,1.286-.384,2.177,2.177,0,0,1,1.762.747,3.232,3.232,0,0,1,.628,2.138v.414H-15.12a2.066,2.066,0,0,0,.5,1.388A1.579,1.579,0,0,0-13.4-.7,1.731,1.731,0,0,0-12.5-.918a2.24,2.24,0,0,0,.639-.569l.607.473A2.44,2.44,0,0,1-13.449.107Zm-.124-5.21a1.325,1.325,0,0,0-1.01.438,2.128,2.128,0,0,0-.5,1.227h2.911v-.075a1.893,1.893,0,0,0-.408-1.174A1.248,1.248,0,0,0-13.573-5.1Zm3.3,2.148a3.416,3.416,0,0,1,.628-2.162,2.01,2.01,0,0,1,1.665-.8,2,2,0,0,1,1.66.752l.048-.645h.908V-.14a2.364,2.364,0,0,1-.669,1.778,2.468,2.468,0,0,1-1.8.65,2.989,2.989,0,0,1-1.23-.269,2.117,2.117,0,0,1-.918-.736l.516-.6a1.943,1.943,0,0,0,1.563.79,1.522,1.522,0,0,0,1.131-.408A1.56,1.56,0,0,0-6.359-.081v-.5A2.042,2.042,0,0,1-7.987.107,1.985,1.985,0,0,1-9.638-.714,3.591,3.591,0,0,1-10.27-2.954Zm1,.113a2.606,2.606,0,0,0,.4,1.544A1.309,1.309,0,0,0-7.74-.736a1.456,1.456,0,0,0,1.38-.854V-4.243a1.473,1.473,0,0,0-1.37-.833,1.321,1.321,0,0,0-1.133.564A2.838,2.838,0,0,0-9.271-2.841ZM-1.053-4.92a2.978,2.978,0,0,0-.489-.038,1.309,1.309,0,0,0-1.327.833V0h-.994V-5.812H-2.9l.016.671a1.547,1.547,0,0,1,1.386-.779,1.015,1.015,0,0,1,.44.075ZM3.233,0a2.087,2.087,0,0,1-.14-.612,2.217,2.217,0,0,1-1.654.72A2.051,2.051,0,0,1,.03-.379,1.573,1.573,0,0,1-.521-1.611a1.643,1.643,0,0,1,.69-1.41,3.254,3.254,0,0,1,1.942-.5h.967V-3.98a1.116,1.116,0,0,0-.312-.83,1.252,1.252,0,0,0-.918-.309,1.449,1.449,0,0,0-.892.269A.791.791,0,0,0,.6-4.2h-1a1.371,1.371,0,0,1,.309-.841,2.108,2.108,0,0,1,.838-.642,2.819,2.819,0,0,1,1.163-.236,2.3,2.3,0,0,1,1.574.5,1.812,1.812,0,0,1,.591,1.383v2.675a3.27,3.27,0,0,0,.2,1.273V0ZM1.584-.757A1.746,1.746,0,0,0,2.471-1a1.462,1.462,0,0,0,.607-.628V-2.82H2.3Q.473-2.82.473-1.751a.9.9,0,0,0,.312.73A1.2,1.2,0,0,0,1.584-.757ZM6.569-5.812l.032.73a2.118,2.118,0,0,1,1.74-.838q1.842,0,1.858,2.079V0H9.206V-3.846a1.338,1.338,0,0,0-.287-.929,1.152,1.152,0,0,0-.878-.3,1.434,1.434,0,0,0-.849.258,1.751,1.751,0,0,0-.569.677V0H5.629V-5.812Zm6.478-1.407v1.407h1.085v.768H13.046v3.609a.807.807,0,0,0,.145.524.61.61,0,0,0,.494.175A2.406,2.406,0,0,0,14.158-.8V0A2.9,2.9,0,0,1,13.4.107a1.237,1.237,0,0,1-1-.4,1.731,1.731,0,0,1-.338-1.144v-3.6H10.995v-.768h1.058V-7.219ZM17.7.107A2.539,2.539,0,0,1,15.78-.669a2.881,2.881,0,0,1-.741-2.076v-.183a3.487,3.487,0,0,1,.33-1.544,2.577,2.577,0,0,1,.924-1.063,2.323,2.323,0,0,1,1.286-.384,2.177,2.177,0,0,1,1.762.747,3.232,3.232,0,0,1,.628,2.138v.414H16.033a2.066,2.066,0,0,0,.5,1.388A1.579,1.579,0,0,0,17.757-.7a1.731,1.731,0,0,0,.892-.215,2.24,2.24,0,0,0,.639-.569l.607.473A2.44,2.44,0,0,1,17.7.107ZM17.58-5.1a1.325,1.325,0,0,0-1.01.438,2.128,2.128,0,0,0-.5,1.227h2.911v-.075a1.893,1.893,0,0,0-.408-1.174A1.248,1.248,0,0,0,17.58-5.1ZM27.006,0h-1V-6.623l-2,.736v-.9L26.85-7.858h.156Z" transform="translate(-867.387 -9441.442)"/>
    <path id="Trazado_192266" data-name="Trazado 192266" d="M2,0H122.49a2,2,0,0,1,2,2V37.837a2,2,0,0,1-2,2H2a2,2,0,0,1-2-2V2A2,2,0,0,1,2,0Z" transform="translate(-928.094 -9303.12)" fill="#fedc72"/>
    <path id="Trazado_192267" data-name="Trazado 192267" d="M-27.253,0h-1.031V-7.82h1.031Zm2.669-5.812.032.73a2.118,2.118,0,0,1,1.74-.838q1.842,0,1.858,2.079V0h-.994V-3.846a1.338,1.338,0,0,0-.287-.929,1.152,1.152,0,0,0-.878-.3,1.434,1.434,0,0,0-.849.258,1.751,1.751,0,0,0-.569.677V0h-.994V-5.812Zm6.478-1.407v1.407h1.085v.768h-1.085v3.609a.807.807,0,0,0,.145.524.61.61,0,0,0,.494.175A2.406,2.406,0,0,0-16.994-.8V0a2.9,2.9,0,0,1-.763.107,1.237,1.237,0,0,1-1-.4A1.731,1.731,0,0,1-19.1-1.439v-3.6h-1.058v-.768H-19.1V-7.219ZM-13.449.107a2.539,2.539,0,0,1-1.923-.776,2.881,2.881,0,0,1-.741-2.076v-.183a3.487,3.487,0,0,1,.33-1.544,2.577,2.577,0,0,1,.924-1.063,2.323,2.323,0,0,1,1.286-.384,2.177,2.177,0,0,1,1.762.747,3.232,3.232,0,0,1,.628,2.138v.414H-15.12a2.066,2.066,0,0,0,.5,1.388A1.579,1.579,0,0,0-13.4-.7,1.731,1.731,0,0,0-12.5-.918a2.24,2.24,0,0,0,.639-.569l.607.473A2.44,2.44,0,0,1-13.449.107Zm-.124-5.21a1.325,1.325,0,0,0-1.01.438,2.128,2.128,0,0,0-.5,1.227h2.911v-.075a1.893,1.893,0,0,0-.408-1.174A1.248,1.248,0,0,0-13.573-5.1Zm3.3,2.148a3.416,3.416,0,0,1,.628-2.162,2.01,2.01,0,0,1,1.665-.8,2,2,0,0,1,1.66.752l.048-.645h.908V-.14a2.364,2.364,0,0,1-.669,1.778,2.468,2.468,0,0,1-1.8.65,2.989,2.989,0,0,1-1.23-.269,2.117,2.117,0,0,1-.918-.736l.516-.6a1.943,1.943,0,0,0,1.563.79,1.522,1.522,0,0,0,1.131-.408A1.56,1.56,0,0,0-6.359-.081v-.5A2.042,2.042,0,0,1-7.987.107,1.985,1.985,0,0,1-9.638-.714,3.591,3.591,0,0,1-10.27-2.954Zm1,.113a2.606,2.606,0,0,0,.4,1.544A1.309,1.309,0,0,0-7.74-.736a1.456,1.456,0,0,0,1.38-.854V-4.243a1.473,1.473,0,0,0-1.37-.833,1.321,1.321,0,0,0-1.133.564A2.838,2.838,0,0,0-9.271-2.841ZM-1.053-4.92a2.978,2.978,0,0,0-.489-.038,1.309,1.309,0,0,0-1.327.833V0h-.994V-5.812H-2.9l.016.671a1.547,1.547,0,0,1,1.386-.779,1.015,1.015,0,0,1,.44.075ZM3.233,0a2.087,2.087,0,0,1-.14-.612,2.217,2.217,0,0,1-1.654.72A2.051,2.051,0,0,1,.03-.379,1.573,1.573,0,0,1-.521-1.611a1.643,1.643,0,0,1,.69-1.41,3.254,3.254,0,0,1,1.942-.5h.967V-3.98a1.116,1.116,0,0,0-.312-.83,1.252,1.252,0,0,0-.918-.309,1.449,1.449,0,0,0-.892.269A.791.791,0,0,0,.6-4.2h-1a1.371,1.371,0,0,1,.309-.841,2.108,2.108,0,0,1,.838-.642,2.819,2.819,0,0,1,1.163-.236,2.3,2.3,0,0,1,1.574.5,1.812,1.812,0,0,1,.591,1.383v2.675a3.27,3.27,0,0,0,.2,1.273V0ZM1.584-.757A1.746,1.746,0,0,0,2.471-1a1.462,1.462,0,0,0,.607-.628V-2.82H2.3Q.473-2.82.473-1.751a.9.9,0,0,0,.312.73A1.2,1.2,0,0,0,1.584-.757ZM6.569-5.812l.032.73a2.118,2.118,0,0,1,1.74-.838q1.842,0,1.858,2.079V0H9.206V-3.846a1.338,1.338,0,0,0-.287-.929,1.152,1.152,0,0,0-.878-.3,1.434,1.434,0,0,0-.849.258,1.751,1.751,0,0,0-.569.677V0H5.629V-5.812Zm6.478-1.407v1.407h1.085v.768H13.046v3.609a.807.807,0,0,0,.145.524.61.61,0,0,0,.494.175A2.406,2.406,0,0,0,14.158-.8V0A2.9,2.9,0,0,1,13.4.107a1.237,1.237,0,0,1-1-.4,1.731,1.731,0,0,1-.338-1.144v-3.6H10.995v-.768h1.058V-7.219ZM17.7.107A2.539,2.539,0,0,1,15.78-.669a2.881,2.881,0,0,1-.741-2.076v-.183a3.487,3.487,0,0,1,.33-1.544,2.577,2.577,0,0,1,.924-1.063,2.323,2.323,0,0,1,1.286-.384,2.177,2.177,0,0,1,1.762.747,3.232,3.232,0,0,1,.628,2.138v.414H16.033a2.066,2.066,0,0,0,.5,1.388A1.579,1.579,0,0,0,17.757-.7a1.731,1.731,0,0,0,.892-.215,2.24,2.24,0,0,0,.639-.569l.607.473A2.44,2.44,0,0,1,17.7.107ZM17.58-5.1a1.325,1.325,0,0,0-1.01.438,2.128,2.128,0,0,0-.5,1.227h2.911v-.075a1.893,1.893,0,0,0-.408-1.174A1.248,1.248,0,0,0,17.58-5.1ZM28.864,0H23.74V-.714l2.707-3.008a6.431,6.431,0,0,0,.83-1.109,1.851,1.851,0,0,0,.228-.884,1.4,1.4,0,0,0-.371-1,1.3,1.3,0,0,0-.988-.392,1.535,1.535,0,0,0-1.152.422,1.611,1.611,0,0,0-.411,1.174H23.59a2.307,2.307,0,0,1,.7-1.746,2.579,2.579,0,0,1,1.861-.666,2.478,2.478,0,0,1,1.724.572A1.951,1.951,0,0,1,28.5-5.833a4.474,4.474,0,0,1-1.472,2.75L24.938-.811h3.926Z" transform="translate(-867.387 -9281.857)"/>
    <path id="Trazado_192268" data-name="Trazado 192268" d="M2,0H122.49a2,2,0,0,1,2,2V37.837a2,2,0,0,1-2,2H2a2,2,0,0,1-2-2V2A2,2,0,0,1,2,0Z" transform="translate(-928.094 -9352.205)" fill="#fedc72"/>
    <path id="Trazado_192269" data-name="Trazado 192269" d="M-27.253,0h-1.031V-7.82h1.031Zm2.669-5.812.032.73a2.118,2.118,0,0,1,1.74-.838q1.842,0,1.858,2.079V0h-.994V-3.846a1.338,1.338,0,0,0-.287-.929,1.152,1.152,0,0,0-.878-.3,1.434,1.434,0,0,0-.849.258,1.751,1.751,0,0,0-.569.677V0h-.994V-5.812Zm6.478-1.407v1.407h1.085v.768h-1.085v3.609a.807.807,0,0,0,.145.524.61.61,0,0,0,.494.175A2.406,2.406,0,0,0-16.994-.8V0a2.9,2.9,0,0,1-.763.107,1.237,1.237,0,0,1-1-.4A1.731,1.731,0,0,1-19.1-1.439v-3.6h-1.058v-.768H-19.1V-7.219ZM-13.449.107a2.539,2.539,0,0,1-1.923-.776,2.881,2.881,0,0,1-.741-2.076v-.183a3.487,3.487,0,0,1,.33-1.544,2.577,2.577,0,0,1,.924-1.063,2.323,2.323,0,0,1,1.286-.384,2.177,2.177,0,0,1,1.762.747,3.232,3.232,0,0,1,.628,2.138v.414H-15.12a2.066,2.066,0,0,0,.5,1.388A1.579,1.579,0,0,0-13.4-.7,1.731,1.731,0,0,0-12.5-.918a2.24,2.24,0,0,0,.639-.569l.607.473A2.44,2.44,0,0,1-13.449.107Zm-.124-5.21a1.325,1.325,0,0,0-1.01.438,2.128,2.128,0,0,0-.5,1.227h2.911v-.075a1.893,1.893,0,0,0-.408-1.174A1.248,1.248,0,0,0-13.573-5.1Zm3.3,2.148a3.416,3.416,0,0,1,.628-2.162,2.01,2.01,0,0,1,1.665-.8,2,2,0,0,1,1.66.752l.048-.645h.908V-.14a2.364,2.364,0,0,1-.669,1.778,2.468,2.468,0,0,1-1.8.65,2.989,2.989,0,0,1-1.23-.269,2.117,2.117,0,0,1-.918-.736l.516-.6a1.943,1.943,0,0,0,1.563.79,1.522,1.522,0,0,0,1.131-.408A1.56,1.56,0,0,0-6.359-.081v-.5A2.042,2.042,0,0,1-7.987.107,1.985,1.985,0,0,1-9.638-.714,3.591,3.591,0,0,1-10.27-2.954Zm1,.113a2.606,2.606,0,0,0,.4,1.544A1.309,1.309,0,0,0-7.74-.736a1.456,1.456,0,0,0,1.38-.854V-4.243a1.473,1.473,0,0,0-1.37-.833,1.321,1.321,0,0,0-1.133.564A2.838,2.838,0,0,0-9.271-2.841ZM-1.053-4.92a2.978,2.978,0,0,0-.489-.038,1.309,1.309,0,0,0-1.327.833V0h-.994V-5.812H-2.9l.016.671a1.547,1.547,0,0,1,1.386-.779,1.015,1.015,0,0,1,.44.075ZM3.233,0a2.087,2.087,0,0,1-.14-.612,2.217,2.217,0,0,1-1.654.72A2.051,2.051,0,0,1,.03-.379,1.573,1.573,0,0,1-.521-1.611a1.643,1.643,0,0,1,.69-1.41,3.254,3.254,0,0,1,1.942-.5h.967V-3.98a1.116,1.116,0,0,0-.312-.83,1.252,1.252,0,0,0-.918-.309,1.449,1.449,0,0,0-.892.269A.791.791,0,0,0,.6-4.2h-1a1.371,1.371,0,0,1,.309-.841,2.108,2.108,0,0,1,.838-.642,2.819,2.819,0,0,1,1.163-.236,2.3,2.3,0,0,1,1.574.5,1.812,1.812,0,0,1,.591,1.383v2.675a3.27,3.27,0,0,0,.2,1.273V0ZM1.584-.757A1.746,1.746,0,0,0,2.471-1a1.462,1.462,0,0,0,.607-.628V-2.82H2.3Q.473-2.82.473-1.751a.9.9,0,0,0,.312.73A1.2,1.2,0,0,0,1.584-.757ZM6.569-5.812l.032.73a2.118,2.118,0,0,1,1.74-.838q1.842,0,1.858,2.079V0H9.206V-3.846a1.338,1.338,0,0,0-.287-.929,1.152,1.152,0,0,0-.878-.3,1.434,1.434,0,0,0-.849.258,1.751,1.751,0,0,0-.569.677V0H5.629V-5.812Zm6.478-1.407v1.407h1.085v.768H13.046v3.609a.807.807,0,0,0,.145.524.61.61,0,0,0,.494.175A2.406,2.406,0,0,0,14.158-.8V0A2.9,2.9,0,0,1,13.4.107a1.237,1.237,0,0,1-1-.4,1.731,1.731,0,0,1-.338-1.144v-3.6H10.995v-.768h1.058V-7.219ZM17.7.107A2.539,2.539,0,0,1,15.78-.669a2.881,2.881,0,0,1-.741-2.076v-.183a3.487,3.487,0,0,1,.33-1.544,2.577,2.577,0,0,1,.924-1.063,2.323,2.323,0,0,1,1.286-.384,2.177,2.177,0,0,1,1.762.747,3.232,3.232,0,0,1,.628,2.138v.414H16.033a2.066,2.066,0,0,0,.5,1.388A1.579,1.579,0,0,0,17.757-.7a1.731,1.731,0,0,0,.892-.215,2.24,2.24,0,0,0,.639-.569l.607.473A2.44,2.44,0,0,1,17.7.107ZM17.58-5.1a1.325,1.325,0,0,0-1.01.438,2.128,2.128,0,0,0-.5,1.227h2.911v-.075a1.893,1.893,0,0,0-.408-1.174A1.248,1.248,0,0,0,17.58-5.1ZM27.006,0h-1V-6.623l-2,.736v-.9L26.85-7.858h.156Z" transform="translate(-867.387 -9330.468)"/>
    <path id="Trazado_192270" data-name="Trazado 192270" d="M2,0H122.49a2,2,0,0,1,2,2V37.837a2,2,0,0,1-2,2H2a2,2,0,0,1-2-2V2A2,2,0,0,1,2,0Z" transform="translate(-1064.678 -9332.998)" fill="#8c6df2"/>
    <path id="Trazado_192271" data-name="Trazado 192271" d="M-15.372-2.481a2.877,2.877,0,0,1-.916,1.915,3,3,0,0,1-2.049.674,2.756,2.756,0,0,1-2.221-.994,4,4,0,0,1-.835-2.659V-4.3A4.456,4.456,0,0,1-21-6.214a2.909,2.909,0,0,1,1.1-1.27,3.073,3.073,0,0,1,1.654-.443,2.826,2.826,0,0,1,2,.7,2.912,2.912,0,0,1,.875,1.926h-1.037a2.247,2.247,0,0,0-.583-1.358,1.763,1.763,0,0,0-1.254-.42,1.845,1.845,0,0,0-1.55.731,3.356,3.356,0,0,0-.561,2.08v.758a3.45,3.45,0,0,0,.532,2.027,1.718,1.718,0,0,0,1.488.753,1.984,1.984,0,0,0,1.319-.389,2.161,2.161,0,0,0,.61-1.356Zm.988-.478A3.433,3.433,0,0,1-14.048-4.5a2.5,2.5,0,0,1,.935-1.053,2.544,2.544,0,0,1,1.367-.371,2.451,2.451,0,0,1,1.92.822,3.162,3.162,0,0,1,.733,2.186v.07a3.462,3.462,0,0,1-.325,1.523,2.467,2.467,0,0,1-.929,1.05,2.573,2.573,0,0,1-1.388.376,2.445,2.445,0,0,1-1.915-.822,3.146,3.146,0,0,1-.733-2.175Zm1,.118a2.486,2.486,0,0,0,.448,1.552,1.435,1.435,0,0,0,1.2.585,1.427,1.427,0,0,0,1.2-.594,2.719,2.719,0,0,0,.446-1.662,2.482,2.482,0,0,0-.454-1.55A1.443,1.443,0,0,0-11.747-5.1a1.427,1.427,0,0,0-1.187.585A2.7,2.7,0,0,0-13.385-2.841Zm6.472-2.97.027.645a2.146,2.146,0,0,1,1.724-.752,1.662,1.662,0,0,1,1.66.935,2.2,2.2,0,0,1,.755-.677,2.229,2.229,0,0,1,1.1-.258Q.263-5.919.3-3.894V0H-.7V-3.835a1.334,1.334,0,0,0-.285-.932,1.254,1.254,0,0,0-.956-.309,1.318,1.318,0,0,0-.918.33,1.34,1.34,0,0,0-.424.889V0h-1V-3.808A1.109,1.109,0,0,0-5.521-5.076a1.329,1.329,0,0,0-1.337.833V0h-.994V-5.812ZM2.874,0H1.88V-5.812h.994ZM1.8-7.353a.593.593,0,0,1,.148-.408.555.555,0,0,1,.438-.167.563.563,0,0,1,.44.167.587.587,0,0,1,.15.408.568.568,0,0,1-.15.4.573.573,0,0,1-.44.161.565.565,0,0,1-.438-.161A.573.573,0,0,1,1.8-7.353Zm4.012.134v1.407H6.9v.768H5.812v3.609a.807.807,0,0,0,.145.524.61.61,0,0,0,.494.175A2.406,2.406,0,0,0,6.923-.8V0a2.9,2.9,0,0,1-.763.107,1.237,1.237,0,0,1-1-.4,1.731,1.731,0,0,1-.338-1.144v-3.6H3.76v-.768H4.818V-7.219ZM10.468.107A2.539,2.539,0,0,1,8.545-.669,2.881,2.881,0,0,1,7.8-2.745v-.183a3.487,3.487,0,0,1,.33-1.544,2.577,2.577,0,0,1,.924-1.063,2.323,2.323,0,0,1,1.286-.384,2.177,2.177,0,0,1,1.762.747,3.232,3.232,0,0,1,.628,2.138v.414H8.8a2.066,2.066,0,0,0,.5,1.388A1.579,1.579,0,0,0,10.522-.7a1.731,1.731,0,0,0,.892-.215,2.24,2.24,0,0,0,.639-.569l.607.473A2.44,2.44,0,0,1,10.468.107ZM10.345-5.1a1.325,1.325,0,0,0-1.01.438,2.128,2.128,0,0,0-.5,1.227h2.911v-.075a1.893,1.893,0,0,0-.408-1.174A1.248,1.248,0,0,0,10.345-5.1Zm.483-3.137h1.2L10.592-6.66l-.8,0ZM17.95-4.394H18.7A1.641,1.641,0,0,0,19.8-4.764a1.238,1.238,0,0,0,.4-.972,1.213,1.213,0,0,0-1.37-1.375,1.425,1.425,0,0,0-1.029.368,1.288,1.288,0,0,0-.384.975H16.43a2,2,0,0,1,.679-1.544,2.475,2.475,0,0,1,1.727-.615,2.446,2.446,0,0,1,1.735.585A2.115,2.115,0,0,1,21.2-5.715a1.717,1.717,0,0,1-.33.988,1.994,1.994,0,0,1-.9.714,1.922,1.922,0,0,1,1,.677,1.88,1.88,0,0,1,.352,1.155A2.133,2.133,0,0,1,20.63-.51a2.575,2.575,0,0,1-1.789.618,2.643,2.643,0,0,1-1.791-.6,1.978,1.978,0,0,1-.69-1.574h1a1.278,1.278,0,0,0,.4.988,1.532,1.532,0,0,0,1.08.371,1.5,1.5,0,0,0,1.1-.376,1.449,1.449,0,0,0,.381-1.08,1.315,1.315,0,0,0-.419-1.047A1.825,1.825,0,0,0,18.7-3.583H17.95Z" transform="translate(-1003.671 -9311.735)"/>
  </g>
</svg>
