<svg xmlns="http://www.w3.org/2000/svg" width="610" height="346" viewBox="0 0 610 346">
  <g id="Grupo_138314" data-name="Grupo 138314" transform="translate(-705 -2096)">
    <path id="Trazado_192217" data-name="Trazado 192217" d="M10,0H600a10,10,0,0,1,10,10V336a10,10,0,0,1-10,10H10A10,10,0,0,1,0,336V10A10,10,0,0,1,10,0Z" transform="translate(705 2096)" fill="#f8fbff"/>
    <path id="Trazado_189404" data-name="Trazado 189404" d="M204.857,74.714v85.2H406.83v97.681" transform="translate(802.888 2104.298)" fill="none" stroke="#636363" stroke-miterlimit="10" stroke-width="1" fill-rule="evenodd"/>
    <path id="Trazado_189405" data-name="Trazado 189405" d="M290.38,124.429H84v94.744" transform="translate(716.631 2139.779)" fill="none" stroke="#636363" stroke-miterlimit="10" stroke-width="1" fill-rule="evenodd"/>
    <path id="Trazado_192218" data-name="Trazado 192218" d="M0,0V96.947" transform="translate(940.054 2264.024)" fill="none" stroke="#636363" stroke-width="1"/>
    <path id="Trazado_192219" data-name="Trazado 192219" d="M0,0V96.947" transform="translate(1079.844 2264.024)" fill="none" stroke="#636363" stroke-width="1"/>
    <path id="Trazado_192220" data-name="Trazado 192220" d="M2,0H126.528a2,2,0,0,1,2,2V39.129a2,2,0,0,1-2,2H2a2,2,0,0,1-2-2V2A2,2,0,0,1,2,0Z" transform="translate(946.052 2156)" fill="#5038a1"/>
    <path id="Trazado_192221" data-name="Trazado 192221" d="M2,0H126.528a2,2,0,0,1,2,2V39.129a2,2,0,0,1-2,2H2a2,2,0,0,1-2-2V2A2,2,0,0,1,2,0Z" transform="translate(946.052 2209.859)" fill="#fff" stroke="#fdb74d" stroke-width="1"/>
    <path id="Trazado_192222" data-name="Trazado 192222" d="M2,0H126.528a2,2,0,0,1,2,2V39.129a2,2,0,0,1-2,2H2a2,2,0,0,1-2-2V2A2,2,0,0,1,2,0Z" transform="translate(876.769 2279.632)" fill="#fff" stroke="#8c6df2" stroke-width="1"/>
    <path id="Trazado_192223" data-name="Trazado 192223" d="M2,0H126.528a2,2,0,0,1,2,2V39.129a2,2,0,0,1-2,2H2a2,2,0,0,1-2-2V2A2,2,0,0,1,2,0Z" transform="translate(1015.579 2279.631)" fill="#fff" stroke="#8c6df2" stroke-width="1"/>
    <path id="Trazado_192224" data-name="Trazado 192224" d="M2,0H126.528a2,2,0,0,1,2,2V39.129a2,2,0,0,1-2,2H2a2,2,0,0,1-2-2V2A2,2,0,0,1,2,0Z" transform="translate(1155.369 2279.631)" fill="#fff" stroke="#8c6df2" stroke-width="1"/>
    <path id="Trazado_192225" data-name="Trazado 192225" d="M2,0H126.528a2,2,0,0,1,2,2V39.129a2,2,0,0,1-2,2H2a2,2,0,0,1-2-2V2A2,2,0,0,1,2,0Z" transform="translate(736 2279.631)" fill="#fff" stroke="#8c6df2" stroke-width="1"/>
    <path id="Trazado_192226" data-name="Trazado 192226" d="M2,0H126.528a2,2,0,0,1,2,2V39.129a2,2,0,0,1-2,2H2a2,2,0,0,1-2-2V2A2,2,0,0,1,2,0Z" transform="translate(875.79 2340.591)" fill="#fff" stroke="#fedc72" stroke-width="1"/>
    <path id="Trazado_192227" data-name="Trazado 192227" d="M2,0H126.528a2,2,0,0,1,2,2V39.129a2,2,0,0,1-2,2H2a2,2,0,0,1-2-2V2A2,2,0,0,1,2,0Z" transform="translate(1015.579 2340.591)" fill="#fff" stroke="#fedc72" stroke-width="1"/>
    <path id="Trazado_192228" data-name="Trazado 192228" d="M2,0H126.528a2,2,0,0,1,2,2V39.129a2,2,0,0,1-2,2H2a2,2,0,0,1-2-2V2A2,2,0,0,1,2,0Z" transform="translate(1155.369 2340.591)" fill="#fff" stroke="#fedc72" stroke-width="1"/>
    <path id="Trazado_192229" data-name="Trazado 192229" d="M2,0H126.528a2,2,0,0,1,2,2V39.129a2,2,0,0,1-2,2H2a2,2,0,0,1-2-2V2A2,2,0,0,1,2,0Z" transform="translate(736.494 2340.958)" fill="#fff" stroke="#fedc72" stroke-width="1"/>
    <path id="Trazado_192230" data-name="Trazado 192230" d="M-21.371-2.993a3.958,3.958,0,0,1-.316,1.641,2.4,2.4,0,0,1-.9,1.07,2.466,2.466,0,0,1-1.354.369,2.445,2.445,0,0,1-1.34-.371,2.454,2.454,0,0,1-.907-1.059,3.8,3.8,0,0,1-.332-1.593V-3.4a3.911,3.911,0,0,1,.321-1.63,2.445,2.445,0,0,1,.907-1.083,2.435,2.435,0,0,1,1.343-.376,2.48,2.48,0,0,1,1.356.371,2.392,2.392,0,0,1,.9,1.077A3.977,3.977,0,0,1-21.371-3.4Zm-.839-.413a2.869,2.869,0,0,0-.457-1.747,1.507,1.507,0,0,0-1.279-.609,1.491,1.491,0,0,0-1.259.609,2.81,2.81,0,0,0-.472,1.69v.47a2.873,2.873,0,0,0,.464,1.734,1.5,1.5,0,0,0,1.277.631,1.492,1.492,0,0,0,1.266-.6,2.857,2.857,0,0,0,.461-1.707Zm4.276-.62a2.436,2.436,0,0,0-.4-.031,1.071,1.071,0,0,0-1.085.681V0h-.813V-4.755h.791l.013.549a1.266,1.266,0,0,1,1.134-.637.831.831,0,0,1,.36.062Zm.47,1.608a2.8,2.8,0,0,1,.514-1.769,1.644,1.644,0,0,1,1.362-.657,1.636,1.636,0,0,1,1.358.615l.04-.527h.743V-.114a1.934,1.934,0,0,1-.547,1.455,2.019,2.019,0,0,1-1.47.532,2.446,2.446,0,0,1-1.006-.22,1.732,1.732,0,0,1-.751-.6L-16.8.563a1.59,1.59,0,0,0,1.279.646A1.246,1.246,0,0,0-14.6.875a1.277,1.277,0,0,0,.332-.94V-.475A1.671,1.671,0,0,1-15.6.088a1.624,1.624,0,0,1-1.351-.672A2.938,2.938,0,0,1-17.464-2.417Zm.817.092a2.132,2.132,0,0,0,.33,1.263,1.071,1.071,0,0,0,.923.459,1.191,1.191,0,0,0,1.129-.7V-3.472a1.2,1.2,0,0,0-1.121-.681,1.081,1.081,0,0,0-.927.461A2.322,2.322,0,0,0-16.646-2.325ZM-9.286,0A1.708,1.708,0,0,1-9.4-.5a1.814,1.814,0,0,1-1.354.589,1.678,1.678,0,0,1-1.154-.4,1.287,1.287,0,0,1-.45-1.009,1.344,1.344,0,0,1,.565-1.154A2.662,2.662,0,0,1-10.2-2.883h.791v-.374a.913.913,0,0,0-.255-.679,1.024,1.024,0,0,0-.751-.253,1.185,1.185,0,0,0-.729.22.647.647,0,0,0-.294.532h-.817a1.122,1.122,0,0,1,.253-.688,1.725,1.725,0,0,1,.686-.525,2.306,2.306,0,0,1,.951-.193,1.88,1.88,0,0,1,1.288.411A1.482,1.482,0,0,1-8.6-3.3v2.188A2.676,2.676,0,0,0-8.433-.07V0Zm-1.349-.62a1.429,1.429,0,0,0,.725-.2,1.2,1.2,0,0,0,.5-.514v-.976h-.637q-1.494,0-1.494.875a.74.74,0,0,0,.255.6A.98.98,0,0,0-10.635-.62Zm4.078-4.135.026.6a1.733,1.733,0,0,1,1.424-.686q1.507,0,1.521,1.7V0H-4.4V-3.146a1.1,1.1,0,0,0-.235-.76.942.942,0,0,0-.719-.246,1.173,1.173,0,0,0-.694.211,1.432,1.432,0,0,0-.466.554V0h-.813V-4.755ZM-1.477,0H-2.29V-4.755h.813Zm-.879-6.016a.485.485,0,0,1,.121-.334.454.454,0,0,1,.358-.136.461.461,0,0,1,.36.136.48.48,0,0,1,.123.334.464.464,0,0,1-.123.33.469.469,0,0,1-.36.132.462.462,0,0,1-.358-.132A.469.469,0,0,1-2.355-6.016Zm1.986,3.6A2.8,2.8,0,0,1,.145-4.186a1.644,1.644,0,0,1,1.362-.657,1.636,1.636,0,0,1,1.358.615l.04-.527h.743V-.114A1.934,1.934,0,0,1,3.1,1.34a2.019,2.019,0,0,1-1.47.532,2.446,2.446,0,0,1-1.006-.22,1.732,1.732,0,0,1-.751-.6L.294.563a1.59,1.59,0,0,0,1.279.646A1.246,1.246,0,0,0,2.5.875a1.277,1.277,0,0,0,.332-.94V-.475A1.671,1.671,0,0,1,1.5.088,1.624,1.624,0,0,1,.147-.584,2.938,2.938,0,0,1-.369-2.417Zm.817.092a2.132,2.132,0,0,0,.33,1.263A1.071,1.071,0,0,0,1.7-.6,1.191,1.191,0,0,0,2.83-1.3V-3.472a1.2,1.2,0,0,0-1.121-.681,1.081,1.081,0,0,0-.927.461A2.322,2.322,0,0,0,.448-2.325Zm6.724-1.7a2.436,2.436,0,0,0-.4-.031,1.071,1.071,0,0,0-1.085.681V0H4.874V-4.755h.791l.013.549a1.266,1.266,0,0,1,1.134-.637.831.831,0,0,1,.36.062ZM10.679,0a1.708,1.708,0,0,1-.114-.5A1.814,1.814,0,0,1,9.211.088a1.678,1.678,0,0,1-1.154-.4,1.287,1.287,0,0,1-.45-1.009,1.344,1.344,0,0,1,.565-1.154A2.662,2.662,0,0,1,9.76-2.883h.791v-.374a.913.913,0,0,0-.255-.679,1.024,1.024,0,0,0-.751-.253,1.185,1.185,0,0,0-.729.22.647.647,0,0,0-.294.532H7.7a1.122,1.122,0,0,1,.253-.688,1.725,1.725,0,0,1,.686-.525,2.306,2.306,0,0,1,.951-.193,1.88,1.88,0,0,1,1.288.411A1.482,1.482,0,0,1,11.364-3.3v2.188A2.676,2.676,0,0,0,11.531-.07V0ZM9.33-.62a1.429,1.429,0,0,0,.725-.2,1.2,1.2,0,0,0,.5-.514v-.976H9.914q-1.494,0-1.494.875a.74.74,0,0,0,.255.6A.98.98,0,0,0,9.33-.62ZM13.4-4.755l.022.527a1.756,1.756,0,0,1,1.411-.615,1.359,1.359,0,0,1,1.358.765,1.8,1.8,0,0,1,.617-.554,1.824,1.824,0,0,1,.9-.211q1.564,0,1.591,1.657V0h-.813V-3.138a1.092,1.092,0,0,0-.233-.762,1.026,1.026,0,0,0-.782-.253,1.078,1.078,0,0,0-.751.27,1.1,1.1,0,0,0-.347.727V0h-.817V-3.116a.907.907,0,0,0-1.015-1.037,1.088,1.088,0,0,0-1.094.681V0h-.813V-4.755ZM23.462,0a1.708,1.708,0,0,1-.114-.5,1.814,1.814,0,0,1-1.354.589,1.678,1.678,0,0,1-1.154-.4,1.287,1.287,0,0,1-.45-1.009,1.344,1.344,0,0,1,.565-1.154,2.662,2.662,0,0,1,1.589-.411h.791v-.374a.913.913,0,0,0-.255-.679,1.024,1.024,0,0,0-.751-.253,1.185,1.185,0,0,0-.729.22.647.647,0,0,0-.294.532h-.817a1.122,1.122,0,0,1,.253-.688,1.725,1.725,0,0,1,.686-.525,2.306,2.306,0,0,1,.951-.193,1.88,1.88,0,0,1,1.288.411A1.482,1.482,0,0,1,24.148-3.3v2.188A2.676,2.676,0,0,0,24.315-.07V0ZM22.113-.62a1.429,1.429,0,0,0,.725-.2,1.2,1.2,0,0,0,.5-.514v-.976H22.7q-1.494,0-1.494.875a.74.74,0,0,0,.255.6A.98.98,0,0,0,22.113-.62ZM-26.921,9.9l1.178-3.652h.831L-26.618,11h-.62L-28.96,6.245h.831Zm4.707,1.191a2.078,2.078,0,0,1-1.573-.635,2.357,2.357,0,0,1-.606-1.7V8.6a2.853,2.853,0,0,1,.27-1.263,2.108,2.108,0,0,1,.756-.87,1.9,1.9,0,0,1,1.052-.314,1.781,1.781,0,0,1,1.441.611,2.645,2.645,0,0,1,.514,1.749v.338h-3.221a1.69,1.69,0,0,0,.411,1.136,1.292,1.292,0,0,0,1,.433,1.416,1.416,0,0,0,.729-.176,1.833,1.833,0,0,0,.523-.466l.5.387A2,2,0,0,1-22.214,11.088Zm-.1-4.263a1.084,1.084,0,0,0-.826.358,1.741,1.741,0,0,0-.413,1h2.382V8.126a1.548,1.548,0,0,0-.334-.96A1.021,1.021,0,0,0-22.315,6.825Zm5.194.149a2.436,2.436,0,0,0-.4-.031,1.071,1.071,0,0,0-1.085.681V11h-.813V6.245h.791l.013.549a1.266,1.266,0,0,1,1.134-.637.831.831,0,0,1,.36.062Zm2.07-1.881V6.245h.888v.628h-.888V9.826a.66.66,0,0,0,.119.429.5.5,0,0,0,.4.143,1.968,1.968,0,0,0,.387-.053V11a2.371,2.371,0,0,1-.624.087,1.012,1.012,0,0,1-.822-.33,1.416,1.416,0,0,1-.277-.936V6.874h-.866V6.245h.866V5.094ZM-12.331,11h-.813V6.245h.813Zm-.879-6.016a.485.485,0,0,1,.121-.334.454.454,0,0,1,.358-.136.461.461,0,0,1,.36.136.48.48,0,0,1,.123.334.464.464,0,0,1-.123.33.469.469,0,0,1-.36.132.462.462,0,0,1-.358-.132A.469.469,0,0,1-13.21,4.984Zm4.087,5.44a1.171,1.171,0,0,0,.76-.264A.928.928,0,0,0-8,9.5h.769a1.474,1.474,0,0,1-.281.778,1.852,1.852,0,0,1-.692.589,2,2,0,0,1-.916.22,1.959,1.959,0,0,1-1.545-.648,2.582,2.582,0,0,1-.573-1.773V8.53A2.863,2.863,0,0,1-10.986,7.3a1.941,1.941,0,0,1,.732-.839,2.078,2.078,0,0,1,1.127-.3A1.907,1.907,0,0,1-7.8,6.636,1.712,1.712,0,0,1-7.233,7.88H-8a1.12,1.12,0,0,0-.349-.758,1.087,1.087,0,0,0-.776-.3,1.138,1.138,0,0,0-.96.446,2.1,2.1,0,0,0-.341,1.29v.154A2.053,2.053,0,0,0-10.09,9.98,1.143,1.143,0,0,0-9.123,10.424ZM-3.384,11a1.708,1.708,0,0,1-.114-.5,1.814,1.814,0,0,1-1.354.589,1.678,1.678,0,0,1-1.154-.4,1.287,1.287,0,0,1-.45-1.009,1.344,1.344,0,0,1,.565-1.154A2.662,2.662,0,0,1-4.3,8.117h.791V7.744a.913.913,0,0,0-.255-.679,1.024,1.024,0,0,0-.751-.253,1.185,1.185,0,0,0-.729.22.647.647,0,0,0-.294.532h-.817a1.122,1.122,0,0,1,.253-.688,1.725,1.725,0,0,1,.686-.525,2.306,2.306,0,0,1,.951-.193,1.88,1.88,0,0,1,1.288.411A1.482,1.482,0,0,1-2.7,7.7V9.888a2.676,2.676,0,0,0,.167,1.042V11Zm-1.349-.62a1.429,1.429,0,0,0,.725-.2,1.2,1.2,0,0,0,.5-.514V8.693h-.637q-1.494,0-1.494.875a.74.74,0,0,0,.255.6A.98.98,0,0,0-4.733,10.38ZM-.541,11h-.813V4.25h.813Zm5.5.088a2.078,2.078,0,0,1-1.573-.635,2.357,2.357,0,0,1-.606-1.7V8.6a2.853,2.853,0,0,1,.27-1.263,2.108,2.108,0,0,1,.756-.87A1.9,1.9,0,0,1,4.86,6.157,1.781,1.781,0,0,1,6.3,6.768a2.645,2.645,0,0,1,.514,1.749v.338H3.595a1.69,1.69,0,0,0,.411,1.136,1.292,1.292,0,0,0,1,.433,1.416,1.416,0,0,0,.729-.176,1.833,1.833,0,0,0,.523-.466l.5.387A2,2,0,0,1,4.961,11.088Zm-.1-4.263a1.084,1.084,0,0,0-.826.358,1.741,1.741,0,0,0-.413,1H6V8.126a1.548,1.548,0,0,0-.334-.96A1.021,1.021,0,0,0,4.86,6.825ZM9.268,9.9l1.178-3.652h.831L9.571,11h-.62L7.229,6.245H8.06Zm4.707,1.191a2.078,2.078,0,0,1-1.573-.635,2.357,2.357,0,0,1-.606-1.7V8.6a2.853,2.853,0,0,1,.27-1.263,2.108,2.108,0,0,1,.756-.87,1.9,1.9,0,0,1,1.052-.314,1.781,1.781,0,0,1,1.441.611,2.645,2.645,0,0,1,.514,1.749v.338H12.608a1.69,1.69,0,0,0,.411,1.136,1.292,1.292,0,0,0,1,.433,1.416,1.416,0,0,0,.729-.176,1.833,1.833,0,0,0,.523-.466l.5.387A2,2,0,0,1,13.975,11.088Zm-.1-4.263a1.084,1.084,0,0,0-.826.358,1.741,1.741,0,0,0-.413,1h2.382V8.126a1.548,1.548,0,0,0-.334-.96A1.021,1.021,0,0,0,13.874,6.825Zm3.665-.58.026.6a1.733,1.733,0,0,1,1.424-.686q1.507,0,1.521,1.7V11H19.7V7.854a1.1,1.1,0,0,0-.235-.76.942.942,0,0,0-.719-.246,1.173,1.173,0,0,0-.694.211,1.432,1.432,0,0,0-.466.554V11H16.77V6.245Zm5.3-1.151V6.245h.888v.628h-.888V9.826a.66.66,0,0,0,.119.429.5.5,0,0,0,.4.143,1.968,1.968,0,0,0,.387-.053V11a2.371,2.371,0,0,1-.624.087,1.012,1.012,0,0,1-.822-.33,1.416,1.416,0,0,1-.277-.936V6.874H21.16V6.245h.866V5.094Zm1.534,3.485a2.808,2.808,0,0,1,.275-1.257,2.049,2.049,0,0,1,.765-.861,2.081,2.081,0,0,1,1.118-.3A2.005,2.005,0,0,1,28.1,6.83a2.587,2.587,0,0,1,.6,1.789v.057a2.833,2.833,0,0,1-.266,1.246,2.019,2.019,0,0,1-.76.859,2.105,2.105,0,0,1-1.136.308,2,2,0,0,1-1.567-.672,2.574,2.574,0,0,1-.6-1.78Zm.817.1a2.034,2.034,0,0,0,.367,1.27,1.243,1.243,0,0,0,1.967-.007,2.224,2.224,0,0,0,.365-1.36,2.031,2.031,0,0,0-.371-1.268,1.181,1.181,0,0,0-.987-.486,1.167,1.167,0,0,0-.971.479A2.208,2.208,0,0,0,25.189,8.675Z" transform="translate(1005.042 2171.486)" fill="#fff"/>
    <path id="Trazado_192231" data-name="Trazado 192231" d="M-30.139-1.8A2.093,2.093,0,0,1-30.8-.412a2.183,2.183,0,0,1-1.49.49A2,2,0,0,1-33.91-.645a2.907,2.907,0,0,1-.607-1.934v-.547a3.241,3.241,0,0,1,.283-1.395,2.115,2.115,0,0,1,.8-.924,2.235,2.235,0,0,1,1.2-.322,2.055,2.055,0,0,1,1.453.506,2.118,2.118,0,0,1,.637,1.4h-.754a1.634,1.634,0,0,0-.424-.987,1.282,1.282,0,0,0-.912-.306,1.342,1.342,0,0,0-1.127.532,2.441,2.441,0,0,0-.408,1.513v.551a2.509,2.509,0,0,0,.387,1.474,1.25,1.25,0,0,0,1.082.547,1.443,1.443,0,0,0,.959-.283,1.572,1.572,0,0,0,.443-.986Zm.719-.348a2.5,2.5,0,0,1,.244-1.117,1.821,1.821,0,0,1,.68-.766A1.85,1.85,0,0,1-27.5-4.3a1.782,1.782,0,0,1,1.4.6,2.3,2.3,0,0,1,.533,1.59v.051a2.518,2.518,0,0,1-.236,1.107,1.794,1.794,0,0,1-.676.764,1.871,1.871,0,0,1-1.01.273,1.778,1.778,0,0,1-1.393-.6A2.288,2.288,0,0,1-29.42-2.1Zm.727.086a1.808,1.808,0,0,0,.326,1.129,1.044,1.044,0,0,0,.873.426,1.038,1.038,0,0,0,.875-.432,1.977,1.977,0,0,0,.324-1.209,1.805,1.805,0,0,0-.33-1.127,1.049,1.049,0,0,0-.877-.432,1.038,1.038,0,0,0-.863.426A1.963,1.963,0,0,0-28.693-2.066Zm3.836-.086a2.5,2.5,0,0,1,.244-1.117,1.821,1.821,0,0,1,.68-.766,1.85,1.85,0,0,1,.994-.27,1.782,1.782,0,0,1,1.4.6,2.3,2.3,0,0,1,.533,1.59v.051a2.518,2.518,0,0,1-.236,1.107,1.794,1.794,0,0,1-.676.764,1.871,1.871,0,0,1-1.01.273,1.778,1.778,0,0,1-1.393-.6A2.288,2.288,0,0,1-24.857-2.1Zm.727.086A1.808,1.808,0,0,0-23.8-.937a1.044,1.044,0,0,0,.873.426,1.038,1.038,0,0,0,.875-.432,1.977,1.977,0,0,0,.324-1.209,1.805,1.805,0,0,0-.33-1.127,1.049,1.049,0,0,0-.877-.432,1.038,1.038,0,0,0-.863.426A1.963,1.963,0,0,0-24.131-2.066Zm6.07-1.512a2.166,2.166,0,0,0-.355-.027A.952.952,0,0,0-19.381-3V0H-20.1V-4.227h.7l.012.488A1.125,1.125,0,0,1-18.381-4.3a.738.738,0,0,1,.32.055Zm.414,1.43a2.476,2.476,0,0,1,.461-1.564A1.458,1.458,0,0,1-15.979-4.3,1.466,1.466,0,0,1-14.8-3.8V-6h.723V0h-.664l-.035-.453a1.472,1.472,0,0,1-1.207.531,1.444,1.444,0,0,1-1.2-.6,2.5,2.5,0,0,1-.463-1.57Zm.723.082a1.875,1.875,0,0,0,.3,1.125.96.96,0,0,0,.82.406,1.054,1.054,0,0,0,1-.617V-3.094a1.062,1.062,0,0,0-1-.6.964.964,0,0,0-.828.41A2.064,2.064,0,0,0-16.924-2.066ZM-12.174,0H-12.9V-4.227h.723Zm-.781-5.348a.431.431,0,0,1,.107-.3.4.4,0,0,1,.318-.121.41.41,0,0,1,.32.121.427.427,0,0,1,.109.3.413.413,0,0,1-.109.293.417.417,0,0,1-.32.117.411.411,0,0,1-.318-.117A.417.417,0,0,1-12.955-5.348Zm2.621,1.121.023.531A1.54,1.54,0,0,1-9.045-4.3q1.34,0,1.352,1.512V0h-.723V-2.8a.973.973,0,0,0-.209-.676.837.837,0,0,0-.639-.219,1.043,1.043,0,0,0-.617.188,1.273,1.273,0,0,0-.414.492V0h-.723V-4.227ZM-3.994,0a1.518,1.518,0,0,1-.1-.445A1.612,1.612,0,0,1-5.3.078,1.492,1.492,0,0,1-6.324-.275a1.144,1.144,0,0,1-.4-.9,1.2,1.2,0,0,1,.5-1.025,2.367,2.367,0,0,1,1.412-.365h.7v-.332a.812.812,0,0,0-.227-.6A.911.911,0,0,0-5-3.723a1.054,1.054,0,0,0-.648.2.576.576,0,0,0-.262.473h-.727a1,1,0,0,1,.225-.611A1.533,1.533,0,0,1-5.8-4.133,2.05,2.05,0,0,1-4.959-4.3a1.671,1.671,0,0,1,1.145.365,1.318,1.318,0,0,1,.43,1.006V-.988a2.378,2.378,0,0,0,.148.926V0Zm-1.2-.551a1.27,1.27,0,0,0,.645-.176,1.063,1.063,0,0,0,.441-.457v-.867h-.566Q-6-2.051-6-1.273a.658.658,0,0,0,.227.531A.871.871,0,0,0-5.193-.551Zm2.766-1.6a2.476,2.476,0,0,1,.461-1.564A1.458,1.458,0,0,1-.76-4.3,1.466,1.466,0,0,1,.416-3.8V-6h.723V0H.475L.439-.453A1.472,1.472,0,0,1-.768.078a1.444,1.444,0,0,1-1.2-.6,2.5,2.5,0,0,1-.463-1.57Zm.723.082a1.875,1.875,0,0,0,.3,1.125.96.96,0,0,0,.82.406,1.054,1.054,0,0,0,1-.617V-3.094a1.062,1.062,0,0,0-1-.6.964.964,0,0,0-.828.41A2.064,2.064,0,0,0-1.705-2.066Zm3.773-.086A2.5,2.5,0,0,1,2.313-3.27a1.821,1.821,0,0,1,.68-.766,1.85,1.85,0,0,1,.994-.27,1.782,1.782,0,0,1,1.4.6,2.3,2.3,0,0,1,.533,1.59v.051A2.518,2.518,0,0,1,5.68-.959,1.794,1.794,0,0,1,5-.2a1.871,1.871,0,0,1-1.01.273A1.778,1.778,0,0,1,2.6-.52,2.288,2.288,0,0,1,2.068-2.1Zm.727.086A1.808,1.808,0,0,0,3.121-.937a1.044,1.044,0,0,0,.873.426,1.038,1.038,0,0,0,.875-.432,1.977,1.977,0,0,0,.324-1.209,1.805,1.805,0,0,0-.33-1.127,1.049,1.049,0,0,0-.877-.432,1.038,1.038,0,0,0-.863.426A1.963,1.963,0,0,0,2.795-2.066Zm6.07-1.512a2.166,2.166,0,0,0-.355-.027A.952.952,0,0,0,7.545-3V0H6.822V-4.227h.7l.012.488A1.125,1.125,0,0,1,8.545-4.3a.738.738,0,0,1,.32.055Zm5.973.949H12.373V-.613h2.863V0H11.623V-5.687H15.2v.613H12.373v1.832h2.465ZM17.35-.98,18.4-4.227h.738L17.619,0h-.551L15.537-4.227h.738ZM21.533.078a1.847,1.847,0,0,1-1.4-.564A2.1,2.1,0,0,1,19.6-2v-.133a2.536,2.536,0,0,1,.24-1.123,1.874,1.874,0,0,1,.672-.773,1.689,1.689,0,0,1,.936-.279,1.583,1.583,0,0,1,1.281.543,2.351,2.351,0,0,1,.457,1.555v.3H20.318A1.5,1.5,0,0,0,20.684-.9a1.148,1.148,0,0,0,.889.385,1.259,1.259,0,0,0,.648-.156,1.629,1.629,0,0,0,.465-.414l.441.344A1.775,1.775,0,0,1,21.533.078Zm-.09-3.789a.964.964,0,0,0-.734.318,1.547,1.547,0,0,0-.367.893h2.117v-.055a1.376,1.376,0,0,0-.3-.854A.908.908,0,0,0,21.443-3.711ZM24.7-4.227l.023.531A1.54,1.54,0,0,1,25.99-4.3q1.34,0,1.352,1.512V0h-.723V-2.8a.973.973,0,0,0-.209-.676.837.837,0,0,0-.639-.219,1.043,1.043,0,0,0-.617.188,1.273,1.273,0,0,0-.414.492V0h-.723V-4.227ZM29.412-5.25v1.023H30.2v.559h-.789v2.624a.587.587,0,0,0,.105.381.444.444,0,0,0,.359.127,1.75,1.75,0,0,0,.344-.047V0a2.107,2.107,0,0,1-.555.078.9.9,0,0,1-.73-.293,1.259,1.259,0,0,1-.246-.832V-3.668h-.77v-.559h.77V-5.25Zm1.363,3.1A2.5,2.5,0,0,1,31.02-3.27a1.821,1.821,0,0,1,.68-.766,1.85,1.85,0,0,1,.994-.27,1.782,1.782,0,0,1,1.4.6,2.3,2.3,0,0,1,.533,1.59v.051a2.518,2.518,0,0,1-.236,1.107,1.794,1.794,0,0,1-.676.764A1.871,1.871,0,0,1,32.7.078a1.778,1.778,0,0,1-1.393-.6A2.288,2.288,0,0,1,30.775-2.1Zm.727.086a1.808,1.808,0,0,0,.326,1.129,1.044,1.044,0,0,0,.873.426,1.038,1.038,0,0,0,.875-.432A1.977,1.977,0,0,0,33.9-2.152a1.805,1.805,0,0,0-.33-1.127,1.049,1.049,0,0,0-.877-.432,1.038,1.038,0,0,0-.863.426A1.963,1.963,0,0,0,31.5-2.066Z" transform="translate(1000.759 2230.711)"/>
    <path id="Trazado_192232" data-name="Trazado 192232" d="M-12.577-2.03a2.354,2.354,0,0,1-.749,1.567A2.456,2.456,0,0,1-15,.088,2.255,2.255,0,0,1-16.82-.725,3.271,3.271,0,0,1-17.5-2.9v-.615a3.646,3.646,0,0,1,.319-1.569,2.38,2.38,0,0,1,.9-1.039,2.514,2.514,0,0,1,1.354-.363,2.312,2.312,0,0,1,1.635.569,2.382,2.382,0,0,1,.716,1.575h-.848A1.838,1.838,0,0,0-13.9-5.453,1.443,1.443,0,0,0-14.928-5.8a1.51,1.51,0,0,0-1.268.6,2.746,2.746,0,0,0-.459,1.7v.62a2.823,2.823,0,0,0,.435,1.658A1.406,1.406,0,0,0-15-.6a1.624,1.624,0,0,0,1.079-.319,1.768,1.768,0,0,0,.5-1.11Zm.809-.391a2.808,2.808,0,0,1,.275-1.257,2.049,2.049,0,0,1,.765-.861,2.081,2.081,0,0,1,1.118-.3A2.005,2.005,0,0,1-8.04-4.17a2.587,2.587,0,0,1,.6,1.789v.057a2.833,2.833,0,0,1-.266,1.246,2.019,2.019,0,0,1-.76.859A2.105,2.105,0,0,1-9.6.088a2,2,0,0,1-1.567-.672,2.574,2.574,0,0,1-.6-1.78Zm.817.1a2.034,2.034,0,0,0,.367,1.27A1.174,1.174,0,0,0-9.6-.576a1.167,1.167,0,0,0,.984-.486,2.224,2.224,0,0,0,.365-1.36,2.031,2.031,0,0,0-.371-1.268,1.181,1.181,0,0,0-.987-.486,1.167,1.167,0,0,0-.971.479A2.208,2.208,0,0,0-10.951-2.325Zm5.3-2.43.022.527a1.756,1.756,0,0,1,1.411-.615,1.359,1.359,0,0,1,1.358.765,1.8,1.8,0,0,1,.617-.554,1.824,1.824,0,0,1,.9-.211q1.564,0,1.591,1.657V0H-.571V-3.138A1.092,1.092,0,0,0-.8-3.9a1.026,1.026,0,0,0-.782-.253,1.078,1.078,0,0,0-.751.27,1.1,1.1,0,0,0-.347.727V0H-3.5V-3.116A.907.907,0,0,0-4.518-4.153a1.088,1.088,0,0,0-1.094.681V0h-.813V-4.755ZM2.351,0H1.538V-4.755h.813ZM1.472-6.016a.485.485,0,0,1,.121-.334.454.454,0,0,1,.358-.136.461.461,0,0,1,.36.136.48.48,0,0,1,.123.334.464.464,0,0,1-.123.33.469.469,0,0,1-.36.132.462.462,0,0,1-.358-.132A.469.469,0,0,1,1.472-6.016Zm3.283.11v1.151h.888v.628H4.755v2.952a.66.66,0,0,0,.119.429.5.5,0,0,0,.4.143,1.968,1.968,0,0,0,.387-.053V0a2.371,2.371,0,0,1-.624.087,1.012,1.012,0,0,1-.822-.33,1.416,1.416,0,0,1-.277-.936V-4.126H3.076v-.628h.866V-5.906ZM8.565.088A2.078,2.078,0,0,1,6.992-.547a2.357,2.357,0,0,1-.606-1.7V-2.4a2.853,2.853,0,0,1,.27-1.263,2.108,2.108,0,0,1,.756-.87,1.9,1.9,0,0,1,1.052-.314,1.781,1.781,0,0,1,1.441.611,2.645,2.645,0,0,1,.514,1.749v.338H7.2a1.69,1.69,0,0,0,.411,1.136,1.292,1.292,0,0,0,1,.433,1.416,1.416,0,0,0,.729-.176,1.833,1.833,0,0,0,.523-.466l.5.387A2,2,0,0,1,8.565.088Zm-.1-4.263a1.084,1.084,0,0,0-.826.358,1.741,1.741,0,0,0-.413,1H9.606v-.062a1.548,1.548,0,0,0-.334-.96A1.021,1.021,0,0,0,8.464-4.175Zm.4-2.566h.984L8.666-5.449l-.655,0ZM16.176,0h-.817V-5.418l-1.639.6v-.738l2.329-.875h.127Z" transform="translate(798.516 2302.777)"/>
    <path id="Trazado_192233" data-name="Trazado 192233" d="M-18.406-6.4l2.092,5.221L-14.223-6.4h1.094V0h-.844V-2.492l.079-2.689L-15.994,0h-.646l-2.1-5.168.083,2.676V0H-19.5V-6.4ZM-10.883,0H-11.7V-4.755h.813Zm-.879-6.016a.485.485,0,0,1,.121-.334.454.454,0,0,1,.358-.136.461.461,0,0,1,.36.136.48.48,0,0,1,.123.334.464.464,0,0,1-.123.33.469.469,0,0,1-.36.132.462.462,0,0,1-.358-.132A.469.469,0,0,1-11.762-6.016Zm4.153,6.1A2.078,2.078,0,0,1-9.182-.547a2.357,2.357,0,0,1-.606-1.7V-2.4a2.853,2.853,0,0,1,.27-1.263,2.108,2.108,0,0,1,.756-.87A1.9,1.9,0,0,1-7.71-4.843a1.781,1.781,0,0,1,1.441.611,2.645,2.645,0,0,1,.514,1.749v.338H-8.976a1.69,1.69,0,0,0,.411,1.136,1.292,1.292,0,0,0,1,.433,1.416,1.416,0,0,0,.729-.176,1.833,1.833,0,0,0,.523-.466l.5.387A2,2,0,0,1-7.609.088Zm-.1-4.263a1.084,1.084,0,0,0-.826.358,1.741,1.741,0,0,0-.413,1h2.382v-.062a1.548,1.548,0,0,0-.334-.96A1.021,1.021,0,0,0-7.71-4.175Zm3.661-.58.022.527a1.756,1.756,0,0,1,1.411-.615,1.359,1.359,0,0,1,1.358.765,1.8,1.8,0,0,1,.617-.554,1.824,1.824,0,0,1,.9-.211q1.564,0,1.591,1.657V0H1.035V-3.138A1.092,1.092,0,0,0,.8-3.9,1.026,1.026,0,0,0,.02-4.153a1.078,1.078,0,0,0-.751.27,1.1,1.1,0,0,0-.347.727V0H-1.9V-3.116A.907.907,0,0,0-2.911-4.153a1.088,1.088,0,0,0-1.094.681V0h-.813V-4.755ZM7.1-2.325A2.827,2.827,0,0,1,6.6-.573,1.6,1.6,0,0,1,5.254.088,1.658,1.658,0,0,1,3.861-.549L3.821,0H3.074V-6.75h.813v2.518a1.648,1.648,0,0,1,1.358-.611,1.61,1.61,0,0,1,1.36.655A2.912,2.912,0,0,1,7.1-2.4Zm-.813-.092A2.2,2.2,0,0,0,5.966-3.7a1.062,1.062,0,0,0-.923-.453,1.194,1.194,0,0,0-1.156.747v2.057A1.227,1.227,0,0,0,5.052-.6a1.056,1.056,0,0,0,.91-.453A2.336,2.336,0,0,0,6.286-2.417Zm4.135-1.608a2.436,2.436,0,0,0-.4-.031,1.071,1.071,0,0,0-1.085.681V0H8.123V-4.755h.791l.013.549a1.266,1.266,0,0,1,1.134-.637.831.831,0,0,1,.36.062Zm.444,1.6a2.808,2.808,0,0,1,.275-1.257A2.049,2.049,0,0,1,11.9-4.54a2.081,2.081,0,0,1,1.118-.3,2.005,2.005,0,0,1,1.571.672,2.587,2.587,0,0,1,.6,1.789v.057a2.833,2.833,0,0,1-.266,1.246,2.019,2.019,0,0,1-.76.859,2.105,2.105,0,0,1-1.136.308,2,2,0,0,1-1.567-.672,2.574,2.574,0,0,1-.6-1.78Zm.817.1a2.034,2.034,0,0,0,.367,1.27,1.174,1.174,0,0,0,.982.479,1.167,1.167,0,0,0,.984-.486,2.224,2.224,0,0,0,.365-1.36,2.031,2.031,0,0,0-.371-1.268,1.181,1.181,0,0,0-.987-.486,1.167,1.167,0,0,0-.971.479A2.208,2.208,0,0,0,11.683-2.325Zm7.3,1.063a.6.6,0,0,0-.248-.512,2.39,2.39,0,0,0-.866-.314,4.093,4.093,0,0,1-.98-.316,1.394,1.394,0,0,1-.536-.439,1.051,1.051,0,0,1-.174-.606,1.233,1.233,0,0,1,.494-.989,1.931,1.931,0,0,1,1.263-.4,1.987,1.987,0,0,1,1.312.417,1.326,1.326,0,0,1,.5,1.068h-.817a.734.734,0,0,0-.283-.576,1.062,1.062,0,0,0-.714-.242,1.111,1.111,0,0,0-.694.193.609.609,0,0,0-.25.505.493.493,0,0,0,.233.444,2.866,2.866,0,0,0,.842.286,4.385,4.385,0,0,1,.987.325,1.439,1.439,0,0,1,.56.455,1.118,1.118,0,0,1,.182.648A1.217,1.217,0,0,1,19.285-.3a2.138,2.138,0,0,1-1.323.385,2.394,2.394,0,0,1-1.011-.2,1.644,1.644,0,0,1-.688-.565,1.361,1.361,0,0,1-.248-.784h.813a.842.842,0,0,0,.327.648,1.27,1.27,0,0,0,.806.24,1.311,1.311,0,0,0,.74-.187A.574.574,0,0,0,18.982-1.261Z" transform="translate(796.595 2364.104)"/>
    <path id="Trazado_192234" data-name="Trazado 192234" d="M-18.406-6.4l2.092,5.221L-14.223-6.4h1.094V0h-.844V-2.492l.079-2.689L-15.994,0h-.646l-2.1-5.168.083,2.676V0H-19.5V-6.4ZM-10.883,0H-11.7V-4.755h.813Zm-.879-6.016a.485.485,0,0,1,.121-.334.454.454,0,0,1,.358-.136.461.461,0,0,1,.36.136.48.48,0,0,1,.123.334.464.464,0,0,1-.123.33.469.469,0,0,1-.36.132.462.462,0,0,1-.358-.132A.469.469,0,0,1-11.762-6.016Zm4.153,6.1A2.078,2.078,0,0,1-9.182-.547a2.357,2.357,0,0,1-.606-1.7V-2.4a2.853,2.853,0,0,1,.27-1.263,2.108,2.108,0,0,1,.756-.87A1.9,1.9,0,0,1-7.71-4.843a1.781,1.781,0,0,1,1.441.611,2.645,2.645,0,0,1,.514,1.749v.338H-8.976a1.69,1.69,0,0,0,.411,1.136,1.292,1.292,0,0,0,1,.433,1.416,1.416,0,0,0,.729-.176,1.833,1.833,0,0,0,.523-.466l.5.387A2,2,0,0,1-7.609.088Zm-.1-4.263a1.084,1.084,0,0,0-.826.358,1.741,1.741,0,0,0-.413,1h2.382v-.062a1.548,1.548,0,0,0-.334-.96A1.021,1.021,0,0,0-7.71-4.175Zm3.661-.58.022.527a1.756,1.756,0,0,1,1.411-.615,1.359,1.359,0,0,1,1.358.765,1.8,1.8,0,0,1,.617-.554,1.824,1.824,0,0,1,.9-.211q1.564,0,1.591,1.657V0H1.035V-3.138A1.092,1.092,0,0,0,.8-3.9,1.026,1.026,0,0,0,.02-4.153a1.078,1.078,0,0,0-.751.27,1.1,1.1,0,0,0-.347.727V0H-1.9V-3.116A.907.907,0,0,0-2.911-4.153a1.088,1.088,0,0,0-1.094.681V0h-.813V-4.755ZM7.1-2.325A2.827,2.827,0,0,1,6.6-.573,1.6,1.6,0,0,1,5.254.088,1.658,1.658,0,0,1,3.861-.549L3.821,0H3.074V-6.75h.813v2.518a1.648,1.648,0,0,1,1.358-.611,1.61,1.61,0,0,1,1.36.655A2.912,2.912,0,0,1,7.1-2.4Zm-.813-.092A2.2,2.2,0,0,0,5.966-3.7a1.062,1.062,0,0,0-.923-.453,1.194,1.194,0,0,0-1.156.747v2.057A1.227,1.227,0,0,0,5.052-.6a1.056,1.056,0,0,0,.91-.453A2.336,2.336,0,0,0,6.286-2.417Zm4.135-1.608a2.436,2.436,0,0,0-.4-.031,1.071,1.071,0,0,0-1.085.681V0H8.123V-4.755h.791l.013.549a1.266,1.266,0,0,1,1.134-.637.831.831,0,0,1,.36.062Zm.444,1.6a2.808,2.808,0,0,1,.275-1.257A2.049,2.049,0,0,1,11.9-4.54a2.081,2.081,0,0,1,1.118-.3,2.005,2.005,0,0,1,1.571.672,2.587,2.587,0,0,1,.6,1.789v.057a2.833,2.833,0,0,1-.266,1.246,2.019,2.019,0,0,1-.76.859,2.105,2.105,0,0,1-1.136.308,2,2,0,0,1-1.567-.672,2.574,2.574,0,0,1-.6-1.78Zm.817.1a2.034,2.034,0,0,0,.367,1.27,1.174,1.174,0,0,0,.982.479,1.167,1.167,0,0,0,.984-.486,2.224,2.224,0,0,0,.365-1.36,2.031,2.031,0,0,0-.371-1.268,1.181,1.181,0,0,0-.987-.486,1.167,1.167,0,0,0-.971.479A2.208,2.208,0,0,0,11.683-2.325Zm7.3,1.063a.6.6,0,0,0-.248-.512,2.39,2.39,0,0,0-.866-.314,4.093,4.093,0,0,1-.98-.316,1.394,1.394,0,0,1-.536-.439,1.051,1.051,0,0,1-.174-.606,1.233,1.233,0,0,1,.494-.989,1.931,1.931,0,0,1,1.263-.4,1.987,1.987,0,0,1,1.312.417,1.326,1.326,0,0,1,.5,1.068h-.817a.734.734,0,0,0-.283-.576,1.062,1.062,0,0,0-.714-.242,1.111,1.111,0,0,0-.694.193.609.609,0,0,0-.25.505.493.493,0,0,0,.233.444,2.866,2.866,0,0,0,.842.286,4.385,4.385,0,0,1,.987.325,1.439,1.439,0,0,1,.56.455,1.118,1.118,0,0,1,.182.648A1.217,1.217,0,0,1,19.285-.3a2.138,2.138,0,0,1-1.323.385,2.394,2.394,0,0,1-1.011-.2,1.644,1.644,0,0,1-.688-.565,1.361,1.361,0,0,1-.248-.784h.813a.842.842,0,0,0,.327.648,1.27,1.27,0,0,0,.806.24,1.311,1.311,0,0,0,.74-.187A.574.574,0,0,0,18.982-1.261Z" transform="translate(935.892 2363.736)"/>
    <path id="Trazado_192235" data-name="Trazado 192235" d="M-18.406-6.4l2.092,5.221L-14.223-6.4h1.094V0h-.844V-2.492l.079-2.689L-15.994,0h-.646l-2.1-5.168.083,2.676V0H-19.5V-6.4ZM-10.883,0H-11.7V-4.755h.813Zm-.879-6.016a.485.485,0,0,1,.121-.334.454.454,0,0,1,.358-.136.461.461,0,0,1,.36.136.48.48,0,0,1,.123.334.464.464,0,0,1-.123.33.469.469,0,0,1-.36.132.462.462,0,0,1-.358-.132A.469.469,0,0,1-11.762-6.016Zm4.153,6.1A2.078,2.078,0,0,1-9.182-.547a2.357,2.357,0,0,1-.606-1.7V-2.4a2.853,2.853,0,0,1,.27-1.263,2.108,2.108,0,0,1,.756-.87A1.9,1.9,0,0,1-7.71-4.843a1.781,1.781,0,0,1,1.441.611,2.645,2.645,0,0,1,.514,1.749v.338H-8.976a1.69,1.69,0,0,0,.411,1.136,1.292,1.292,0,0,0,1,.433,1.416,1.416,0,0,0,.729-.176,1.833,1.833,0,0,0,.523-.466l.5.387A2,2,0,0,1-7.609.088Zm-.1-4.263a1.084,1.084,0,0,0-.826.358,1.741,1.741,0,0,0-.413,1h2.382v-.062a1.548,1.548,0,0,0-.334-.96A1.021,1.021,0,0,0-7.71-4.175Zm3.661-.58.022.527a1.756,1.756,0,0,1,1.411-.615,1.359,1.359,0,0,1,1.358.765,1.8,1.8,0,0,1,.617-.554,1.824,1.824,0,0,1,.9-.211q1.564,0,1.591,1.657V0H1.035V-3.138A1.092,1.092,0,0,0,.8-3.9,1.026,1.026,0,0,0,.02-4.153a1.078,1.078,0,0,0-.751.27,1.1,1.1,0,0,0-.347.727V0H-1.9V-3.116A.907.907,0,0,0-2.911-4.153a1.088,1.088,0,0,0-1.094.681V0h-.813V-4.755ZM7.1-2.325A2.827,2.827,0,0,1,6.6-.573,1.6,1.6,0,0,1,5.254.088,1.658,1.658,0,0,1,3.861-.549L3.821,0H3.074V-6.75h.813v2.518a1.648,1.648,0,0,1,1.358-.611,1.61,1.61,0,0,1,1.36.655A2.912,2.912,0,0,1,7.1-2.4Zm-.813-.092A2.2,2.2,0,0,0,5.966-3.7a1.062,1.062,0,0,0-.923-.453,1.194,1.194,0,0,0-1.156.747v2.057A1.227,1.227,0,0,0,5.052-.6a1.056,1.056,0,0,0,.91-.453A2.336,2.336,0,0,0,6.286-2.417Zm4.135-1.608a2.436,2.436,0,0,0-.4-.031,1.071,1.071,0,0,0-1.085.681V0H8.123V-4.755h.791l.013.549a1.266,1.266,0,0,1,1.134-.637.831.831,0,0,1,.36.062Zm.444,1.6a2.808,2.808,0,0,1,.275-1.257A2.049,2.049,0,0,1,11.9-4.54a2.081,2.081,0,0,1,1.118-.3,2.005,2.005,0,0,1,1.571.672,2.587,2.587,0,0,1,.6,1.789v.057a2.833,2.833,0,0,1-.266,1.246,2.019,2.019,0,0,1-.76.859,2.105,2.105,0,0,1-1.136.308,2,2,0,0,1-1.567-.672,2.574,2.574,0,0,1-.6-1.78Zm.817.1a2.034,2.034,0,0,0,.367,1.27,1.174,1.174,0,0,0,.982.479,1.167,1.167,0,0,0,.984-.486,2.224,2.224,0,0,0,.365-1.36,2.031,2.031,0,0,0-.371-1.268,1.181,1.181,0,0,0-.987-.486,1.167,1.167,0,0,0-.971.479A2.208,2.208,0,0,0,11.683-2.325Zm7.3,1.063a.6.6,0,0,0-.248-.512,2.39,2.39,0,0,0-.866-.314,4.093,4.093,0,0,1-.98-.316,1.394,1.394,0,0,1-.536-.439,1.051,1.051,0,0,1-.174-.606,1.233,1.233,0,0,1,.494-.989,1.931,1.931,0,0,1,1.263-.4,1.987,1.987,0,0,1,1.312.417,1.326,1.326,0,0,1,.5,1.068h-.817a.734.734,0,0,0-.283-.576,1.062,1.062,0,0,0-.714-.242,1.111,1.111,0,0,0-.694.193.609.609,0,0,0-.25.505.493.493,0,0,0,.233.444,2.866,2.866,0,0,0,.842.286,4.385,4.385,0,0,1,.987.325,1.439,1.439,0,0,1,.56.455,1.118,1.118,0,0,1,.182.648A1.217,1.217,0,0,1,19.285-.3a2.138,2.138,0,0,1-1.323.385,2.394,2.394,0,0,1-1.011-.2,1.644,1.644,0,0,1-.688-.565,1.361,1.361,0,0,1-.248-.784h.813a.842.842,0,0,0,.327.648,1.27,1.27,0,0,0,.806.24,1.311,1.311,0,0,0,.74-.187A.574.574,0,0,0,18.982-1.261Z" transform="translate(1075.681 2363.736)"/>
    <path id="Trazado_192236" data-name="Trazado 192236" d="M-18.406-6.4l2.092,5.221L-14.223-6.4h1.094V0h-.844V-2.492l.079-2.689L-15.994,0h-.646l-2.1-5.168.083,2.676V0H-19.5V-6.4ZM-10.883,0H-11.7V-4.755h.813Zm-.879-6.016a.485.485,0,0,1,.121-.334.454.454,0,0,1,.358-.136.461.461,0,0,1,.36.136.48.48,0,0,1,.123.334.464.464,0,0,1-.123.33.469.469,0,0,1-.36.132.462.462,0,0,1-.358-.132A.469.469,0,0,1-11.762-6.016Zm4.153,6.1A2.078,2.078,0,0,1-9.182-.547a2.357,2.357,0,0,1-.606-1.7V-2.4a2.853,2.853,0,0,1,.27-1.263,2.108,2.108,0,0,1,.756-.87A1.9,1.9,0,0,1-7.71-4.843a1.781,1.781,0,0,1,1.441.611,2.645,2.645,0,0,1,.514,1.749v.338H-8.976a1.69,1.69,0,0,0,.411,1.136,1.292,1.292,0,0,0,1,.433,1.416,1.416,0,0,0,.729-.176,1.833,1.833,0,0,0,.523-.466l.5.387A2,2,0,0,1-7.609.088Zm-.1-4.263a1.084,1.084,0,0,0-.826.358,1.741,1.741,0,0,0-.413,1h2.382v-.062a1.548,1.548,0,0,0-.334-.96A1.021,1.021,0,0,0-7.71-4.175Zm3.661-.58.022.527a1.756,1.756,0,0,1,1.411-.615,1.359,1.359,0,0,1,1.358.765,1.8,1.8,0,0,1,.617-.554,1.824,1.824,0,0,1,.9-.211q1.564,0,1.591,1.657V0H1.035V-3.138A1.092,1.092,0,0,0,.8-3.9,1.026,1.026,0,0,0,.02-4.153a1.078,1.078,0,0,0-.751.27,1.1,1.1,0,0,0-.347.727V0H-1.9V-3.116A.907.907,0,0,0-2.911-4.153a1.088,1.088,0,0,0-1.094.681V0h-.813V-4.755ZM7.1-2.325A2.827,2.827,0,0,1,6.6-.573,1.6,1.6,0,0,1,5.254.088,1.658,1.658,0,0,1,3.861-.549L3.821,0H3.074V-6.75h.813v2.518a1.648,1.648,0,0,1,1.358-.611,1.61,1.61,0,0,1,1.36.655A2.912,2.912,0,0,1,7.1-2.4Zm-.813-.092A2.2,2.2,0,0,0,5.966-3.7a1.062,1.062,0,0,0-.923-.453,1.194,1.194,0,0,0-1.156.747v2.057A1.227,1.227,0,0,0,5.052-.6a1.056,1.056,0,0,0,.91-.453A2.336,2.336,0,0,0,6.286-2.417Zm4.135-1.608a2.436,2.436,0,0,0-.4-.031,1.071,1.071,0,0,0-1.085.681V0H8.123V-4.755h.791l.013.549a1.266,1.266,0,0,1,1.134-.637.831.831,0,0,1,.36.062Zm.444,1.6a2.808,2.808,0,0,1,.275-1.257A2.049,2.049,0,0,1,11.9-4.54a2.081,2.081,0,0,1,1.118-.3,2.005,2.005,0,0,1,1.571.672,2.587,2.587,0,0,1,.6,1.789v.057a2.833,2.833,0,0,1-.266,1.246,2.019,2.019,0,0,1-.76.859,2.105,2.105,0,0,1-1.136.308,2,2,0,0,1-1.567-.672,2.574,2.574,0,0,1-.6-1.78Zm.817.1a2.034,2.034,0,0,0,.367,1.27,1.174,1.174,0,0,0,.982.479,1.167,1.167,0,0,0,.984-.486,2.224,2.224,0,0,0,.365-1.36,2.031,2.031,0,0,0-.371-1.268,1.181,1.181,0,0,0-.987-.486,1.167,1.167,0,0,0-.971.479A2.208,2.208,0,0,0,11.683-2.325Zm7.3,1.063a.6.6,0,0,0-.248-.512,2.39,2.39,0,0,0-.866-.314,4.093,4.093,0,0,1-.98-.316,1.394,1.394,0,0,1-.536-.439,1.051,1.051,0,0,1-.174-.606,1.233,1.233,0,0,1,.494-.989,1.931,1.931,0,0,1,1.263-.4,1.987,1.987,0,0,1,1.312.417,1.326,1.326,0,0,1,.5,1.068h-.817a.734.734,0,0,0-.283-.576,1.062,1.062,0,0,0-.714-.242,1.111,1.111,0,0,0-.694.193.609.609,0,0,0-.25.505.493.493,0,0,0,.233.444,2.866,2.866,0,0,0,.842.286,4.385,4.385,0,0,1,.987.325,1.439,1.439,0,0,1,.56.455,1.118,1.118,0,0,1,.182.648A1.217,1.217,0,0,1,19.285-.3a2.138,2.138,0,0,1-1.323.385,2.394,2.394,0,0,1-1.011-.2,1.644,1.644,0,0,1-.688-.565,1.361,1.361,0,0,1-.248-.784h.813a.842.842,0,0,0,.327.648,1.27,1.27,0,0,0,.806.24,1.311,1.311,0,0,0,.74-.187A.574.574,0,0,0,18.982-1.261Z" transform="translate(1206.416 2363.736)"/>
    <path id="Trazado_192237" data-name="Trazado 192237" d="M-12.577-2.03a2.354,2.354,0,0,1-.749,1.567A2.456,2.456,0,0,1-15,.088,2.255,2.255,0,0,1-16.82-.725,3.271,3.271,0,0,1-17.5-2.9v-.615a3.646,3.646,0,0,1,.319-1.569,2.38,2.38,0,0,1,.9-1.039,2.514,2.514,0,0,1,1.354-.363,2.312,2.312,0,0,1,1.635.569,2.382,2.382,0,0,1,.716,1.575h-.848A1.838,1.838,0,0,0-13.9-5.453,1.443,1.443,0,0,0-14.928-5.8a1.51,1.51,0,0,0-1.268.6,2.746,2.746,0,0,0-.459,1.7v.62a2.823,2.823,0,0,0,.435,1.658A1.406,1.406,0,0,0-15-.6a1.624,1.624,0,0,0,1.079-.319,1.768,1.768,0,0,0,.5-1.11Zm.809-.391a2.808,2.808,0,0,1,.275-1.257,2.049,2.049,0,0,1,.765-.861,2.081,2.081,0,0,1,1.118-.3A2.005,2.005,0,0,1-8.04-4.17a2.587,2.587,0,0,1,.6,1.789v.057a2.833,2.833,0,0,1-.266,1.246,2.019,2.019,0,0,1-.76.859A2.105,2.105,0,0,1-9.6.088a2,2,0,0,1-1.567-.672,2.574,2.574,0,0,1-.6-1.78Zm.817.1a2.034,2.034,0,0,0,.367,1.27A1.174,1.174,0,0,0-9.6-.576a1.167,1.167,0,0,0,.984-.486,2.224,2.224,0,0,0,.365-1.36,2.031,2.031,0,0,0-.371-1.268,1.181,1.181,0,0,0-.987-.486,1.167,1.167,0,0,0-.971.479A2.208,2.208,0,0,0-10.951-2.325Zm5.3-2.43.022.527a1.756,1.756,0,0,1,1.411-.615,1.359,1.359,0,0,1,1.358.765,1.8,1.8,0,0,1,.617-.554,1.824,1.824,0,0,1,.9-.211q1.564,0,1.591,1.657V0H-.571V-3.138A1.092,1.092,0,0,0-.8-3.9a1.026,1.026,0,0,0-.782-.253,1.078,1.078,0,0,0-.751.27,1.1,1.1,0,0,0-.347.727V0H-3.5V-3.116A.907.907,0,0,0-4.518-4.153a1.088,1.088,0,0,0-1.094.681V0h-.813V-4.755ZM2.351,0H1.538V-4.755h.813ZM1.472-6.016a.485.485,0,0,1,.121-.334.454.454,0,0,1,.358-.136.461.461,0,0,1,.36.136.48.48,0,0,1,.123.334.464.464,0,0,1-.123.33.469.469,0,0,1-.36.132.462.462,0,0,1-.358-.132A.469.469,0,0,1,1.472-6.016Zm3.283.11v1.151h.888v.628H4.755v2.952a.66.66,0,0,0,.119.429.5.5,0,0,0,.4.143,1.968,1.968,0,0,0,.387-.053V0a2.371,2.371,0,0,1-.624.087,1.012,1.012,0,0,1-.822-.33,1.416,1.416,0,0,1-.277-.936V-4.126H3.076v-.628h.866V-5.906ZM8.565.088A2.078,2.078,0,0,1,6.992-.547a2.357,2.357,0,0,1-.606-1.7V-2.4a2.853,2.853,0,0,1,.27-1.263,2.108,2.108,0,0,1,.756-.87,1.9,1.9,0,0,1,1.052-.314,1.781,1.781,0,0,1,1.441.611,2.645,2.645,0,0,1,.514,1.749v.338H7.2a1.69,1.69,0,0,0,.411,1.136,1.292,1.292,0,0,0,1,.433,1.416,1.416,0,0,0,.729-.176,1.833,1.833,0,0,0,.523-.466l.5.387A2,2,0,0,1,8.565.088Zm-.1-4.263a1.084,1.084,0,0,0-.826.358,1.741,1.741,0,0,0-.413,1H9.606v-.062a1.548,1.548,0,0,0-.334-.96A1.021,1.021,0,0,0,8.464-4.175Zm.4-2.566h.984L8.666-5.449l-.655,0ZM17.7,0H13.5V-.584l2.215-2.461a5.262,5.262,0,0,0,.679-.907,1.515,1.515,0,0,0,.187-.723,1.148,1.148,0,0,0-.3-.822,1.06,1.06,0,0,0-.809-.321,1.256,1.256,0,0,0-.943.345,1.318,1.318,0,0,0-.336.96h-.813a1.887,1.887,0,0,1,.569-1.428,2.11,2.11,0,0,1,1.523-.545,2.027,2.027,0,0,1,1.411.468A1.6,1.6,0,0,1,17.4-4.772a3.66,3.66,0,0,1-1.2,2.25L14.484-.664H17.7Z" transform="translate(939.285 2302.777)"/>
    <path id="Trazado_192238" data-name="Trazado 192238" d="M-12.577-2.03a2.354,2.354,0,0,1-.749,1.567A2.456,2.456,0,0,1-15,.088,2.255,2.255,0,0,1-16.82-.725,3.271,3.271,0,0,1-17.5-2.9v-.615a3.646,3.646,0,0,1,.319-1.569,2.38,2.38,0,0,1,.9-1.039,2.514,2.514,0,0,1,1.354-.363,2.312,2.312,0,0,1,1.635.569,2.382,2.382,0,0,1,.716,1.575h-.848A1.838,1.838,0,0,0-13.9-5.453,1.443,1.443,0,0,0-14.928-5.8a1.51,1.51,0,0,0-1.268.6,2.746,2.746,0,0,0-.459,1.7v.62a2.823,2.823,0,0,0,.435,1.658A1.406,1.406,0,0,0-15-.6a1.624,1.624,0,0,0,1.079-.319,1.768,1.768,0,0,0,.5-1.11Zm.809-.391a2.808,2.808,0,0,1,.275-1.257,2.049,2.049,0,0,1,.765-.861,2.081,2.081,0,0,1,1.118-.3A2.005,2.005,0,0,1-8.04-4.17a2.587,2.587,0,0,1,.6,1.789v.057a2.833,2.833,0,0,1-.266,1.246,2.019,2.019,0,0,1-.76.859A2.105,2.105,0,0,1-9.6.088a2,2,0,0,1-1.567-.672,2.574,2.574,0,0,1-.6-1.78Zm.817.1a2.034,2.034,0,0,0,.367,1.27A1.174,1.174,0,0,0-9.6-.576a1.167,1.167,0,0,0,.984-.486,2.224,2.224,0,0,0,.365-1.36,2.031,2.031,0,0,0-.371-1.268,1.181,1.181,0,0,0-.987-.486,1.167,1.167,0,0,0-.971.479A2.208,2.208,0,0,0-10.951-2.325Zm5.3-2.43.022.527a1.756,1.756,0,0,1,1.411-.615,1.359,1.359,0,0,1,1.358.765,1.8,1.8,0,0,1,.617-.554,1.824,1.824,0,0,1,.9-.211q1.564,0,1.591,1.657V0H-.571V-3.138A1.092,1.092,0,0,0-.8-3.9a1.026,1.026,0,0,0-.782-.253,1.078,1.078,0,0,0-.751.27,1.1,1.1,0,0,0-.347.727V0H-3.5V-3.116A.907.907,0,0,0-4.518-4.153a1.088,1.088,0,0,0-1.094.681V0h-.813V-4.755ZM2.351,0H1.538V-4.755h.813ZM1.472-6.016a.485.485,0,0,1,.121-.334.454.454,0,0,1,.358-.136.461.461,0,0,1,.36.136.48.48,0,0,1,.123.334.464.464,0,0,1-.123.33.469.469,0,0,1-.36.132.462.462,0,0,1-.358-.132A.469.469,0,0,1,1.472-6.016Zm3.283.11v1.151h.888v.628H4.755v2.952a.66.66,0,0,0,.119.429.5.5,0,0,0,.4.143,1.968,1.968,0,0,0,.387-.053V0a2.371,2.371,0,0,1-.624.087,1.012,1.012,0,0,1-.822-.33,1.416,1.416,0,0,1-.277-.936V-4.126H3.076v-.628h.866V-5.906ZM8.565.088A2.078,2.078,0,0,1,6.992-.547a2.357,2.357,0,0,1-.606-1.7V-2.4a2.853,2.853,0,0,1,.27-1.263,2.108,2.108,0,0,1,.756-.87,1.9,1.9,0,0,1,1.052-.314,1.781,1.781,0,0,1,1.441.611,2.645,2.645,0,0,1,.514,1.749v.338H7.2a1.69,1.69,0,0,0,.411,1.136,1.292,1.292,0,0,0,1,.433,1.416,1.416,0,0,0,.729-.176,1.833,1.833,0,0,0,.523-.466l.5.387A2,2,0,0,1,8.565.088Zm-.1-4.263a1.084,1.084,0,0,0-.826.358,1.741,1.741,0,0,0-.413,1H9.606v-.062a1.548,1.548,0,0,0-.334-.96A1.021,1.021,0,0,0,8.464-4.175Zm.4-2.566h.984L8.666-5.449l-.655,0Zm5.827,3.146H15.3a1.343,1.343,0,0,0,.905-.3,1.013,1.013,0,0,0,.33-.8.992.992,0,0,0-1.121-1.125,1.166,1.166,0,0,0-.842.3,1.054,1.054,0,0,0-.314.8h-.813A1.632,1.632,0,0,1,14-5.983a2.025,2.025,0,0,1,1.413-.5,2,2,0,0,1,1.419.479,1.73,1.73,0,0,1,.514,1.332,1.4,1.4,0,0,1-.27.809,1.632,1.632,0,0,1-.736.584,1.572,1.572,0,0,1,.815.554,1.538,1.538,0,0,1,.288.945,1.745,1.745,0,0,1-.562,1.367,2.106,2.106,0,0,1-1.463.505A2.162,2.162,0,0,1,13.95-.4a1.618,1.618,0,0,1-.565-1.288H14.2a1.046,1.046,0,0,0,.33.809,1.254,1.254,0,0,0,.883.3,1.23,1.23,0,0,0,.9-.308,1.186,1.186,0,0,0,.312-.883,1.076,1.076,0,0,0-.343-.857,1.493,1.493,0,0,0-.989-.308h-.611Z" transform="translate(1078.095 2302.777)"/>
    <path id="Trazado_192239" data-name="Trazado 192239" d="M-12.577-2.03a2.354,2.354,0,0,1-.749,1.567A2.456,2.456,0,0,1-15,.088,2.255,2.255,0,0,1-16.82-.725,3.271,3.271,0,0,1-17.5-2.9v-.615a3.646,3.646,0,0,1,.319-1.569,2.38,2.38,0,0,1,.9-1.039,2.514,2.514,0,0,1,1.354-.363,2.312,2.312,0,0,1,1.635.569,2.382,2.382,0,0,1,.716,1.575h-.848A1.838,1.838,0,0,0-13.9-5.453,1.443,1.443,0,0,0-14.928-5.8a1.51,1.51,0,0,0-1.268.6,2.746,2.746,0,0,0-.459,1.7v.62a2.823,2.823,0,0,0,.435,1.658A1.406,1.406,0,0,0-15-.6a1.624,1.624,0,0,0,1.079-.319,1.768,1.768,0,0,0,.5-1.11Zm.809-.391a2.808,2.808,0,0,1,.275-1.257,2.049,2.049,0,0,1,.765-.861,2.081,2.081,0,0,1,1.118-.3A2.005,2.005,0,0,1-8.04-4.17a2.587,2.587,0,0,1,.6,1.789v.057a2.833,2.833,0,0,1-.266,1.246,2.019,2.019,0,0,1-.76.859A2.105,2.105,0,0,1-9.6.088a2,2,0,0,1-1.567-.672,2.574,2.574,0,0,1-.6-1.78Zm.817.1a2.034,2.034,0,0,0,.367,1.27A1.174,1.174,0,0,0-9.6-.576a1.167,1.167,0,0,0,.984-.486,2.224,2.224,0,0,0,.365-1.36,2.031,2.031,0,0,0-.371-1.268,1.181,1.181,0,0,0-.987-.486,1.167,1.167,0,0,0-.971.479A2.208,2.208,0,0,0-10.951-2.325Zm5.3-2.43.022.527a1.756,1.756,0,0,1,1.411-.615,1.359,1.359,0,0,1,1.358.765,1.8,1.8,0,0,1,.617-.554,1.824,1.824,0,0,1,.9-.211q1.564,0,1.591,1.657V0H-.571V-3.138A1.092,1.092,0,0,0-.8-3.9a1.026,1.026,0,0,0-.782-.253,1.078,1.078,0,0,0-.751.27,1.1,1.1,0,0,0-.347.727V0H-3.5V-3.116A.907.907,0,0,0-4.518-4.153a1.088,1.088,0,0,0-1.094.681V0h-.813V-4.755ZM2.351,0H1.538V-4.755h.813ZM1.472-6.016a.485.485,0,0,1,.121-.334.454.454,0,0,1,.358-.136.461.461,0,0,1,.36.136.48.48,0,0,1,.123.334.464.464,0,0,1-.123.33.469.469,0,0,1-.36.132.462.462,0,0,1-.358-.132A.469.469,0,0,1,1.472-6.016Zm3.283.11v1.151h.888v.628H4.755v2.952a.66.66,0,0,0,.119.429.5.5,0,0,0,.4.143,1.968,1.968,0,0,0,.387-.053V0a2.371,2.371,0,0,1-.624.087,1.012,1.012,0,0,1-.822-.33,1.416,1.416,0,0,1-.277-.936V-4.126H3.076v-.628h.866V-5.906ZM8.565.088A2.078,2.078,0,0,1,6.992-.547a2.357,2.357,0,0,1-.606-1.7V-2.4a2.853,2.853,0,0,1,.27-1.263,2.108,2.108,0,0,1,.756-.87,1.9,1.9,0,0,1,1.052-.314,1.781,1.781,0,0,1,1.441.611,2.645,2.645,0,0,1,.514,1.749v.338H7.2a1.69,1.69,0,0,0,.411,1.136,1.292,1.292,0,0,0,1,.433,1.416,1.416,0,0,0,.729-.176,1.833,1.833,0,0,0,.523-.466l.5.387A2,2,0,0,1,8.565.088Zm-.1-4.263a1.084,1.084,0,0,0-.826.358,1.741,1.741,0,0,0-.413,1H9.606v-.062a1.548,1.548,0,0,0-.334-.96A1.021,1.021,0,0,0,8.464-4.175Zm.4-2.566h.984L8.666-5.449l-.655,0Zm8.077,4.592h.888v.664h-.888V0h-.817V-1.485H13.206v-.479L16.071-6.4h.866Zm-2.808,0h1.991V-5.287l-.1.176Z" transform="translate(1217.885 2302.777)"/>
  </g>
</svg>
