<svg xmlns="http://www.w3.org/2000/svg" width="610" height="322" viewBox="0 0 610 322">
  <g id="Grupo_138316" data-name="Grupo 138316" transform="translate(1374 8936)">
    <path id="Trazado_192272" data-name="Trazado 192272" d="M10,0H600a10,10,0,0,1,10,10V312a10,10,0,0,1-10,10H10A10,10,0,0,1,0,312V10A10,10,0,0,1,10,0Z" transform="translate(-1374 -8936)" fill="#f8fbff"/>
    <path id="Trazado_189406" data-name="Trazado 189406" d="M291.779,99.559H81.321V308.422h422.51V97.964H294.968" transform="translate(-1361.598 -8977.898)" fill="none" stroke="#fedc72" stroke-miterlimit="10" stroke-width="1" fill-rule="evenodd"/>
    <path id="Trazado_192273" data-name="Trazado 192273" d="M0,0H422.51" transform="translate(-1278.682 -8777.894)" fill="none" stroke="#fedc72" stroke-width="1"/>
    <path id="Trazado_189407" data-name="Trazado 189407" d="M180.643,104.714V294.445l113.2-113.2L415.017,302.417" transform="translate(-1296.698 -8973.487)" fill="none" stroke="#fedc72" stroke-miterlimit="10" stroke-width="1" fill-rule="evenodd"/>
    <path id="Trazado_192274" data-name="Trazado 192274" d="M0,0V86.1" transform="translate(-1031.553 -8865.585)" fill="none" stroke="#fedc72" stroke-width="1"/>
    <path id="Trazado_192275" data-name="Trazado 192275" d="M2,0H122.007a2,2,0,0,1,2,2V37.682a2,2,0,0,1-2,2H2a2,2,0,0,1-2-2V2A2,2,0,0,1,2,0Z" transform="translate(-1135.542 -8896)" fill="#5038a1"/>
    <path id="Trazado_192276" data-name="Trazado 192276" d="M-18.018,0V-6.4h1.806a2.908,2.908,0,0,1,1.477.369,2.5,2.5,0,0,1,.991,1.05,3.419,3.419,0,0,1,.354,1.564v.409a3.431,3.431,0,0,1-.349,1.586,2.457,2.457,0,0,1-1,1.046A3.093,3.093,0,0,1-16.247,0Zm.844-5.708V-.69h.888A1.931,1.931,0,0,0-14.768-1.3a2.508,2.508,0,0,0,.543-1.729V-3.4a2.547,2.547,0,0,0-.512-1.7,1.822,1.822,0,0,0-1.452-.614ZM-11.36,0h-.813V-4.755h.813Zm-.879-6.016a.485.485,0,0,1,.121-.334.454.454,0,0,1,.358-.136.461.461,0,0,1,.36.136.48.48,0,0,1,.123.334.464.464,0,0,1-.123.33.469.469,0,0,1-.36.132.462.462,0,0,1-.358-.132A.469.469,0,0,1-12.239-6.016Zm4.478,1.991a2.436,2.436,0,0,0-.4-.031,1.071,1.071,0,0,0-1.085.681V0h-.813V-4.755h.791l.013.549a1.266,1.266,0,0,1,1.134-.637.831.831,0,0,1,.36.062ZM-5.124.088A2.078,2.078,0,0,1-6.7-.547a2.357,2.357,0,0,1-.606-1.7V-2.4a2.853,2.853,0,0,1,.27-1.263,2.108,2.108,0,0,1,.756-.87,1.9,1.9,0,0,1,1.052-.314,1.781,1.781,0,0,1,1.441.611A2.645,2.645,0,0,1-3.27-2.483v.338H-6.491A1.69,1.69,0,0,0-6.08-1.009a1.292,1.292,0,0,0,1,.433,1.416,1.416,0,0,0,.729-.176,1.833,1.833,0,0,0,.523-.466l.5.387A2,2,0,0,1-5.124.088Zm-.1-4.263a1.084,1.084,0,0,0-.826.358,1.741,1.741,0,0,0-.413,1h2.382v-.062a1.548,1.548,0,0,0-.334-.96A1.021,1.021,0,0,0-5.225-4.175Zm4.8,3.6a1.171,1.171,0,0,0,.76-.264A.928.928,0,0,0,.7-1.5h.769a1.474,1.474,0,0,1-.281.778,1.852,1.852,0,0,1-.692.589,2,2,0,0,1-.916.22A1.959,1.959,0,0,1-1.967-.56,2.582,2.582,0,0,1-2.54-2.333V-2.47A2.863,2.863,0,0,1-2.285-3.7a1.941,1.941,0,0,1,.732-.839,2.078,2.078,0,0,1,1.127-.3A1.907,1.907,0,0,1,.9-4.364,1.712,1.712,0,0,1,1.468-3.12H.7a1.12,1.12,0,0,0-.349-.758,1.087,1.087,0,0,0-.776-.3,1.138,1.138,0,0,0-.96.446,2.1,2.1,0,0,0-.341,1.29v.154A2.053,2.053,0,0,0-1.389-1.02,1.143,1.143,0,0,0-.422-.576Zm4.711,0a1.171,1.171,0,0,0,.76-.264A.928.928,0,0,0,5.41-1.5h.769A1.474,1.474,0,0,1,5.9-.721a1.852,1.852,0,0,1-.692.589,2,2,0,0,1-.916.22A1.959,1.959,0,0,1,2.744-.56a2.582,2.582,0,0,1-.573-1.773V-2.47A2.863,2.863,0,0,1,2.426-3.7a1.941,1.941,0,0,1,.732-.839,2.078,2.078,0,0,1,1.127-.3,1.907,1.907,0,0,1,1.329.479A1.712,1.712,0,0,1,6.179-3.12H5.41a1.12,1.12,0,0,0-.349-.758,1.087,1.087,0,0,0-.776-.3,1.138,1.138,0,0,0-.96.446,2.1,2.1,0,0,0-.341,1.29v.154A2.053,2.053,0,0,0,3.322-1.02,1.143,1.143,0,0,0,4.289-.576ZM7.976,0H7.163V-4.755h.813ZM7.1-6.016a.485.485,0,0,1,.121-.334.454.454,0,0,1,.358-.136.461.461,0,0,1,.36.136.48.48,0,0,1,.123.334.464.464,0,0,1-.123.33.469.469,0,0,1-.36.132.462.462,0,0,1-.358-.132A.469.469,0,0,1,7.1-6.016ZM9.062-2.421a2.808,2.808,0,0,1,.275-1.257A2.049,2.049,0,0,1,10.1-4.54a2.081,2.081,0,0,1,1.118-.3,2.005,2.005,0,0,1,1.571.672,2.587,2.587,0,0,1,.6,1.789v.057a2.833,2.833,0,0,1-.266,1.246,2.019,2.019,0,0,1-.76.859,2.105,2.105,0,0,1-1.136.308A2,2,0,0,1,9.661-.584a2.574,2.574,0,0,1-.6-1.78Zm.817.1a2.034,2.034,0,0,0,.367,1.27,1.174,1.174,0,0,0,.982.479,1.167,1.167,0,0,0,.984-.486,2.224,2.224,0,0,0,.365-1.36,2.031,2.031,0,0,0-.371-1.268,1.181,1.181,0,0,0-.987-.486,1.167,1.167,0,0,0-.971.479A2.208,2.208,0,0,0,9.879-2.325Zm1.709-4.417h.984L11.4-5.449l-.655,0Zm3.59,1.986.026.6a1.733,1.733,0,0,1,1.424-.686q1.507,0,1.521,1.7V0h-.813V-3.146a1.1,1.1,0,0,0-.235-.76.942.942,0,0,0-.719-.246,1.173,1.173,0,0,0-.694.211,1.432,1.432,0,0,0-.466.554V0H14.41V-4.755ZM-14.328,8.583a2.8,2.8,0,0,1,.514-1.769,1.644,1.644,0,0,1,1.362-.657,1.636,1.636,0,0,1,1.358.615l.04-.527h.743v4.641a1.934,1.934,0,0,1-.547,1.455,2.019,2.019,0,0,1-1.47.532,2.446,2.446,0,0,1-1.006-.22,1.732,1.732,0,0,1-.751-.6l.422-.488a1.59,1.59,0,0,0,1.279.646,1.246,1.246,0,0,0,.925-.334,1.277,1.277,0,0,0,.332-.94v-.409a1.671,1.671,0,0,1-1.332.563,1.624,1.624,0,0,1-1.351-.672A2.938,2.938,0,0,1-14.328,8.583Zm.817.092a2.132,2.132,0,0,0,.33,1.263,1.071,1.071,0,0,0,.923.459,1.191,1.191,0,0,0,1.129-.7V7.528a1.2,1.2,0,0,0-1.121-.681,1.081,1.081,0,0,0-.927.461A2.322,2.322,0,0,0-13.511,8.675Zm6.4,2.413a2.078,2.078,0,0,1-1.573-.635,2.357,2.357,0,0,1-.606-1.7V8.6a2.853,2.853,0,0,1,.27-1.263,2.108,2.108,0,0,1,.756-.87,1.9,1.9,0,0,1,1.052-.314,1.781,1.781,0,0,1,1.441.611,2.645,2.645,0,0,1,.514,1.749v.338H-8.479a1.69,1.69,0,0,0,.411,1.136,1.292,1.292,0,0,0,1,.433,1.416,1.416,0,0,0,.729-.176,1.833,1.833,0,0,0,.523-.466l.5.387A2,2,0,0,1-7.113,11.088Zm-.1-4.263a1.084,1.084,0,0,0-.826.358,1.741,1.741,0,0,0-.413,1h2.382V8.126a1.548,1.548,0,0,0-.334-.96A1.021,1.021,0,0,0-7.214,6.825Zm3.665-.58.026.6A1.733,1.733,0,0,1-2.1,6.157q1.507,0,1.521,1.7V11h-.813V7.854a1.1,1.1,0,0,0-.235-.76.942.942,0,0,0-.719-.246,1.173,1.173,0,0,0-.694.211,1.432,1.432,0,0,0-.466.554V11h-.813V6.245Zm6.17,4.843a2.078,2.078,0,0,1-1.573-.635,2.357,2.357,0,0,1-.606-1.7V8.6a2.853,2.853,0,0,1,.27-1.263,2.108,2.108,0,0,1,.756-.87A1.9,1.9,0,0,1,2.52,6.157a1.781,1.781,0,0,1,1.441.611,2.645,2.645,0,0,1,.514,1.749v.338H1.255a1.69,1.69,0,0,0,.411,1.136,1.292,1.292,0,0,0,1,.433,1.416,1.416,0,0,0,.729-.176,1.833,1.833,0,0,0,.523-.466l.5.387A2,2,0,0,1,2.621,11.088Zm-.1-4.263a1.084,1.084,0,0,0-.826.358,1.741,1.741,0,0,0-.413,1H3.663V8.126a1.548,1.548,0,0,0-.334-.96A1.021,1.021,0,0,0,2.52,6.825Zm5.194.149a2.436,2.436,0,0,0-.4-.031,1.071,1.071,0,0,0-1.085.681V11H5.416V6.245h.791l.013.549a1.266,1.266,0,0,1,1.134-.637.831.831,0,0,1,.36.062ZM11.221,11a1.708,1.708,0,0,1-.114-.5,1.814,1.814,0,0,1-1.354.589,1.678,1.678,0,0,1-1.154-.4,1.287,1.287,0,0,1-.45-1.009,1.344,1.344,0,0,1,.565-1.154A2.662,2.662,0,0,1,10.3,8.117h.791V7.744a.913.913,0,0,0-.255-.679,1.024,1.024,0,0,0-.751-.253,1.185,1.185,0,0,0-.729.22.647.647,0,0,0-.294.532H8.246A1.122,1.122,0,0,1,8.5,6.876a1.725,1.725,0,0,1,.686-.525,2.306,2.306,0,0,1,.951-.193,1.88,1.88,0,0,1,1.288.411A1.482,1.482,0,0,1,11.907,7.7V9.888a2.676,2.676,0,0,0,.167,1.042V11Zm-1.349-.62a1.429,1.429,0,0,0,.725-.2,1.2,1.2,0,0,0,.5-.514V8.693h-.637q-1.494,0-1.494.875a.74.74,0,0,0,.255.6A.98.98,0,0,0,9.872,10.38Zm4.192.62h-.813V4.25h.813Z" transform="translate(-1078.028 -8881.441)" fill="#fff"/>
    <path id="Trazado_192277" data-name="Trazado 192277" d="M2,0H122.007a2,2,0,0,1,2,2V37.682a2,2,0,0,1-2,2H2a2,2,0,0,1-2-2V2A2,2,0,0,1,2,0Z" transform="translate(-1199.317 -8797.148)" fill="#fdb74d"/>
    <path id="Trazado_192278" data-name="Trazado 192278" d="M-18.806-2.588h-1.5V0h-.848V-6.4h2.118a2.507,2.507,0,0,1,1.663.492,1.771,1.771,0,0,1,.582,1.433,1.723,1.723,0,0,1-.323,1.042,1.928,1.928,0,0,1-.9.664l1.5,2.716V0h-.905Zm-1.5-.69h1.3a1.462,1.462,0,0,0,1-.326,1.1,1.1,0,0,0,.371-.872A1.16,1.16,0,0,0-18-5.387a1.5,1.5,0,0,0-1.022-.321h-1.292ZM-13.766.088a2.078,2.078,0,0,1-1.573-.635,2.357,2.357,0,0,1-.606-1.7V-2.4a2.853,2.853,0,0,1,.27-1.263,2.108,2.108,0,0,1,.756-.87,1.9,1.9,0,0,1,1.052-.314,1.781,1.781,0,0,1,1.441.611,2.645,2.645,0,0,1,.514,1.749v.338h-3.221a1.69,1.69,0,0,0,.411,1.136,1.292,1.292,0,0,0,1,.433,1.416,1.416,0,0,0,.729-.176,1.833,1.833,0,0,0,.523-.466l.5.387A2,2,0,0,1-13.766.088Zm-.1-4.263a1.084,1.084,0,0,0-.826.358,1.741,1.741,0,0,0-.413,1h2.382v-.062a1.548,1.548,0,0,0-.334-.96A1.021,1.021,0,0,0-13.867-4.175ZM-10.088,0H-10.9V-6.75h.813Zm4.236,0a1.708,1.708,0,0,1-.114-.5A1.814,1.814,0,0,1-7.319.088a1.678,1.678,0,0,1-1.154-.4,1.287,1.287,0,0,1-.45-1.009,1.344,1.344,0,0,1,.565-1.154A2.662,2.662,0,0,1-6.77-2.883h.791v-.374a.913.913,0,0,0-.255-.679,1.024,1.024,0,0,0-.751-.253,1.185,1.185,0,0,0-.729.22.647.647,0,0,0-.294.532h-.817a1.122,1.122,0,0,1,.253-.688,1.725,1.725,0,0,1,.686-.525,2.306,2.306,0,0,1,.951-.193,1.88,1.88,0,0,1,1.288.411A1.482,1.482,0,0,1-5.166-3.3v2.188A2.676,2.676,0,0,0-5-.07V0ZM-7.2-.62a1.429,1.429,0,0,0,.725-.2,1.2,1.2,0,0,0,.5-.514v-.976h-.637q-1.494,0-1.494.875a.74.74,0,0,0,.255.6A.98.98,0,0,0-7.2-.62Zm5.216.044a1.171,1.171,0,0,0,.76-.264A.928.928,0,0,0-.864-1.5h.769a1.474,1.474,0,0,1-.281.778,1.852,1.852,0,0,1-.692.589,2,2,0,0,1-.916.22A1.959,1.959,0,0,1-3.529-.56,2.582,2.582,0,0,1-4.1-2.333V-2.47A2.863,2.863,0,0,1-3.847-3.7a1.941,1.941,0,0,1,.732-.839,2.078,2.078,0,0,1,1.127-.3,1.907,1.907,0,0,1,1.329.479A1.712,1.712,0,0,1-.094-3.12H-.864a1.12,1.12,0,0,0-.349-.758,1.087,1.087,0,0,0-.776-.3,1.138,1.138,0,0,0-.96.446,2.1,2.1,0,0,0-.341,1.29v.154A2.053,2.053,0,0,0-2.951-1.02,1.143,1.143,0,0,0-1.984-.576ZM1.7,0H.89V-4.755H1.7ZM.824-6.016A.485.485,0,0,1,.945-6.35.454.454,0,0,1,1.3-6.486a.461.461,0,0,1,.36.136.48.48,0,0,1,.123.334.464.464,0,0,1-.123.33.469.469,0,0,1-.36.132.462.462,0,0,1-.358-.132A.469.469,0,0,1,.824-6.016ZM2.788-2.421a2.808,2.808,0,0,1,.275-1.257,2.049,2.049,0,0,1,.765-.861,2.081,2.081,0,0,1,1.118-.3,2.005,2.005,0,0,1,1.571.672,2.587,2.587,0,0,1,.6,1.789v.057a2.833,2.833,0,0,1-.266,1.246,2.019,2.019,0,0,1-.76.859A2.105,2.105,0,0,1,4.955.088,2,2,0,0,1,3.388-.584a2.574,2.574,0,0,1-.6-1.78Zm.817.1a2.034,2.034,0,0,0,.367,1.27,1.174,1.174,0,0,0,.982.479,1.167,1.167,0,0,0,.984-.486A2.224,2.224,0,0,0,6.3-2.421a2.031,2.031,0,0,0-.371-1.268,1.181,1.181,0,0,0-.987-.486,1.167,1.167,0,0,0-.971.479A2.208,2.208,0,0,0,3.606-2.325Zm5.3-2.43.026.6a1.733,1.733,0,0,1,1.424-.686q1.507,0,1.521,1.7V0h-.813V-3.146a1.1,1.1,0,0,0-.235-.76.942.942,0,0,0-.719-.246,1.173,1.173,0,0,0-.694.211,1.432,1.432,0,0,0-.466.554V0H8.136V-4.755ZM15.075.088A2.078,2.078,0,0,1,13.5-.547a2.357,2.357,0,0,1-.606-1.7V-2.4a2.853,2.853,0,0,1,.27-1.263,2.108,2.108,0,0,1,.756-.87,1.9,1.9,0,0,1,1.052-.314,1.781,1.781,0,0,1,1.441.611,2.645,2.645,0,0,1,.514,1.749v.338H13.709a1.69,1.69,0,0,0,.411,1.136,1.292,1.292,0,0,0,1,.433,1.416,1.416,0,0,0,.729-.176,1.833,1.833,0,0,0,.523-.466l.5.387A2,2,0,0,1,15.075.088Zm-.1-4.263a1.084,1.084,0,0,0-.826.358,1.741,1.741,0,0,0-.413,1h2.382v-.062a1.548,1.548,0,0,0-.334-.96A1.021,1.021,0,0,0,14.974-4.175Zm5.665,2.914a.6.6,0,0,0-.248-.512,2.39,2.39,0,0,0-.866-.314,4.093,4.093,0,0,1-.98-.316,1.394,1.394,0,0,1-.536-.439,1.051,1.051,0,0,1-.174-.606,1.233,1.233,0,0,1,.494-.989,1.931,1.931,0,0,1,1.263-.4,1.987,1.987,0,0,1,1.312.417,1.326,1.326,0,0,1,.5,1.068h-.817a.734.734,0,0,0-.283-.576,1.062,1.062,0,0,0-.714-.242,1.111,1.111,0,0,0-.694.193.609.609,0,0,0-.25.505.493.493,0,0,0,.233.444,2.866,2.866,0,0,0,.842.286,4.385,4.385,0,0,1,.987.325,1.439,1.439,0,0,1,.56.455,1.118,1.118,0,0,1,.182.648A1.217,1.217,0,0,1,20.942-.3a2.138,2.138,0,0,1-1.323.385,2.394,2.394,0,0,1-1.011-.2,1.644,1.644,0,0,1-.688-.565,1.361,1.361,0,0,1-.248-.784h.813a.842.842,0,0,0,.327.648,1.27,1.27,0,0,0,.806.24,1.311,1.311,0,0,0,.74-.187A.574.574,0,0,0,20.639-1.261ZM-12.206,8.675a2.847,2.847,0,0,1-.5,1.749,1.592,1.592,0,0,1-1.345.664,1.744,1.744,0,0,1-1.362-.549v2.29h-.813V6.245h.743l.04.527a1.675,1.675,0,0,1,1.38-.615A1.621,1.621,0,0,1-12.7,6.8a2.878,2.878,0,0,1,.5,1.8Zm-.813-.092a2.1,2.1,0,0,0-.343-1.27,1.1,1.1,0,0,0-.94-.466,1.2,1.2,0,0,0-1.107.655V9.774a1.2,1.2,0,0,0,1.116.65,1.1,1.1,0,0,0,.929-.464A2.293,2.293,0,0,0-13.019,8.583Zm4.781,1.947a1.727,1.727,0,0,1-1.393.558,1.478,1.478,0,0,1-1.158-.442,1.912,1.912,0,0,1-.4-1.307V6.245h.813V9.317q0,1.081.879,1.081A1.217,1.217,0,0,0-8.26,9.7V6.245h.813V11H-8.22ZM-8.9,4.259h.984L-9.09,5.551l-.655,0Zm6.71,4.417a2.827,2.827,0,0,1-.5,1.751,1.6,1.6,0,0,1-1.345.661,1.658,1.658,0,0,1-1.393-.637l-.04.549h-.747V4.25H-5.4V6.768a1.648,1.648,0,0,1,1.358-.611,1.61,1.61,0,0,1,1.36.655A2.912,2.912,0,0,1-2.186,8.6ZM-3,8.583A2.2,2.2,0,0,0-3.32,7.3a1.062,1.062,0,0,0-.923-.453A1.194,1.194,0,0,0-5.4,7.594V9.651a1.227,1.227,0,0,0,1.165.747,1.056,1.056,0,0,0,.91-.453A2.336,2.336,0,0,0-3,8.583ZM-.279,11h-.813V4.25h.813Zm2.184,0H1.092V6.245h.813ZM1.026,4.984a.485.485,0,0,1,.121-.334.454.454,0,0,1,.358-.136.461.461,0,0,1,.36.136.48.48,0,0,1,.123.334.464.464,0,0,1-.123.33.469.469,0,0,1-.36.132.462.462,0,0,1-.358-.132A.469.469,0,0,1,1.026,4.984Zm4.087,5.44a1.171,1.171,0,0,0,.76-.264.928.928,0,0,0,.36-.659H7a1.474,1.474,0,0,1-.281.778,1.852,1.852,0,0,1-.692.589,2,2,0,0,1-.916.22,1.959,1.959,0,0,1-1.545-.648,2.582,2.582,0,0,1-.573-1.773V8.53A2.863,2.863,0,0,1,3.25,7.3a1.941,1.941,0,0,1,.732-.839,2.078,2.078,0,0,1,1.127-.3,1.907,1.907,0,0,1,1.329.479A1.712,1.712,0,0,1,7,7.88H6.234a1.12,1.12,0,0,0-.349-.758,1.087,1.087,0,0,0-.776-.3,1.138,1.138,0,0,0-.96.446,2.1,2.1,0,0,0-.341,1.29v.154A2.053,2.053,0,0,0,4.146,9.98,1.143,1.143,0,0,0,5.113,10.424ZM10.852,11a1.708,1.708,0,0,1-.114-.5,1.814,1.814,0,0,1-1.354.589,1.678,1.678,0,0,1-1.154-.4,1.287,1.287,0,0,1-.45-1.009,1.344,1.344,0,0,1,.565-1.154,2.662,2.662,0,0,1,1.589-.411h.791V7.744a.913.913,0,0,0-.255-.679,1.024,1.024,0,0,0-.751-.253,1.185,1.185,0,0,0-.729.22.647.647,0,0,0-.294.532H7.877a1.122,1.122,0,0,1,.253-.688,1.725,1.725,0,0,1,.686-.525,2.306,2.306,0,0,1,.951-.193,1.88,1.88,0,0,1,1.288.411A1.482,1.482,0,0,1,11.538,7.7V9.888A2.676,2.676,0,0,0,11.7,10.93V11ZM9.5,10.38a1.429,1.429,0,0,0,.725-.2,1.2,1.2,0,0,0,.5-.514V8.693h-.637q-1.494,0-1.494.875a.74.74,0,0,0,.255.6A.98.98,0,0,0,9.5,10.38Zm6.078-.642a.6.6,0,0,0-.248-.512,2.39,2.39,0,0,0-.866-.314,4.093,4.093,0,0,1-.98-.316,1.394,1.394,0,0,1-.536-.439,1.051,1.051,0,0,1-.174-.606,1.233,1.233,0,0,1,.494-.989,1.931,1.931,0,0,1,1.263-.4,1.987,1.987,0,0,1,1.312.417,1.326,1.326,0,0,1,.5,1.068h-.817a.734.734,0,0,0-.283-.576,1.062,1.062,0,0,0-.714-.242,1.111,1.111,0,0,0-.694.193.609.609,0,0,0-.25.505.493.493,0,0,0,.233.444,2.866,2.866,0,0,0,.842.286,4.385,4.385,0,0,1,.987.325,1.439,1.439,0,0,1,.56.455,1.118,1.118,0,0,1,.182.648,1.217,1.217,0,0,1-.51,1.022,2.138,2.138,0,0,1-1.323.385,2.394,2.394,0,0,1-1.011-.2,1.644,1.644,0,0,1-.688-.565,1.361,1.361,0,0,1-.248-.784h.813a.842.842,0,0,0,.327.648,1.27,1.27,0,0,0,.806.24,1.311,1.311,0,0,0,.74-.187A.574.574,0,0,0,15.581,9.739Z" transform="translate(-1142.11 -8778.593)"/>
    <path id="Trazado_192279" data-name="Trazado 192279" d="M2,0H122.007a2,2,0,0,1,2,2V37.682a2,2,0,0,1-2,2H2a2,2,0,0,1-2-2V2A2,2,0,0,1,2,0Z" transform="translate(-1346 -8797.148)" fill="#636363"/>
    <path id="Trazado_192280" data-name="Trazado 192280" d="M-25.873-3.062V0H-26.9V-7.82h2.884a2.9,2.9,0,0,1,2.011.655A2.222,2.222,0,0,1-21.28-5.43a2.192,2.192,0,0,1-.712,1.754,3.027,3.027,0,0,1-2.038.615Zm0-.843h1.853a1.853,1.853,0,0,0,1.268-.39,1.426,1.426,0,0,0,.44-1.127,1.474,1.474,0,0,0-.44-1.119,1.736,1.736,0,0,0-1.208-.436h-1.912Zm8.562-1.015a2.978,2.978,0,0,0-.489-.038,1.309,1.309,0,0,0-1.327.833V0h-.994V-5.812h.967l.016.671a1.547,1.547,0,0,1,1.386-.779,1.015,1.015,0,0,1,.44.075Zm.542,1.96A3.433,3.433,0,0,1-16.433-4.5,2.5,2.5,0,0,1-15.5-5.548a2.544,2.544,0,0,1,1.367-.371,2.451,2.451,0,0,1,1.92.822,3.162,3.162,0,0,1,.733,2.186v.07A3.462,3.462,0,0,1-11.8-1.319a2.467,2.467,0,0,1-.929,1.05,2.573,2.573,0,0,1-1.388.376,2.445,2.445,0,0,1-1.915-.822,3.146,3.146,0,0,1-.733-2.175Zm1,.118a2.486,2.486,0,0,0,.448,1.552,1.435,1.435,0,0,0,1.2.585,1.427,1.427,0,0,0,1.2-.594,2.719,2.719,0,0,0,.446-1.662,2.482,2.482,0,0,0-.454-1.55A1.443,1.443,0,0,0-14.131-5.1a1.427,1.427,0,0,0-1.187.585A2.7,2.7,0,0,0-15.77-2.841Zm5.3-.113A3.4,3.4,0,0,1-9.84-5.105a2,2,0,0,1,1.66-.814,2.016,2.016,0,0,1,1.617.7V-8.25h.994V0h-.913l-.048-.623a2.024,2.024,0,0,1-1.66.73A1.985,1.985,0,0,1-9.837-.72a3.443,3.443,0,0,1-.636-2.159Zm.994.113a2.578,2.578,0,0,0,.408,1.547,1.32,1.32,0,0,0,1.128.559,1.45,1.45,0,0,0,1.38-.849V-4.254a1.461,1.461,0,0,0-1.37-.822,1.326,1.326,0,0,0-1.139.564A2.838,2.838,0,0,0-9.48-2.841ZM-.44-.575a2.111,2.111,0,0,1-1.7.682,1.807,1.807,0,0,1-1.415-.54,2.336,2.336,0,0,1-.491-1.6V-5.812h.994v3.754q0,1.321,1.074,1.321A1.487,1.487,0,0,0-.467-1.584V-5.812H.526V0H-.419ZM4.367-.7A1.431,1.431,0,0,0,5.3-1.026a1.134,1.134,0,0,0,.44-.806h.94a1.8,1.8,0,0,1-.344.951,2.264,2.264,0,0,1-.846.72,2.441,2.441,0,0,1-1.12.269A2.394,2.394,0,0,1,2.479-.685a3.155,3.155,0,0,1-.7-2.167v-.167a3.5,3.5,0,0,1,.312-1.509,2.373,2.373,0,0,1,.894-1.026,2.54,2.54,0,0,1,1.378-.365,2.331,2.331,0,0,1,1.625.585,2.092,2.092,0,0,1,.69,1.52h-.94a1.369,1.369,0,0,0-.427-.927A1.328,1.328,0,0,0,4.361-5.1a1.391,1.391,0,0,0-1.174.545,2.56,2.56,0,0,0-.416,1.576v.188a2.509,2.509,0,0,0,.414,1.547A1.4,1.4,0,0,0,4.367-.7Zm5.758,0a1.431,1.431,0,0,0,.929-.322,1.134,1.134,0,0,0,.44-.806h.94a1.8,1.8,0,0,1-.344.951,2.264,2.264,0,0,1-.846.72,2.441,2.441,0,0,1-1.12.269A2.394,2.394,0,0,1,8.237-.685a3.155,3.155,0,0,1-.7-2.167v-.167a3.5,3.5,0,0,1,.312-1.509,2.373,2.373,0,0,1,.894-1.026,2.54,2.54,0,0,1,1.378-.365,2.331,2.331,0,0,1,1.625.585,2.092,2.092,0,0,1,.69,1.52h-.94a1.369,1.369,0,0,0-.427-.927,1.328,1.328,0,0,0-.948-.363,1.391,1.391,0,0,0-1.174.545,2.56,2.56,0,0,0-.416,1.576v.188a2.509,2.509,0,0,0,.414,1.547A1.4,1.4,0,0,0,10.125-.7Zm4.506.7h-.994V-5.812h.994ZM13.557-7.353a.593.593,0,0,1,.148-.408.555.555,0,0,1,.438-.167.563.563,0,0,1,.44.167.587.587,0,0,1,.15.408.568.568,0,0,1-.15.4.573.573,0,0,1-.44.161A.565.565,0,0,1,13.7-6.95.573.573,0,0,1,13.557-7.353Zm2.4,4.394A3.433,3.433,0,0,1,16.293-4.5a2.5,2.5,0,0,1,.935-1.053,2.544,2.544,0,0,1,1.367-.371,2.451,2.451,0,0,1,1.92.822,3.162,3.162,0,0,1,.733,2.186v.07a3.462,3.462,0,0,1-.325,1.523,2.467,2.467,0,0,1-.929,1.05,2.573,2.573,0,0,1-1.388.376,2.445,2.445,0,0,1-1.915-.822,3.146,3.146,0,0,1-.733-2.175Zm1,.118a2.486,2.486,0,0,0,.448,1.552,1.435,1.435,0,0,0,1.2.585,1.427,1.427,0,0,0,1.2-.594,2.719,2.719,0,0,0,.446-1.662,2.482,2.482,0,0,0-.454-1.55A1.443,1.443,0,0,0,18.595-5.1a1.427,1.427,0,0,0-1.187.585A2.7,2.7,0,0,0,16.957-2.841Zm2.089-5.4h1.2L18.81-6.66l-.8,0Zm4.388,2.428.032.73a2.118,2.118,0,0,1,1.74-.838q1.842,0,1.858,2.079V0h-.994V-3.846a1.338,1.338,0,0,0-.287-.929,1.152,1.152,0,0,0-.878-.3,1.434,1.434,0,0,0-.849.258,1.751,1.751,0,0,0-.569.677V0h-.994V-5.812Z" transform="translate(-1284.447 -8774.532)" fill="#fff"/>
    <path id="Trazado_192281" data-name="Trazado 192281" d="M2,0H122.007a2,2,0,0,1,2,2V37.682a2,2,0,0,1-2,2H2a2,2,0,0,1-2-2V2A2,2,0,0,1,2,0Z" transform="translate(-1060.606 -8797.148)" fill="#fedc72"/>
    <path id="Trazado_192282" data-name="Trazado 192282" d="M-28.865-1.86h-2.979L-32.512,0h-.967l2.715-7.109h.82L-27.224,0h-.962Zm-2.7-.767h2.417l-1.211-3.325Zm4.932-.059a3.1,3.1,0,0,1,.576-1.956,1.822,1.822,0,0,1,1.509-.74,1.832,1.832,0,0,1,1.47.635V-7.5h.9V0H-23l-.044-.566A1.84,1.84,0,0,1-24.553.1a1.8,1.8,0,0,1-1.5-.752,3.13,3.13,0,0,1-.579-1.963Zm.9.1a2.343,2.343,0,0,0,.371,1.406,1.2,1.2,0,0,0,1.025.508,1.318,1.318,0,0,0,1.255-.771V-3.867a1.328,1.328,0,0,0-1.245-.747,1.205,1.205,0,0,0-1.035.513A2.58,2.58,0,0,0-25.725-2.583Zm5.806-2.7.024.586a1.951,1.951,0,0,1,1.567-.684,1.51,1.51,0,0,1,1.509.85,2,2,0,0,1,.686-.615,2.026,2.026,0,0,1,1-.234q1.738,0,1.768,1.841V0h-.9V-3.486a1.213,1.213,0,0,0-.259-.847,1.14,1.14,0,0,0-.869-.281,1.2,1.2,0,0,0-.835.3,1.218,1.218,0,0,0-.386.808V0h-.908V-3.462a1.008,1.008,0,0,0-1.128-1.152,1.209,1.209,0,0,0-1.216.757V0h-.9V-5.283ZM-11.023,0h-.9V-5.283h.9ZM-12-6.685a.539.539,0,0,1,.134-.371.5.5,0,0,1,.4-.151.512.512,0,0,1,.4.151.534.534,0,0,1,.137.371.516.516,0,0,1-.137.366.521.521,0,0,1-.4.146.513.513,0,0,1-.4-.146A.521.521,0,0,1-12-6.685Zm3.276,1.4.029.664a1.925,1.925,0,0,1,1.582-.762q1.675,0,1.689,1.89V0h-.9V-3.5a1.216,1.216,0,0,0-.261-.845,1.047,1.047,0,0,0-.8-.273,1.3,1.3,0,0,0-.771.234,1.592,1.592,0,0,0-.518.615V0h-.9V-5.283ZM-3.079,0h-.9V-5.283h.9Zm-.977-6.685a.539.539,0,0,1,.134-.371.5.5,0,0,1,.4-.151.512.512,0,0,1,.4.151.534.534,0,0,1,.137.371.516.516,0,0,1-.137.366.521.521,0,0,1-.4.146.513.513,0,0,1-.4-.146A.521.521,0,0,1-4.055-6.685ZM1.443-1.4a.665.665,0,0,0-.276-.569,2.655,2.655,0,0,0-.962-.349A4.548,4.548,0,0,1-.884-2.671a1.549,1.549,0,0,1-.6-.488,1.168,1.168,0,0,1-.193-.674,1.37,1.37,0,0,1,.549-1.1,2.145,2.145,0,0,1,1.4-.449,2.208,2.208,0,0,1,1.458.464A1.473,1.473,0,0,1,2.3-3.73H1.389a.815.815,0,0,0-.315-.64,1.18,1.18,0,0,0-.793-.269,1.235,1.235,0,0,0-.771.215.676.676,0,0,0-.278.562.548.548,0,0,0,.259.493,3.184,3.184,0,0,0,.935.317,4.872,4.872,0,0,1,1.1.361,1.6,1.6,0,0,1,.623.505,1.243,1.243,0,0,1,.2.72A1.352,1.352,0,0,1,1.78-.33,2.376,2.376,0,0,1,.31.1,2.66,2.66,0,0,1-.813-.127a1.827,1.827,0,0,1-.764-.627,1.512,1.512,0,0,1-.276-.872h.9a.935.935,0,0,0,.364.72,1.411,1.411,0,0,0,.9.266,1.457,1.457,0,0,0,.823-.208A.638.638,0,0,0,1.443-1.4ZM4.749-6.562v1.279h.986v.7H4.749V-1.3a.733.733,0,0,0,.132.477.555.555,0,0,0,.449.159,2.187,2.187,0,0,0,.43-.059V0a2.634,2.634,0,0,1-.693.1,1.125,1.125,0,0,1-.913-.366,1.573,1.573,0,0,1-.308-1.04V-4.585H2.883v-.7h.962V-6.562Zm4.595,2.09A2.707,2.707,0,0,0,8.9-4.507a1.19,1.19,0,0,0-1.206.757V0h-.9V-5.283h.879l.015.61a1.407,1.407,0,0,1,1.26-.708.923.923,0,0,1,.4.068ZM13.24,0a1.9,1.9,0,0,1-.127-.557,2.015,2.015,0,0,1-1.5.654,1.865,1.865,0,0,1-1.282-.442,1.43,1.43,0,0,1-.5-1.121,1.494,1.494,0,0,1,.627-1.282A2.958,2.958,0,0,1,12.219-3.2H13.1v-.415a1.015,1.015,0,0,0-.283-.754,1.138,1.138,0,0,0-.835-.281,1.317,1.317,0,0,0-.811.244.719.719,0,0,0-.327.591H9.934a1.247,1.247,0,0,1,.281-.764,1.916,1.916,0,0,1,.762-.583,2.563,2.563,0,0,1,1.057-.215,2.089,2.089,0,0,1,1.431.457A1.647,1.647,0,0,1,14-3.667v2.432a2.973,2.973,0,0,0,.186,1.157V0Zm-1.5-.688a1.588,1.588,0,0,0,.806-.22,1.329,1.329,0,0,0,.552-.571V-2.563H12.39q-1.66,0-1.66.972a.822.822,0,0,0,.283.664A1.089,1.089,0,0,0,11.741-.688Zm5.8.049a1.3,1.3,0,0,0,.845-.293,1.031,1.031,0,0,0,.4-.732h.854a1.638,1.638,0,0,1-.312.864,2.058,2.058,0,0,1-.769.654A2.219,2.219,0,0,1,17.537.1a2.176,2.176,0,0,1-1.716-.72,2.869,2.869,0,0,1-.637-1.97v-.151a3.181,3.181,0,0,1,.283-1.372,2.157,2.157,0,0,1,.813-.933,2.309,2.309,0,0,1,1.252-.332,2.119,2.119,0,0,1,1.477.532,1.9,1.9,0,0,1,.627,1.382h-.854a1.245,1.245,0,0,0-.388-.842,1.208,1.208,0,0,0-.862-.33,1.264,1.264,0,0,0-1.067.5,2.328,2.328,0,0,0-.378,1.433v.171a2.281,2.281,0,0,0,.376,1.406A1.27,1.27,0,0,0,17.537-.64Zm4.1.64h-.9V-5.283h.9Zm-.977-6.685a.539.539,0,0,1,.134-.371.5.5,0,0,1,.4-.151.512.512,0,0,1,.4.151.534.534,0,0,1,.137.371.516.516,0,0,1-.137.366.521.521,0,0,1-.4.146.513.513,0,0,1-.4-.146A.521.521,0,0,1,20.657-6.685ZM22.839-2.69a3.121,3.121,0,0,1,.305-1.4,2.277,2.277,0,0,1,.85-.957,2.313,2.313,0,0,1,1.243-.337,2.228,2.228,0,0,1,1.746.747,2.874,2.874,0,0,1,.667,1.987v.063a3.148,3.148,0,0,1-.3,1.384,2.243,2.243,0,0,1-.845.955A2.339,2.339,0,0,1,25.247.1a2.222,2.222,0,0,1-1.741-.747,2.86,2.86,0,0,1-.667-1.978Zm.908.107a2.26,2.26,0,0,0,.408,1.411,1.3,1.3,0,0,0,1.091.532,1.3,1.3,0,0,0,1.094-.54,2.472,2.472,0,0,0,.405-1.511A2.256,2.256,0,0,0,26.333-4.1a1.312,1.312,0,0,0-1.1-.54,1.3,1.3,0,0,0-1.079.532A2.453,2.453,0,0,0,23.748-2.583Zm1.9-4.907h1.094L25.432-6.055l-.728,0Zm3.989,2.207.029.664a1.925,1.925,0,0,1,1.582-.762q1.675,0,1.689,1.89V0h-.9V-3.5a1.216,1.216,0,0,0-.261-.845,1.047,1.047,0,0,0-.8-.273,1.3,1.3,0,0,0-.771.234,1.592,1.592,0,0,0-.518.615V0h-.9V-5.283Z" transform="translate(-1002.973 -8774.532)"/>
    <path id="Trazado_192283" data-name="Trazado 192283" d="M2,0H122.007a2,2,0,0,1,2,2V37.682a2,2,0,0,1-2,2H2a2,2,0,0,1-2-2V2A2,2,0,0,1,2,0Z" transform="translate(-915.341 -8797.148)" fill="#8c6df2"/>
    <path id="Trazado_192284" data-name="Trazado 192284" d="M-18.141-2.481a2.877,2.877,0,0,1-.916,1.915,3,3,0,0,1-2.049.674,2.756,2.756,0,0,1-2.221-.994,4,4,0,0,1-.835-2.659V-4.3a4.456,4.456,0,0,1,.389-1.917,2.909,2.909,0,0,1,1.1-1.27,3.073,3.073,0,0,1,1.654-.443,2.826,2.826,0,0,1,2,.7,2.912,2.912,0,0,1,.875,1.926h-1.037a2.247,2.247,0,0,0-.583-1.358,1.763,1.763,0,0,0-1.254-.42,1.845,1.845,0,0,0-1.55.731,3.356,3.356,0,0,0-.561,2.08v.758a3.45,3.45,0,0,0,.532,2.027,1.718,1.718,0,0,0,1.488.753,1.984,1.984,0,0,0,1.319-.389,2.161,2.161,0,0,0,.61-1.356Zm.988-.478A3.433,3.433,0,0,1-16.817-4.5a2.5,2.5,0,0,1,.935-1.053,2.544,2.544,0,0,1,1.367-.371A2.451,2.451,0,0,1-12.6-5.1a3.162,3.162,0,0,1,.733,2.186v.07a3.462,3.462,0,0,1-.325,1.523,2.467,2.467,0,0,1-.929,1.05A2.573,2.573,0,0,1-14.5.107a2.445,2.445,0,0,1-1.915-.822,3.146,3.146,0,0,1-.733-2.175Zm1,.118a2.486,2.486,0,0,0,.448,1.552A1.435,1.435,0,0,0-14.5-.7,1.427,1.427,0,0,0-13.3-1.3a2.719,2.719,0,0,0,.446-1.662,2.482,2.482,0,0,0-.454-1.55A1.443,1.443,0,0,0-14.515-5.1a1.427,1.427,0,0,0-1.187.585A2.7,2.7,0,0,0-16.154-2.841Zm6.472-2.97.027.645A2.146,2.146,0,0,1-7.93-5.919a1.662,1.662,0,0,1,1.66.935,2.2,2.2,0,0,1,.755-.677,2.229,2.229,0,0,1,1.1-.258q1.912,0,1.944,2.025V0h-.994V-3.835a1.334,1.334,0,0,0-.285-.932,1.254,1.254,0,0,0-.956-.309,1.318,1.318,0,0,0-.918.33,1.34,1.34,0,0,0-.424.889V0h-1V-3.808A1.109,1.109,0,0,0-8.29-5.076a1.329,1.329,0,0,0-1.337.833V0h-.994V-5.812ZM1.437.107A2.539,2.539,0,0,1-.486-.669a2.881,2.881,0,0,1-.741-2.076v-.183A3.487,3.487,0,0,1-.9-4.471,2.577,2.577,0,0,1,.027-5.535a2.323,2.323,0,0,1,1.286-.384,2.177,2.177,0,0,1,1.762.747A3.232,3.232,0,0,1,3.7-3.035v.414H-.234a2.066,2.066,0,0,0,.5,1.388A1.579,1.579,0,0,0,1.49-.7a1.731,1.731,0,0,0,.892-.215,2.24,2.24,0,0,0,.639-.569l.607.473A2.44,2.44,0,0,1,1.437.107ZM1.313-5.1A1.325,1.325,0,0,0,.3-4.665,2.128,2.128,0,0,0-.2-3.437H2.71v-.075A1.893,1.893,0,0,0,2.3-4.686,1.248,1.248,0,0,0,1.313-5.1Zm6.349.183a2.978,2.978,0,0,0-.489-.038,1.309,1.309,0,0,0-1.327.833V0H4.853V-5.812H5.82l.016.671a1.547,1.547,0,0,1,1.386-.779,1.015,1.015,0,0,1,.44.075ZM10.8-.7a1.431,1.431,0,0,0,.929-.322,1.134,1.134,0,0,0,.44-.806h.94a1.8,1.8,0,0,1-.344.951,2.264,2.264,0,0,1-.846.72A2.441,2.441,0,0,1,10.8.107,2.394,2.394,0,0,1,8.916-.685a3.155,3.155,0,0,1-.7-2.167v-.167a3.5,3.5,0,0,1,.312-1.509,2.373,2.373,0,0,1,.894-1.026A2.54,2.54,0,0,1,10.8-5.919a2.331,2.331,0,0,1,1.625.585,2.092,2.092,0,0,1,.69,1.52h-.94a1.369,1.369,0,0,0-.427-.927A1.328,1.328,0,0,0,10.8-5.1a1.391,1.391,0,0,0-1.174.545,2.56,2.56,0,0,0-.416,1.576v.188a2.509,2.509,0,0,0,.414,1.547A1.4,1.4,0,0,0,10.8-.7ZM15.31,0h-.994V-5.812h.994ZM14.236-7.353a.593.593,0,0,1,.148-.408.555.555,0,0,1,.438-.167.563.563,0,0,1,.44.167.587.587,0,0,1,.15.408.568.568,0,0,1-.15.4.573.573,0,0,1-.44.161.565.565,0,0,1-.438-.161A.573.573,0,0,1,14.236-7.353ZM20.488,0a2.087,2.087,0,0,1-.14-.612,2.217,2.217,0,0,1-1.654.72,2.051,2.051,0,0,1-1.41-.486,1.573,1.573,0,0,1-.551-1.233,1.643,1.643,0,0,1,.69-1.41,3.254,3.254,0,0,1,1.942-.5h.967V-3.98a1.116,1.116,0,0,0-.312-.83,1.252,1.252,0,0,0-.918-.309,1.449,1.449,0,0,0-.892.269.791.791,0,0,0-.36.65h-1a1.371,1.371,0,0,1,.309-.841A2.108,2.108,0,0,1,18-5.683a2.819,2.819,0,0,1,1.163-.236,2.3,2.3,0,0,1,1.574.5,1.812,1.812,0,0,1,.591,1.383v2.675a3.27,3.27,0,0,0,.2,1.273V0ZM18.839-.757A1.746,1.746,0,0,0,19.725-1a1.462,1.462,0,0,0,.607-.628V-2.82h-.779q-1.826,0-1.826,1.069a.9.9,0,0,0,.312.73A1.2,1.2,0,0,0,18.839-.757ZM23.963,0h-.994V-8.25h.994Z" transform="translate(-853.48 -8774.532)"/>
    <path id="Trazado_192285" data-name="Trazado 192285" d="M2,0H122.007a2,2,0,0,1,2,2V37.682a2,2,0,0,1-2,2H2a2,2,0,0,1-2-2V2A2,2,0,0,1,2,0Z" transform="translate(-1199.317 -8693.514)" fill="#fdb74d"/>
    <path id="Trazado_192286" data-name="Trazado 192286" d="M-21.162-7.82l1.37,6.37L-16.2-7.82h1.327L-16.237,0h-1l.537-3.094.639-3.147L-19.61,0h-.773l-1.4-6.365-.483,3.373L-22.784,0h-1.01l1.359-7.82ZM-11.021,0a1.3,1.3,0,0,1-.038-.306l.016-.306a2.382,2.382,0,0,1-1.7.72,1.736,1.736,0,0,1-1.249-.486,1.471,1.471,0,0,1-.438-1.19,1.789,1.789,0,0,1,.808-1.442,3.441,3.441,0,0,1,1.985-.518l1.015.005.064-.462a1.062,1.062,0,0,0-.2-.824.972.972,0,0,0-.765-.314,1.5,1.5,0,0,0-.884.244,1.04,1.04,0,0,0-.47.674l-.978.005a1.558,1.558,0,0,1,.4-.905,2.312,2.312,0,0,1,.9-.612,2.9,2.9,0,0,1,1.133-.207,1.927,1.927,0,0,1,1.413.551,1.707,1.707,0,0,1,.424,1.4L-10.06-1.09l-.027.414a2.027,2.027,0,0,0,.064.585L-10.033,0Zm-1.525-.752a1.7,1.7,0,0,0,.884-.223,2.237,2.237,0,0,0,.717-.647l.209-1.2-.736-.005a2.787,2.787,0,0,0-1.407.29,1.068,1.068,0,0,0-.553.822.832.832,0,0,0,.191.679A.908.908,0,0,0-12.547-.752ZM-5.1-4.925l-.457-.048a1.663,1.663,0,0,0-1.472.843L-7.745,0h-.972l1.01-5.812.94-.005-.145.677a1.738,1.738,0,0,1,1.456-.79A1.783,1.783,0,0,1-5-5.849ZM-2.97-2.68-3.733-2l-.344,2h-.972l1.434-8.25h.972L-3.5-3.319l.6-.6L-.843-5.812H.419L-2.25-3.335-.414,0H-1.477ZM2.922.107a2.1,2.1,0,0,1-1.7-.8A2.754,2.754,0,0,1,.709-2.686l.027-.231A3.867,3.867,0,0,1,1.249-4.5,2.983,2.983,0,0,1,2.277-5.573a2.4,2.4,0,0,1,1.311-.346A1.848,1.848,0,0,1,5-5.323a2.452,2.452,0,0,1,.559,1.558,4.552,4.552,0,0,1-.021.7l-.059.446h-3.8a1.963,1.963,0,0,0,.26,1.343A1.234,1.234,0,0,0,3-.7a2.068,2.068,0,0,0,1.59-.773L5.151-1a2.556,2.556,0,0,1-.943.824A2.671,2.671,0,0,1,2.922.107ZM3.54-5.108A1.42,1.42,0,0,0,2.49-4.7a2.9,2.9,0,0,0-.712,1.262L4.6-3.432l.021-.086a1.59,1.59,0,0,0-.218-1.125A1.023,1.023,0,0,0,3.54-5.108ZM8.68-7.219,8.433-5.812H9.491l-.134.768H8.3L7.7-1.429a1.26,1.26,0,0,0-.005.258.41.41,0,0,0,.457.419,2.784,2.784,0,0,0,.473-.054L8.545.005a2.645,2.645,0,0,1-.709.1,1.015,1.015,0,0,1-.87-.427,1.652,1.652,0,0,1-.226-1.12l.591-3.6H6.306l.134-.768H7.466l.247-1.407ZM10.7,0H9.738l1.01-5.812h.967Zm.8-7.933a.532.532,0,0,1,.411.148.553.553,0,0,1,.164.416.584.584,0,0,1-.164.414.588.588,0,0,1-.411.172.535.535,0,0,1-.414-.145.525.525,0,0,1-.156-.408.609.609,0,0,1,.161-.419A.568.568,0,0,1,11.5-7.933Zm2.718,2.116-.14.736a2.291,2.291,0,0,1,1.783-.838,1.442,1.442,0,0,1,1.214.569,2.212,2.212,0,0,1,.29,1.542L16.736,0h-.972L16.4-3.82a2.036,2.036,0,0,0,.005-.488.8.8,0,0,0-.886-.767,1.83,1.83,0,0,0-1.536.934L13.267,0h-.972L13.3-5.812Zm4.3,2.9a4.736,4.736,0,0,1,.513-1.652A2.683,2.683,0,0,1,19.967-5.6a2.166,2.166,0,0,1,1.206-.32,1.788,1.788,0,0,1,1.525.763l.193-.65h.892L22.816-.124a2.827,2.827,0,0,1-.9,1.781,2.542,2.542,0,0,1-1.842.636,2.616,2.616,0,0,1-1.131-.279,2.15,2.15,0,0,1-.851-.736l.553-.6a1.663,1.663,0,0,0,1.391.8A1.667,1.667,0,0,0,21.208,1.1a2,2,0,0,0,.636-1.16l.107-.516a2.2,2.2,0,0,1-1.66.688,1.709,1.709,0,0,1-.943-.293,1.78,1.78,0,0,1-.62-.8,3.272,3.272,0,0,1-.242-1.168A6,6,0,0,1,18.52-2.917Zm.94.55a2.044,2.044,0,0,0,.266,1.188,1,1,0,0,0,.851.443,1.761,1.761,0,0,0,1.5-.853l.457-2.666a1.221,1.221,0,0,0-1.166-.826,1.508,1.508,0,0,0-1.3.644,3.354,3.354,0,0,0-.6,1.8Z" transform="translate(-1137.457 -8672.073)"/>
    <path id="Trazado_192287" data-name="Trazado 192287" d="M2,0H122.007a2,2,0,0,1,2,2V37.682a2,2,0,0,1-2,2H2a2,2,0,0,1-2-2V2A2,2,0,0,1,2,0Z" transform="translate(-1346 -8693.514)" fill="#636363"/>
    <path id="Trazado_192288" data-name="Trazado 192288" d="M-16.719-.69h3.032V0h-3.88V-6.4h.848Zm3.652-1.731a2.808,2.808,0,0,1,.275-1.257,2.049,2.049,0,0,1,.765-.861,2.081,2.081,0,0,1,1.118-.3,2.005,2.005,0,0,1,1.571.672,2.587,2.587,0,0,1,.6,1.789v.057A2.833,2.833,0,0,1-9-1.079a2.019,2.019,0,0,1-.76.859A2.105,2.105,0,0,1-10.9.088a2,2,0,0,1-1.567-.672,2.574,2.574,0,0,1-.6-1.78Zm.817.1a2.034,2.034,0,0,0,.367,1.27,1.174,1.174,0,0,0,.982.479,1.167,1.167,0,0,0,.984-.486,2.224,2.224,0,0,0,.365-1.36,2.031,2.031,0,0,0-.371-1.268,1.181,1.181,0,0,0-.987-.486,1.167,1.167,0,0,0-.971.479A2.208,2.208,0,0,0-12.25-2.325Zm4.337-.092A2.8,2.8,0,0,1-7.4-4.186a1.644,1.644,0,0,1,1.362-.657,1.636,1.636,0,0,1,1.358.615l.04-.527H-3.9V-.114A1.934,1.934,0,0,1-4.443,1.34a2.019,2.019,0,0,1-1.47.532,2.446,2.446,0,0,1-1.006-.22,1.732,1.732,0,0,1-.751-.6l.422-.488a1.59,1.59,0,0,0,1.279.646A1.246,1.246,0,0,0-5.045.875a1.277,1.277,0,0,0,.332-.94V-.475A1.671,1.671,0,0,1-6.045.088,1.624,1.624,0,0,1-7.4-.584,2.938,2.938,0,0,1-7.912-2.417Zm.817.092a2.132,2.132,0,0,0,.33,1.263A1.071,1.071,0,0,0-5.843-.6a1.191,1.191,0,0,0,1.129-.7V-3.472a1.2,1.2,0,0,0-1.121-.681,1.081,1.081,0,0,0-.927.461A2.322,2.322,0,0,0-7.095-2.325ZM-1.786,0H-2.6V-4.755h.817Zm.009-6.737h.984L-1.971-5.445l-.655,0Zm4.1,5.476a.6.6,0,0,0-.248-.512,2.39,2.39,0,0,0-.866-.314A4.093,4.093,0,0,1,.229-2.4a1.394,1.394,0,0,1-.536-.439A1.051,1.051,0,0,1-.481-3.45a1.233,1.233,0,0,1,.494-.989,1.931,1.931,0,0,1,1.263-.4,1.987,1.987,0,0,1,1.312.417,1.326,1.326,0,0,1,.5,1.068H2.274a.734.734,0,0,0-.283-.576,1.062,1.062,0,0,0-.714-.242,1.111,1.111,0,0,0-.694.193.609.609,0,0,0-.25.505.493.493,0,0,0,.233.444,2.866,2.866,0,0,0,.842.286,4.385,4.385,0,0,1,.987.325,1.439,1.439,0,0,1,.56.455,1.118,1.118,0,0,1,.182.648A1.217,1.217,0,0,1,2.626-.3,2.138,2.138,0,0,1,1.3.088a2.394,2.394,0,0,1-1.011-.2A1.644,1.644,0,0,1-.4-.679a1.361,1.361,0,0,1-.248-.784H.169A.842.842,0,0,0,.5-.815a1.27,1.27,0,0,0,.806.24,1.311,1.311,0,0,0,.74-.187A.574.574,0,0,0,2.323-1.261ZM5.3-5.906v1.151h.888v.628H5.3v2.952a.66.66,0,0,0,.119.429.5.5,0,0,0,.4.143,1.968,1.968,0,0,0,.387-.053V0a2.371,2.371,0,0,1-.624.087,1.012,1.012,0,0,1-.822-.33,1.416,1.416,0,0,1-.277-.936V-4.126H3.619v-.628h.866V-5.906ZM8.018,0H7.2V-4.755h.813ZM7.139-6.016A.485.485,0,0,1,7.26-6.35a.454.454,0,0,1,.358-.136.461.461,0,0,1,.36.136.48.48,0,0,1,.123.334.464.464,0,0,1-.123.33.469.469,0,0,1-.36.132.462.462,0,0,1-.358-.132A.469.469,0,0,1,7.139-6.016Zm4.087,5.44a1.171,1.171,0,0,0,.76-.264.928.928,0,0,0,.36-.659h.769a1.474,1.474,0,0,1-.281.778,1.852,1.852,0,0,1-.692.589,2,2,0,0,1-.916.22A1.959,1.959,0,0,1,9.681-.56a2.582,2.582,0,0,1-.573-1.773V-2.47A2.863,2.863,0,0,1,9.363-3.7a1.941,1.941,0,0,1,.732-.839,2.078,2.078,0,0,1,1.127-.3,1.907,1.907,0,0,1,1.329.479,1.712,1.712,0,0,1,.565,1.244h-.769A1.12,1.12,0,0,0,12-3.878a1.087,1.087,0,0,0-.776-.3,1.138,1.138,0,0,0-.96.446,2.1,2.1,0,0,0-.341,1.29v.154a2.053,2.053,0,0,0,.338,1.266A1.143,1.143,0,0,0,11.226-.576ZM16.965,0a1.708,1.708,0,0,1-.114-.5A1.814,1.814,0,0,1,15.5.088a1.678,1.678,0,0,1-1.154-.4,1.287,1.287,0,0,1-.45-1.009,1.344,1.344,0,0,1,.565-1.154,2.662,2.662,0,0,1,1.589-.411h.791v-.374a.913.913,0,0,0-.255-.679,1.024,1.024,0,0,0-.751-.253,1.185,1.185,0,0,0-.729.22.647.647,0,0,0-.294.532H13.99a1.122,1.122,0,0,1,.253-.688,1.725,1.725,0,0,1,.686-.525,2.306,2.306,0,0,1,.951-.193,1.88,1.88,0,0,1,1.288.411A1.482,1.482,0,0,1,17.651-3.3v2.188A2.676,2.676,0,0,0,17.818-.07V0ZM15.616-.62a1.429,1.429,0,0,0,.725-.2,1.2,1.2,0,0,0,.5-.514v-.976H16.2q-1.494,0-1.494.875a.74.74,0,0,0,.255.6A.98.98,0,0,0,15.616-.62Z" transform="translate(-1286.833 -8673.073)" fill="#fff"/>
    <path id="Trazado_192289" data-name="Trazado 192289" d="M2,0H122.007a2,2,0,0,1,2,2V37.682a2,2,0,0,1-2,2H2a2,2,0,0,1-2-2V2A2,2,0,0,1,2,0Z" transform="translate(-915.341 -8693.514)" fill="#8c6df2"/>
    <path id="Trazado_192290" data-name="Trazado 192290" d="M-17.046-1.121-15.218-6.4h.923L-16.668,0h-.747l-2.369-6.4h.918Zm5.26,1.208a2.078,2.078,0,0,1-1.573-.635,2.357,2.357,0,0,1-.606-1.7V-2.4a2.853,2.853,0,0,1,.27-1.263,2.108,2.108,0,0,1,.756-.87,1.9,1.9,0,0,1,1.052-.314,1.781,1.781,0,0,1,1.441.611,2.645,2.645,0,0,1,.514,1.749v.338h-3.221a1.69,1.69,0,0,0,.411,1.136,1.292,1.292,0,0,0,1,.433,1.416,1.416,0,0,0,.729-.176,1.833,1.833,0,0,0,.523-.466l.5.387A2,2,0,0,1-11.786.088Zm-.1-4.263a1.084,1.084,0,0,0-.826.358,1.741,1.741,0,0,0-.413,1h2.382v-.062a1.548,1.548,0,0,0-.334-.96A1.021,1.021,0,0,0-11.887-4.175Zm3.665-.58.026.6a1.733,1.733,0,0,1,1.424-.686q1.507,0,1.521,1.7V0h-.813V-3.146a1.1,1.1,0,0,0-.235-.76.942.942,0,0,0-.719-.246,1.173,1.173,0,0,0-.694.211,1.432,1.432,0,0,0-.466.554V0h-.813V-4.755Zm5.3-1.151v1.151h.888v.628h-.888v2.952A.66.66,0,0,0-2.8-.745.5.5,0,0,0-2.4-.6a1.968,1.968,0,0,0,.387-.053V0a2.371,2.371,0,0,1-.624.087,1.012,1.012,0,0,1-.822-.33,1.416,1.416,0,0,1-.277-.936V-4.126H-4.6v-.628h.866V-5.906ZM1.683-1.261a.6.6,0,0,0-.248-.512,2.39,2.39,0,0,0-.866-.314A4.093,4.093,0,0,1-.411-2.4a1.394,1.394,0,0,1-.536-.439,1.051,1.051,0,0,1-.174-.606,1.233,1.233,0,0,1,.494-.989,1.931,1.931,0,0,1,1.263-.4,1.987,1.987,0,0,1,1.312.417,1.326,1.326,0,0,1,.5,1.068H1.635a.734.734,0,0,0-.283-.576,1.062,1.062,0,0,0-.714-.242,1.111,1.111,0,0,0-.694.193.609.609,0,0,0-.25.505.493.493,0,0,0,.233.444,2.866,2.866,0,0,0,.842.286,4.385,4.385,0,0,1,.987.325,1.439,1.439,0,0,1,.56.455,1.118,1.118,0,0,1,.182.648A1.217,1.217,0,0,1,1.986-.3,2.138,2.138,0,0,1,.664.088a2.394,2.394,0,0,1-1.011-.2,1.644,1.644,0,0,1-.688-.565,1.361,1.361,0,0,1-.248-.784H-.47a.842.842,0,0,0,.327.648,1.27,1.27,0,0,0,.806.24A1.311,1.311,0,0,0,1.4-.762.574.574,0,0,0,1.683-1.261ZM6.491,0a1.708,1.708,0,0,1-.114-.5A1.814,1.814,0,0,1,5.023.088a1.678,1.678,0,0,1-1.154-.4,1.287,1.287,0,0,1-.45-1.009,1.344,1.344,0,0,1,.565-1.154,2.662,2.662,0,0,1,1.589-.411h.791v-.374a.913.913,0,0,0-.255-.679,1.024,1.024,0,0,0-.751-.253,1.185,1.185,0,0,0-.729.22.647.647,0,0,0-.294.532H3.516a1.122,1.122,0,0,1,.253-.688,1.725,1.725,0,0,1,.686-.525,2.306,2.306,0,0,1,.951-.193,1.88,1.88,0,0,1,1.288.411A1.482,1.482,0,0,1,7.176-3.3v2.188A2.676,2.676,0,0,0,7.343-.07V0ZM5.142-.62a1.429,1.429,0,0,0,.725-.2,1.2,1.2,0,0,0,.5-.514v-.976H5.726q-1.494,0-1.494.875a.74.74,0,0,0,.255.6A.98.98,0,0,0,5.142-.62Zm5.339-1.8A2.785,2.785,0,0,1,11-4.177a1.64,1.64,0,0,1,1.358-.666,1.649,1.649,0,0,1,1.323.571V-6.75h.813V0h-.747l-.04-.51a1.656,1.656,0,0,1-1.358.6A1.624,1.624,0,0,1,11-.589a2.817,2.817,0,0,1-.521-1.767Zm.813.092a2.109,2.109,0,0,0,.334,1.266,1.08,1.08,0,0,0,.923.457A1.186,1.186,0,0,0,13.68-1.3V-3.48a1.2,1.2,0,0,0-1.121-.672,1.085,1.085,0,0,0-.932.461A2.322,2.322,0,0,0,11.294-2.325ZM17.728.088a2.078,2.078,0,0,1-1.573-.635,2.357,2.357,0,0,1-.606-1.7V-2.4a2.853,2.853,0,0,1,.27-1.263,2.108,2.108,0,0,1,.756-.87,1.9,1.9,0,0,1,1.052-.314,1.781,1.781,0,0,1,1.441.611,2.645,2.645,0,0,1,.514,1.749v.338H16.361a1.69,1.69,0,0,0,.411,1.136,1.292,1.292,0,0,0,1,.433A1.416,1.416,0,0,0,18.5-.751a1.833,1.833,0,0,0,.523-.466l.5.387A2,2,0,0,1,17.728.088Zm-.1-4.263a1.084,1.084,0,0,0-.826.358,1.741,1.741,0,0,0-.413,1h2.382v-.062a1.548,1.548,0,0,0-.334-.96A1.021,1.021,0,0,0,17.626-4.175ZM-15.423,11.088A2.078,2.078,0,0,1-17,10.453a2.357,2.357,0,0,1-.606-1.7V8.6a2.853,2.853,0,0,1,.27-1.263,2.108,2.108,0,0,1,.756-.87,1.9,1.9,0,0,1,1.052-.314,1.781,1.781,0,0,1,1.441.611,2.645,2.645,0,0,1,.514,1.749v.338h-3.221a1.69,1.69,0,0,0,.411,1.136,1.292,1.292,0,0,0,1,.433,1.416,1.416,0,0,0,.729-.176,1.833,1.833,0,0,0,.523-.466l.5.387A2,2,0,0,1-15.423,11.088Zm-.1-4.263a1.084,1.084,0,0,0-.826.358,1.741,1.741,0,0,0-.413,1h2.382V8.126a1.548,1.548,0,0,0-.334-.96A1.021,1.021,0,0,0-15.524,6.825Zm5.665,2.914a.6.6,0,0,0-.248-.512,2.39,2.39,0,0,0-.866-.314,4.093,4.093,0,0,1-.98-.316,1.394,1.394,0,0,1-.536-.439,1.051,1.051,0,0,1-.174-.606,1.233,1.233,0,0,1,.494-.989,1.931,1.931,0,0,1,1.263-.4,1.987,1.987,0,0,1,1.312.417,1.326,1.326,0,0,1,.5,1.068h-.817a.734.734,0,0,0-.283-.576,1.062,1.062,0,0,0-.714-.242,1.111,1.111,0,0,0-.694.193.609.609,0,0,0-.25.505.493.493,0,0,0,.233.444,2.866,2.866,0,0,0,.842.286,4.385,4.385,0,0,1,.987.325,1.439,1.439,0,0,1,.56.455,1.118,1.118,0,0,1,.182.648,1.217,1.217,0,0,1-.51,1.022,2.138,2.138,0,0,1-1.323.385,2.394,2.394,0,0,1-1.011-.2,1.644,1.644,0,0,1-.688-.565,1.361,1.361,0,0,1-.248-.784h.813a.842.842,0,0,0,.327.648,1.27,1.27,0,0,0,.806.24,1.311,1.311,0,0,0,.74-.187A.574.574,0,0,0-9.859,9.739ZM-3.97,8.675a2.847,2.847,0,0,1-.5,1.749,1.592,1.592,0,0,1-1.345.664,1.744,1.744,0,0,1-1.362-.549v2.29h-.813V6.245h.743l.04.527a1.675,1.675,0,0,1,1.38-.615A1.621,1.621,0,0,1-4.469,6.8a2.878,2.878,0,0,1,.5,1.8Zm-.813-.092a2.1,2.1,0,0,0-.343-1.27,1.1,1.1,0,0,0-.94-.466A1.2,1.2,0,0,0-7.174,7.5V9.774a1.2,1.2,0,0,0,1.116.65,1.1,1.1,0,0,0,.929-.464A2.293,2.293,0,0,0-4.783,8.583ZM0,11a1.708,1.708,0,0,1-.114-.5,1.814,1.814,0,0,1-1.354.589,1.678,1.678,0,0,1-1.154-.4,1.287,1.287,0,0,1-.45-1.009,1.344,1.344,0,0,1,.565-1.154A2.662,2.662,0,0,1-.921,8.117H-.13V7.744a.913.913,0,0,0-.255-.679,1.024,1.024,0,0,0-.751-.253,1.185,1.185,0,0,0-.729.22.647.647,0,0,0-.294.532h-.817a1.122,1.122,0,0,1,.253-.688,1.725,1.725,0,0,1,.686-.525,2.306,2.306,0,0,1,.951-.193A1.88,1.88,0,0,1,.2,6.568,1.482,1.482,0,0,1,.683,7.7V9.888A2.676,2.676,0,0,0,.85,10.93V11Zm-1.349-.62a1.429,1.429,0,0,0,.725-.2,1.2,1.2,0,0,0,.5-.514V8.693H-.767q-1.494,0-1.494.875a.74.74,0,0,0,.255.6A.98.98,0,0,0-1.351,10.38Zm5.216.044a1.171,1.171,0,0,0,.76-.264.928.928,0,0,0,.36-.659h.769a1.474,1.474,0,0,1-.281.778,1.852,1.852,0,0,1-.692.589,2,2,0,0,1-.916.22A1.959,1.959,0,0,1,2.32,10.44a2.582,2.582,0,0,1-.573-1.773V8.53A2.863,2.863,0,0,1,2,7.3a1.941,1.941,0,0,1,.732-.839,2.078,2.078,0,0,1,1.127-.3,1.907,1.907,0,0,1,1.329.479A1.712,1.712,0,0,1,5.755,7.88H4.986a1.12,1.12,0,0,0-.349-.758,1.087,1.087,0,0,0-.776-.3,1.138,1.138,0,0,0-.96.446,2.1,2.1,0,0,0-.341,1.29v.154A2.053,2.053,0,0,0,2.9,9.98,1.143,1.143,0,0,0,3.865,10.424ZM7.552,11H6.739V6.245h.813ZM6.673,4.984a.485.485,0,0,1,.121-.334.454.454,0,0,1,.358-.136.461.461,0,0,1,.36.136.48.48,0,0,1,.123.334.464.464,0,0,1-.123.33.469.469,0,0,1-.36.132.462.462,0,0,1-.358-.132A.469.469,0,0,1,6.673,4.984ZM8.637,8.579a2.808,2.808,0,0,1,.275-1.257,2.049,2.049,0,0,1,.765-.861,2.081,2.081,0,0,1,1.118-.3,2.005,2.005,0,0,1,1.571.672,2.587,2.587,0,0,1,.6,1.789v.057A2.833,2.833,0,0,1,12.7,9.921a2.019,2.019,0,0,1-.76.859,2.105,2.105,0,0,1-1.136.308,2,2,0,0,1-1.567-.672,2.574,2.574,0,0,1-.6-1.78Zm.817.1a2.034,2.034,0,0,0,.367,1.27,1.243,1.243,0,0,0,1.967-.007,2.224,2.224,0,0,0,.365-1.36,2.031,2.031,0,0,0-.371-1.268,1.181,1.181,0,0,0-.987-.486,1.167,1.167,0,0,0-.971.479A2.208,2.208,0,0,0,9.455,8.675Zm7.3,1.063a.6.6,0,0,0-.248-.512,2.39,2.39,0,0,0-.866-.314,4.093,4.093,0,0,1-.98-.316,1.394,1.394,0,0,1-.536-.439,1.051,1.051,0,0,1-.174-.606,1.233,1.233,0,0,1,.494-.989,1.931,1.931,0,0,1,1.263-.4,1.987,1.987,0,0,1,1.312.417,1.326,1.326,0,0,1,.5,1.068h-.817a.734.734,0,0,0-.283-.576,1.062,1.062,0,0,0-.714-.242,1.111,1.111,0,0,0-.694.193.609.609,0,0,0-.25.505A.493.493,0,0,0,15,7.968a2.866,2.866,0,0,0,.842.286,4.385,4.385,0,0,1,.987.325,1.439,1.439,0,0,1,.56.455,1.118,1.118,0,0,1,.182.648,1.217,1.217,0,0,1-.51,1.022,2.138,2.138,0,0,1-1.323.385,2.394,2.394,0,0,1-1.011-.2,1.644,1.644,0,0,1-.688-.565,1.361,1.361,0,0,1-.248-.784H14.6a.842.842,0,0,0,.327.648,1.27,1.27,0,0,0,.806.24,1.311,1.311,0,0,0,.74-.187A.574.574,0,0,0,16.754,9.739Z" transform="translate(-858.48 -8675.959)"/>
  </g>
</svg>
