<svg xmlns="http://www.w3.org/2000/svg" width="1240" height="727.603" viewBox="0 0 1240 727.603">
  <g id="Grupo_138091" data-name="Grupo 138091" transform="translate(-32.547 -43.857)">
    <path id="Trazado_191799" data-name="Trazado 191799" d="M259.714,61V380.622H707.8v12.234" transform="translate(313.24 23.638)" fill="none" stroke="#fdb74d" stroke-miterlimit="10" stroke-width="1"/>
    <line id="Línea_214" data-name="Línea 214" x2="345.62" transform="translate(401.844 152.097)" fill="none" stroke="#fdb74d" stroke-miterlimit="10" stroke-width="1"/>
    <path id="Trazado_191800" data-name="Trazado 191800" d="M153.419,93.786V266.6H142.714" transform="translate(151.909 68.846)" fill="none" stroke="#5038a1" stroke-miterlimit="10" stroke-width="1"/>
    <line id="Línea_215" data-name="Línea 215" x1="15.293" transform="translate(289.271 224.568)" fill="none" stroke="#5038a1" stroke-miterlimit="10" stroke-width="1"/>
    <line id="Línea_216" data-name="Línea 216" x2="12.234" transform="translate(304.564 284.975)" fill="none" stroke="#5038a1" stroke-miterlimit="10" stroke-width="1"/>
    <path id="Trazado_191801" data-name="Trazado 191801" d="M373.928,94.857V279.392h17.332" transform="translate(470.73 70.324)" fill="none" stroke="#5038a1" stroke-miterlimit="10" stroke-width="1"/>
    <line id="Línea_217" data-name="Línea 217" x2="12.999" transform="translate(830.64 225.333)" fill="none" stroke="#5038a1" stroke-miterlimit="10" stroke-width="1"/>
    <line id="Línea_218" data-name="Línea 218" x2="17.587" transform="translate(843.639 268.918)" fill="none" stroke="#5038a1" stroke-miterlimit="10" stroke-width="1"/>
    <line id="Línea_219" data-name="Línea 219" x1="12.234" transform="translate(831.405 307.915)" fill="none" stroke="#5038a1" stroke-miterlimit="10" stroke-width="1"/>
    <path id="Trazado_191802" data-name="Trazado 191802" d="M488.658,187.643H92.571v12.234" transform="translate(82.767 198.266)" fill="none" stroke="#fdb74d" stroke-miterlimit="10" stroke-width="1"/>
    <path id="Trazado_191803" data-name="Trazado 191803" d="M302.828,191.821H227.893V217.14" transform="translate(269.362 204.028)" fill="none" stroke="#fdb74d" stroke-miterlimit="10" stroke-width="1"/>
    <path id="Trazado_191804" data-name="Trazado 191804" d="M123.275,210.786v48.937H69.75V268.9" transform="translate(51.299 230.177)" fill="#fff" stroke="#8c6df2" stroke-miterlimit="10" stroke-width="1"/>
    <line id="Línea_220" data-name="Línea 220" y2="101.698" transform="translate(496.49 463.902)" fill="none" stroke="#8c6df2" stroke-miterlimit="10" stroke-width="1"/>
    <path id="Trazado_191805" data-name="Trazado 191805" d="M313.356,236.5H164.25v18.352" transform="translate(181.605 265.635)" fill="none" stroke="#8c6df2" stroke-miterlimit="10" stroke-width="1"/>
    <path id="Trazado_191806" data-name="Trazado 191806" d="M227.25,239.393H400.825v11.47" transform="translate(268.475 269.624)" fill="none" stroke="#8c6df2" stroke-miterlimit="10" stroke-width="1"/>
    <path id="Trazado_191807" data-name="Trazado 191807" d="M448.071,220.107v34.409h89.463V289.69" transform="translate(572.965 243.031)" fill="#fff" stroke="#8c6df2" stroke-miterlimit="10" stroke-width="1"/>
    <path id="Trazado_191808" data-name="Trazado 191808" d="M522.332,228.464H393.107v7.646" transform="translate(497.175 254.554)" fill="#fff" stroke="#8c6df2" stroke-miterlimit="10" stroke-width="1"/>
    <path id="Trazado_191809" data-name="Trazado 191809" d="M212.225,260.714v44.859H129.643v10.2" transform="translate(133.885 299.024)" fill="none" stroke="#fdb74d" stroke-miterlimit="10" stroke-width="1"/>
    <path id="Trazado_191810" data-name="Trazado 191810" d="M266.2,279.571v84.621H199.929v14.273" transform="translate(230.802 325.026)" fill="none" stroke="#fdb74d" stroke-miterlimit="10" stroke-width="1"/>
    <line id="Línea_221" data-name="Línea 221" y2="102.972" transform="translate(670.319 554.64)" fill="none" stroke="#fdb74d" stroke-miterlimit="10" stroke-width="1"/>
    <path id="Trazado_191811" data-name="Trazado 191811" d="M392.357,247.429v60.152h76.465V387.1H456.927" transform="translate(496.141 280.704)" fill="none" stroke="#fdb74d" stroke-miterlimit="10" stroke-width="1"/>
    <line id="Línea_222" data-name="Línea 222" x1="12.999" transform="translate(952.219 624.86)" fill="none" stroke="#fdb74d" stroke-miterlimit="10" stroke-width="1"/>
    <path id="Trazado_191812" data-name="Trazado 191812" d="M499.459,267.143v19.881H475.5v76.8H578.472v63.551" transform="translate(610.787 307.888)" fill="none" stroke="#fdb74d" stroke-miterlimit="10" stroke-width="1"/>
    <line id="Línea_223" data-name="Línea 223" x1="32.285" transform="translate(1156.974 709.439)" fill="none" stroke="#fdb74d" stroke-miterlimit="10" stroke-width="1"/>
    <line id="Línea_224" data-name="Línea 224" x2="22.939" transform="translate(1085.777 626.857)" fill="none" stroke="#fdb74d" stroke-miterlimit="10" stroke-width="1"/>
    <path id="Polígono_26" data-name="Polígono 26" d="M184.663,91.637l7.8-3.97.164,7.6Z" transform="translate(209.752 60.409)" fill="#12263f"/>
    <path id="Polígono_26-2" data-name="Polígono 26" d="M138.509,121.993l7.8-3.97.164,7.6Z" transform="translate(146.111 102.267)" fill="#12263f"/>
    <path id="Polígono_26-3" data-name="Polígono 26" d="M158.251,147.2l-7.8,3.968-.164-7.6Z" transform="translate(162.351 137.49)" fill="#12263f"/>
    <path id="Polígono_26-4" data-name="Polígono 26" d="M139.956,168.759l7.8-3.968.162,7.6Z" transform="translate(148.106 166.755)" fill="#12263f"/>
    <path id="Polígono_26-5" data-name="Polígono 26" d="M94.943,199.789l-3.968-7.8,7.6-.162Z" transform="translate(80.566 204.035)" fill="#12263f"/>
    <path id="Polígono_26-6" data-name="Polígono 26" d="M230.159,210.077l-3.97-7.8,7.6-.164Z" transform="translate(267.012 218.217)" fill="#12263f"/>
    <path id="Polígono_26-7" data-name="Polígono 26" d="M302.373,252.077l-3.97-7.8,7.6-.164Z" transform="translate(366.588 276.131)" fill="#12263f"/>
    <path id="Polígono_26-8" data-name="Polígono 26" d="M166.516,251.649l-3.97-7.8,7.6-.162Z" transform="translate(179.255 275.541)" fill="#12263f"/>
    <path id="Polígono_26-9" data-name="Polígono 26" d="M229.784,270.826l-3.97-7.8,7.6-.164Z" transform="translate(266.495 301.985)" fill="#12263f"/>
    <path id="Polígono_26-10" data-name="Polígono 26" d="M302.909,309.237l-3.97-7.8,7.6-.164Z" transform="translate(367.327 354.95)" fill="#12263f"/>
    <path id="Polígono_26-11" data-name="Polígono 26" d="M202.3,329.006l-3.97-7.8,7.6-.162Z" transform="translate(228.6 382.208)" fill="#12263f"/>
    <path id="Polígono_26-12" data-name="Polígono 26" d="M131.748,291.077l-3.97-7.8,7.6-.164Z" transform="translate(131.314 329.908)" fill="#12263f"/>
    <path id="Polígono_26-13" data-name="Polígono 26" d="M72.016,242.756l-3.97-7.8,7.6-.162Z" transform="translate(48.949 263.278)" fill="#12263f"/>
    <path id="Polígono_26-14" data-name="Polígono 26" d="M416.344,290.353l7.8-3.968.164,7.6Z" transform="translate(529.217 334.421)" fill="#12263f"/>
    <path id="Polígono_26-15" data-name="Polígono 26" d="M416.344,308.46l7.8-3.968.164,7.6Z" transform="translate(529.217 359.389)" fill="#12263f"/>
    <path id="Polígono_26-16" data-name="Polígono 26" d="M503,325.951l7.8-3.968.164,7.6Z" transform="translate(648.701 383.507)" fill="#12263f"/>
    <path id="Polígono_26-17" data-name="Polígono 26" d="M521.239,340.39l-3.97-7.8,7.6-.162Z" transform="translate(668.382 397.905)" fill="#12263f"/>
    <path id="Polígono_26-18" data-name="Polígono 26" d="M491.56,290.943l-7.8,3.97-.164-7.6Z" transform="translate(621.949 335.701)" fill="#12263f"/>
    <path id="Polígono_26-19" data-name="Polígono 26" d="M488.052,256.682l-3.97-7.8,7.6-.162Z" transform="translate(622.62 282.485)" fill="#12263f"/>
    <path id="Polígono_26-20" data-name="Polígono 26" d="M395.439,239.135l-3.97-7.8,7.6-.162Z" transform="translate(494.916 258.285)" fill="#12263f"/>
    <path id="Polígono_26-21" data-name="Polígono 26" d="M450.363,208.157l-3.97-7.8,7.6-.164Z" transform="translate(570.651 215.57)" fill="#12263f"/>
    <path id="Polígono_26-22" data-name="Polígono 26" d="M388.515,174.487l-7.8,3.97-.162-7.6Z" transform="translate(479.86 175.12)" fill="#12263f"/>
    <path id="Polígono_26-23" data-name="Polígono 26" d="M388.515,140.63l-7.8,3.97-.162-7.6Z" transform="translate(479.86 128.434)" fill="#12263f"/>
    <path id="Polígono_26-24" data-name="Polígono 26" d="M366.227,157.077l7.8-3.97.164,7.6Z" transform="translate(460.11 150.644)" fill="#12263f"/>
    <path id="Polígono_26-25" data-name="Polígono 26" d="M366.227,122.577l7.8-3.97.164,7.6Z" transform="translate(460.11 103.072)" fill="#12263f"/>
    <path id="Polígono_26-26" data-name="Polígono 26" d="M340.89,91.454l-7.8,3.968-.162-7.6Z" transform="translate(414.19 60.622)" fill="#12263f"/>
    <rect id="Rectángulo_44446" data-name="Rectángulo 44446" width="157.007" height="46.898" rx="2" transform="translate(496.745 43.857)" fill="#fdb74d"/>
    <g id="Grupo_138064" data-name="Grupo 138064" transform="translate(919.111 435.611)">
      <rect id="Rectángulo_44447" data-name="Rectángulo 44447" width="216.48" height="30.246" rx="2" fill="#fdb74d"/>
      <text id="DIVULGACIÓN_Y_COMUNICACIÓN" data-name="DIVULGACIÓN Y COMUNICACIÓN" transform="translate(106.19 19.267)" fill="#fff" font-size="14" font-family="Roboto-Bold, Roboto" font-weight="700"><tspan x="-105.711" y="0">DIVULGACIÓN Y COMUNICACIÓN</tspan></text>
    </g>
    <g id="Grupo_138065" data-name="Grupo 138065" transform="translate(96.522 411.822)">
      <rect id="Rectángulo_44448" data-name="Rectángulo 44448" width="157.007" height="30.246" rx="2" fill="#fdb74d"/>
      <text id="FICHA_TECNICA" data-name="FICHA TECNICA" transform="translate(71.175 16.078)" fill="#fff" font-size="12" font-family="Roboto-Bold, Roboto" font-weight="700"><tspan x="-43.57" y="0">FICHA TECNICA</tspan></text>
    </g>
    <g id="Grupo_138066" data-name="Grupo 138066" transform="translate(418.751 435.611)">
      <rect id="Rectángulo_44449" data-name="Rectángulo 44449" width="157.007" height="30.246" rx="2" fill="#fdb74d"/>
      <text id="PLAN_DE_TRABAJO" data-name="PLAN DE TRABAJO" transform="translate(76.546 18.078)" fill="#fff" font-size="14" font-family="Roboto-Bold, Roboto" font-weight="700"><tspan x="-61.219" y="0">PLAN DE TRABAJO</tspan></text>
    </g>
    <g id="Grupo_138067" data-name="Grupo 138067" transform="translate(323.877 269.767)">
      <rect id="Rectángulo_44450" data-name="Rectángulo 44450" width="157.007" height="30.246" rx="2" fill="#fff" stroke="#8c6df2" stroke-miterlimit="10" stroke-width="1"/>
      <text id="_2._Producción" data-name="2. Producción" transform="translate(76.32 18.318)" font-size="14" font-family="Roboto-Regular, Roboto"><tspan x="-42.902" y="0">2. Producción</tspan></text>
    </g>
    <g id="Grupo_138068" data-name="Grupo 138068" transform="translate(125.069 318.705)">
      <rect id="Rectángulo_44451" data-name="Rectángulo 44451" width="157.007" height="30.246" rx="2" transform="translate(0)" fill="#fff" stroke="#8c6df2" stroke-miterlimit="10" stroke-width="1"/>
      <text id="_3._Postproducción" data-name="3. Postproducción" transform="translate(76.099 17.172)" font-size="14" font-family="Roboto-Regular, Roboto"><tspan x="-56.673" y="0">3. Postproducción</tspan></text>
    </g>
    <g id="Grupo_138069" data-name="Grupo 138069" transform="translate(32.547 515.474)">
      <rect id="Rectángulo_44452" data-name="Rectángulo 44452" width="183.175" height="49.277" rx="2" fill="#5038a1"/>
      <text id="Detalla_la_información_y_características_del_evento" data-name="Detalla la información 
y características del evento" transform="translate(83.777 18.551)" fill="#fff" font-size="13" font-family="Roboto-Regular, Roboto"><tspan x="-64.829" y="0">Detalla la información </tspan><tspan x="-78.559" y="16">y características del evento</tspan></text>
    </g>
    <g id="Grupo_138070" data-name="Grupo 138070" transform="translate(268.992 531.616)">
      <rect id="Rectángulo_44453" data-name="Rectángulo 44453" width="157.007" height="30.246" rx="2" fill="#5038a1"/>
      <text id="Organigrama" transform="translate(73.689 16.111)" fill="#fff" font-size="13" font-family="Roboto-Regular, Roboto"><tspan x="-37.442" y="0">Organigrama</tspan></text>
    </g>
    <g id="Grupo_138071" data-name="Grupo 138071" transform="translate(171.713 631.105)">
      <rect id="Rectángulo_44454" data-name="Rectángulo 44454" width="183.175" height="49.277" rx="2" fill="#5038a1"/>
      <text id="Presenta_quienes_integran_los_comités_del_evento." data-name="Presenta quienes 
integran los comités 
del evento." transform="translate(92.311 13.561)" fill="#fff" font-size="14" font-family="Roboto-Regular, Roboto"><tspan x="-55.593" y="0">Presenta quienes </tspan><tspan x="-64.979" y="17">integran los comités </tspan><tspan x="-33.722" y="34">del evento.</tspan></text>
    </g>
    <g id="Grupo_138072" data-name="Grupo 138072" transform="translate(343.325 717.739)">
      <rect id="Rectángulo_44455" data-name="Rectángulo 44455" width="183.175" height="49.277" rx="2" transform="translate(0 0.647)" fill="#5038a1"/>
      <text id="Detalla_de_manera_organizada_el_desarrollo_y_ejecución_del_evento." data-name="Detalla de manera 
organizada el desarrollo y
 ejecución del evento." transform="translate(89.146 13)" fill="#fff" font-size="14" font-family="Roboto-Regular, Roboto"><tspan x="-58.006" y="0">Detalla de manera </tspan><tspan x="-79.666" y="17">organizada el desarrollo y</tspan><tspan x="-67.016" y="34" xml:space="preserve"> ejecución del evento.</tspan></text>
    </g>
    <g id="Grupo_138073" data-name="Grupo 138073" transform="translate(575.913 672.422)">
      <rect id="Rectángulo_44456" data-name="Rectángulo 44456" width="183.175" height="49.277" rx="2" fill="#5038a1"/>
      <text id="Presenta_las_actividades_y_tiempos_de_ejecución_de_cada_una_de_las_fases" data-name="Presenta las actividades 
y tiempos de ejecución 
de cada una de las fases" transform="translate(83.937 12.56)" fill="#fff" font-size="13" font-family="Roboto-Regular, Roboto"><tspan x="-72.043" y="0">Presenta las actividades </tspan><tspan x="-67.866" y="16">y tiempos de ejecución </tspan><tspan x="-71.513" y="32">de cada una de las fases</tspan></text>
    </g>
    <g id="Grupo_138074" data-name="Grupo 138074" transform="translate(588.997 531.616)">
      <rect id="Rectángulo_44457" data-name="Rectángulo 44457" width="157.007" height="30.246" rx="2" fill="#5038a1"/>
      <text id="Cronograma" transform="translate(77.055 16.87)" fill="#fff" font-size="14" font-family="Roboto-Regular, Roboto"><tspan x="-38.613" y="0">Cronograma</tspan></text>
    </g>
    <g id="Grupo_138075" data-name="Grupo 138075" transform="translate(812.231 503.069)">
      <rect id="Rectángulo_44458" data-name="Rectángulo 44458" width="157.007" height="30.246" rx="2" fill="#5038a1"/>
      <text id="Medios_masivos" data-name="Medios masivos" transform="translate(76.971 18.319)" fill="#fff" font-size="14" font-family="Roboto-Regular, Roboto"><tspan x="-50.993" y="0">Medios masivos</tspan></text>
    </g>
    <g id="Grupo_138076" data-name="Grupo 138076" transform="translate(1036.526 546.739)">
      <rect id="Rectángulo_44459" data-name="Rectángulo 44459" width="157.007" height="30.246" rx="2" fill="#5038a1"/>
      <text id="Medios_digitales" data-name="Medios digitales" transform="translate(77.971 17.111)" fill="#fff" font-size="14" font-family="Roboto-Regular, Roboto"><tspan x="-51.184" y="0">Medios digitales</tspan></text>
    </g>
    <g id="Grupo_138077" data-name="Grupo 138077" transform="translate(1115.54 611.649)">
      <rect id="Rectángulo_44460" data-name="Rectángulo 44460" width="157.007" height="30.246" rx="2" fill="#5038a1"/>
      <text id="Redes_sociales" data-name="Redes sociales" transform="translate(70.728 16.319)" fill="#fff" font-size="12" font-family="Roboto-Regular, Roboto"><tspan x="-40.119" y="0">Redes sociales</tspan></text>
    </g>
    <g id="Grupo_138078" data-name="Grupo 138078" transform="translate(993.452 695.59)">
      <rect id="Rectángulo_44461" data-name="Rectángulo 44461" width="157.007" height="30.246" rx="2" fill="#5038a1"/>
      <text id="Página_web" data-name="Página web" transform="translate(74.229 16.11)" fill="#fff" font-size="13" font-family="Roboto-Regular, Roboto"><tspan x="-33.531" y="0">Página web</tspan></text>
    </g>
    <g id="Grupo_138079" data-name="Grupo 138079" transform="translate(1105.09 741.214)">
      <rect id="Rectángulo_44462" data-name="Rectángulo 44462" width="157.007" height="30.246" rx="2" fill="#5038a1"/>
      <text id="Correo_electrónico" data-name="Correo electrónico" transform="translate(75.973 18.319)" fill="#fff" font-size="14" font-family="Roboto-Regular, Roboto"><tspan x="-57.23" y="0">Correo electrónico</tspan></text>
    </g>
    <g id="Grupo_138080" data-name="Grupo 138080" transform="translate(784.703 611.649)">
      <rect id="Rectángulo_44463" data-name="Rectángulo 44463" width="157.007" height="30.246" rx="2" fill="#5038a1"/>
      <text id="Televisión_" data-name="Televisión " transform="translate(75.985 16.319)" fill="#fff" font-size="12" font-family="Roboto-Regular, Roboto"><tspan x="-28.195" y="0">Televisión </tspan></text>
    </g>
    <g id="Grupo_138081" data-name="Grupo 138081" transform="translate(784.703 652.94)">
      <rect id="Rectángulo_44464" data-name="Rectángulo 44464" width="157.007" height="30.246" rx="2" fill="#5038a1"/>
      <text id="Prensa" transform="translate(75.935 16.017)" fill="#fff" font-size="12" font-family="Roboto-Regular, Roboto"><tspan x="-18.606" y="0">Prensa</tspan></text>
    </g>
    <g id="Grupo_138082" data-name="Grupo 138082" transform="translate(418.751 575.652)">
      <rect id="Rectángulo_44465" data-name="Rectángulo 44465" width="157.007" height="30.246" rx="2" fill="#5038a1"/>
      <text id="Flujograma" transform="translate(75.66 16.111)" fill="#fff" font-size="13" font-family="Roboto-Regular, Roboto"><tspan x="-32.5" y="0">Flujograma</tspan></text>
    </g>
    <g id="Grupo_138083" data-name="Grupo 138083" transform="translate(125.069 211.654)">
      <rect id="Rectángulo_44466" data-name="Rectángulo 44466" width="157.007" height="30.246" rx="2" transform="translate(0 0)" fill="#fff" stroke="#8c6df2" stroke-miterlimit="10" stroke-width="1"/>
      <text id="_1._Preproducción" data-name="1. Preproducción" transform="translate(76.637 17.172)" font-size="14" font-family="Roboto-Regular, Roboto"><tspan x="-52.842" y="0">1. Preproducción</tspan></text>
    </g>
    <g id="Grupo_138084" data-name="Grupo 138084" transform="translate(663.719 211.654)">
      <rect id="Rectángulo_44467" data-name="Rectángulo 44467" width="157.007" height="30.246" rx="2" transform="translate(0 0)" fill="#fff" stroke="#8c6df2" stroke-miterlimit="10" stroke-width="1"/>
      <text id="General" transform="translate(75.827 16.319)" font-size="12" font-family="Roboto-Regular, Roboto"><tspan x="-20.388" y="0">General</tspan></text>
    </g>
    <g id="Grupo_138085" data-name="Grupo 138085" transform="translate(663.719 292.197)">
      <rect id="Rectángulo_44468" data-name="Rectángulo 44468" width="157.007" height="30.246" rx="2" fill="#fff" stroke="#8c6df2" stroke-miterlimit="10" stroke-width="1"/>
      <text id="Artística" transform="translate(75.545 16.319)" font-size="12" font-family="Roboto-Regular, Roboto"><tspan x="-22.447" y="0">Artística</tspan></text>
    </g>
    <g id="Grupo_138086" data-name="Grupo 138086" transform="translate(875.101 253.455)">
      <rect id="Rectángulo_44469" data-name="Rectángulo 44469" width="157.007" height="30.246" rx="2" fill="#fff" stroke="#8c6df2" stroke-miterlimit="10" stroke-width="1"/>
      <text id="Técnica" transform="translate(75.941 16.319)" font-size="12" font-family="Roboto-Regular, Roboto"><tspan x="-20.78" y="0">Técnica</tspan></text>
    </g>
    <g id="Grupo_138087" data-name="Grupo 138087" transform="translate(875.101 331.959)">
      <rect id="Rectángulo_44470" data-name="Rectángulo 44470" width="157.007" height="30.246" rx="2" fill="#fff" stroke="#8c6df2" stroke-miterlimit="10" stroke-width="1"/>
      <text id="Logística" transform="translate(74.797 15.111)" font-size="12" font-family="Roboto-Regular, Roboto"><tspan x="-24.413" y="0">Logística</tspan></text>
    </g>
    <text id="PLANEACIÓN_DE_LOS_EVENTOS" data-name="PLANEACIÓN 
DE LOS EVENTOS" transform="translate(572.002 62.963)" fill="#fff" font-size="13" font-family="Roboto-Bold, Roboto" font-weight="700"><tspan x="-41.542" y="0">PLANEACIÓN </tspan><tspan x="-51.394" y="16">DE LOS EVENTOS</tspan></text>
    <g id="Grupo_138090" data-name="Grupo 138090" transform="translate(228.269 136.209)">
      <g id="Grupo_138088" data-name="Grupo 138088" transform="translate(536.951)">
        <rect id="Rectángulo_44471" data-name="Rectángulo 44471" width="157.007" height="30.246" rx="2" fill="#fdb74d"/>
        <text id="PRODUCCIÓN" transform="translate(74.304 18.267)" fill="#fff" font-size="13" font-family="Roboto-Bold, Roboto" font-weight="700"><tspan x="-40.809" y="0">PRODUCCIÓN</tspan></text>
      </g>
      <g id="Grupo_138089" data-name="Grupo 138089">
        <rect id="Rectángulo_44472" data-name="Rectángulo 44472" width="157.007" height="30.246" rx="2" fill="#fdb74d"/>
        <text id="FASES" transform="translate(77.881 18.923)" fill="#fff" font-size="14" font-family="Roboto-Bold, Roboto" font-weight="700"><tspan x="-20.433" y="0">FASES</tspan></text>
      </g>
    </g>
  </g>
</svg>
